SplineFontDB: 3.2
FontName: Consolig-BoldItalic
FullName: Consolig Bold Italic
FamilyName: Consolig
Weight: Bold
Copyright: (c) 2019 Schism Studios
Version: 0.1
ItalicAngle: -11
UnderlinePosition: -314
UnderlineWidth: 194
Ascent: 1521
Descent: 527
InvalidEm: 0
UFOAscent: 1521
UFODescent: -527
LayerCount: 2
Layer: 0 1 "Back" 1
Layer: 1 1 "Fore" 0 "glyphs"
StyleMap: 0x0021
FSType: 8
OS2Version: 3
OS2_WeightWidthSlopeOnly: 0
OS2_UseTypoMetrics: 0
CreationTime: 1575066624
ModificationTime: 1575786444
PfmFamily: 17
TTFWeight: 700
TTFWidth: 5
LineGap: 350
VLineGap: 0
Panose: 2 11 7 9 2 2 4 10 2 4
OS2TypoAscent: 1521
OS2TypoAOffset: 0
OS2TypoDescent: -527
OS2TypoDOffset: 0
OS2TypoLinegap: 350
OS2WinAscent: 1884
OS2WinAOffset: 0
OS2WinDescent: 514
OS2WinDOffset: 0
HheadAscent: 1521
HheadAOffset: 0
HheadDescent: -527
HheadDOffset: 0
OS2SubXSize: 1433
OS2SubYSize: 1331
OS2SubXOff: 0
OS2SubYOff: 286
OS2SupXSize: 1433
OS2SupYSize: 1331
OS2SupXOff: 0
OS2SupYOff: 976
OS2StrikeYSize: 194
OS2StrikeYPos: 512
OS2CapHeight: 1307
OS2XHeight: 1016
OS2FamilyClass: 2057
OS2Vendor: 'SS  '
OS2CodePages: 6000019f.dfd70000
OS2UnicodeRanges: e00006ff.0000fcff.00000001.00000000
MarkAttachClasses: 1
DEI: 91125
LangName: 1033 "+AKkA 2019 Schism Studios" "" "Bold Italic" "" "" "0.1" "" "Consolig is not trademarked. It is a not-so-clever combination of two other words, one of which is a trademark of Microsoft." "Schism Studios" "Josh Jones" "" "http://www.schism.co" "http://josh-jones.com" "SIL OPEN FONT LICENSE (OFL-1.1)" "https://opensource.org/licenses/OFL-1.1"
GaspTable: 3 10 10 14 7 65535 15 1
PickledDataWithLists: "(dp0
Vpublic.glyphOrder\\u000d
p1
(lp2
Vhyphen_hyphen_greater.liga\\u000d
p3
aVLIG\\u000d
p4
as."
Encoding: Custom
UnicodeInterp: none
NameList: AGL For New Fonts
DisplaySize: -128
AntiAlias: 1
FitToEm: 0
WinInfo: 160 8 2
BeginPrivate: 0
EndPrivate

StartChar: ampersand_ampersand.liga
Encoding: 0 -1 0
GlifName: ampersand_ampersand.liga
Width: 1126
Flags: W
HStem: -14 149<-656.528 -340.206 187.789 503.794> 1237 147<-589.023 -357.102 254.977 486.898>
VStem: -928 181<223.141 525.923> -815 180<917.255 1190.56> -315 176<952.248 1196.2> 29 180<917.255 1190.56> 529 176<953.753 1196.2> 707 176<400.715 682>
LayerCount: 2
Fore
SplineSet
373 1237 m 0,0,1
 296 1237 296 1237 252.5 1191 c 128,-1,2
 209 1145 209 1145 209 1067 c 0,3,4
 209 1004 209 1004 229 962 c 128,-1,5
 249 920 249 920 293 864 c 2,6,-1
 320 829 l 1,7,8
 371 857 371 857 398.5 874.5 c 128,-1,9
 426 892 426 892 460.5 925.5 c 128,-1,10
 495 959 495 959 512 996 c 128,-1,11
 529 1033 529 1033 529 1077 c 0,12,13
 529 1151 529 1151 487 1194 c 128,-1,14
 445 1237 445 1237 373 1237 c 0,0,1
-471 1237 m 0,15,16
 -548 1237 -548 1237 -591.5 1191 c 128,-1,17
 -635 1145 -635 1145 -635 1067 c 0,18,19
 -635 1004 -635 1004 -615 962 c 128,-1,20
 -595 920 -595 920 -551 864 c 2,21,-1
 -524 829 l 1,22,23
 -473 857 -473 857 -445.5 874.5 c 128,-1,24
 -418 892 -418 892 -383.5 925.5 c 128,-1,25
 -349 959 -349 959 -332 996 c 128,-1,26
 -315 1033 -315 1033 -315 1077 c 0,27,28
 -315 1151 -315 1151 -357 1194 c 128,-1,29
 -399 1237 -399 1237 -471 1237 c 0,15,16
-747 373 m 0,30,31
 -747 262 -747 262 -681 198.5 c 128,-1,32
 -615 135 -615 135 -502 135 c 0,33,34
 -371.5 135 -371.5 135 -274 231 c 1,35,-1
 -210 306 l 1,36,-1
 -572 641 l 1,37,-1
 -592 629 l 2,38,39
 -638 598 -638 598 -669 568 c 128,-1,40
 -700 538 -700 538 -723.5 486.5 c 128,-1,41
 -747 435 -747 435 -747 373 c 0,30,31
666 109 m 1,42,43
 521 -14 521 -14 318 -14 c 0,44,45
 145 -14 145 -14 21 90 c 0,46,47
 5 103 5 103 -17.5 124 c 128,-1,48
 -40 145 -40 145 -54 159.5 c 2,49,-1
 -68 174 l 1,50,-1
 -92 197 l 1,51,52
 -132 153 -132 153 -178 109 c 0,53,54
 -323 -14 -323 -14 -526 -14 c 0,55,56
 -668 -14 -668 -14 -764.5 43 c 128,-1,57
 -861 100 -861 100 -902 204 c 0,58,59
 -928 269 -928 269 -928 352 c 0,60,61
 -928 427 -928 427 -909 488.5 c 128,-1,62
 -890 550 -890 550 -852.5 596 c 128,-1,63
 -815 642 -815 642 -776 675 c 128,-1,64
 -737 708 -737 708 -682 741 c 1,65,-1
 -704 772 l 1,66,67
 -815 909 -815 909 -815 1051 c 0,68,69
 -815 1168 -815 1168 -761 1246 c 128,-1,70
 -707 1324 -707 1324 -614 1359 c 0,71,72
 -549 1384 -549 1384 -465 1384 c 0,73,74
 -350 1384 -350 1384 -271.5 1337 c 128,-1,75
 -193 1290 -193 1290 -160 1206 c 0,76,77
 -139 1154 -139 1154 -139 1094 c 0,78,79
 -139 1051 -139 1051 -149 1012 c 128,-1,80
 -159 973 -159 973 -171 944.5 c 128,-1,81
 -183 916 -183 916 -209.5 886 c 128,-1,82
 -236 856 -236 856 -253.5 839 c 128,-1,83
 -271 822 -271 822 -308.5 796.5 c 128,-1,84
 -346 771 -346 771 -363 761 c 128,-1,85
 -380 751 -380 751 -422 727 c 1,86,-1
 -102 439 l 1,87,88
 -24 540 -24 540 33 601 c 0,89,90
 55 625 55 625 89.5 657 c 128,-1,91
 124 689 124 689 147.5 709.5 c 2,92,-1
 171 730 l 1,93,-1
 140 772 l 1,94,95
 29 909 29 909 29 1051 c 0,96,97
 29 1168 29 1168 83 1246 c 128,-1,98
 137 1324 137 1324 230 1359 c 0,99,100
 295 1384 295 1384 379 1384 c 0,101,102
 494 1384 494 1384 572.5 1337 c 128,-1,103
 651 1290 651 1290 684 1206 c 0,104,105
 705 1154 705 1154 705 1094 c 0,106,107
 705 1051 705 1051 695.5 1012 c 128,-1,108
 686 973 686 973 673.5 944.5 c 128,-1,109
 661 916 661 916 635 886.5 c 128,-1,110
 609 857 609 857 590.5 839 c 128,-1,111
 572 821 572 821 536 796.5 c 128,-1,112
 500 772 500 772 481 761 c 128,-1,113
 462 750 462 750 422.469107621 727.217991474 c 0,114,115
 413 722 413 722 408 719 c 1,116,-1
 666 397 l 1,117,118
 707.030585889 509.930290895 707.030585889 509.930290895 707.187744859 661.334927038 c 0,119,120
 707.187744859 671.573345509 707.187744859 671.573345509 707 682 c 1,121,-1
 883 682 l 1,122,123
 883 429 883 429 783 252 c 1,124,-1
 985 0 l 1,125,-1
 754 0 l 1,126,-1
 666 109 l 1,42,43
18 330 m 1,127,-1
 162 200 l 1,128,129
 227 135 227 135 342 135 c 0,130,131
 472.5 135 472.5 135 570 231 c 1,132,-1
 273 606 l 1,133,134
 180 533 180 533 135 482 c 0,135,136
 112 456 112 456 83 418 c 128,-1,137
 54 380 54 380 36 355 c 2,138,-1
 18 330 l 1,127,-1
EndSplineSet
PickledDataWithLists: "(dp0
Vcom.schriftgestaltung.Glyphs.lastChange\\u000d
p1
V2019/11/18 23:07:02\\u000d
p2
s."
EndChar

StartChar: asciicircum_equal.liga
Encoding: 1 -1 1
GlifName: asciicircum_equal.liga
Width: 1126
Flags: W
HStem: 298 147<-136 852> 646 147<-46 852>
LayerCount: 2
Fore
SplineSet
852 298 m 1,0,-1
 -136 298 l 1,1,-1
 -136 445 l 1,2,-1
 852 445 l 1,3,-1
 852 298 l 1,0,-1
-46 793 m 1,4,-1
 852 793 l 1,5,-1
 852 646 l 1,6,-1
 -136 646 l 1,7,-1
 -434 1169 l 1,8,-1
 -706 668 l 1,9,-1
 -864 668 l 1,10,-1
 -498 1307 l 1,11,-1
 -356 1307 l 1,12,-1
 -46 793 l 1,4,-1
EndSplineSet
PickledDataWithLists: "(dp0
Vcom.schriftgestaltung.Glyphs.lastChange\\u000d
p1
V2019/11/18 23:05:38\\u000d
p2
s."
EndChar

StartChar: asciitilde_asciitilde.liga
Encoding: 2 -1 2
GlifName: asciitilde_asciitilde.liga
Width: 1126
Flags: W
HStem: 344 158<-306.612 -119.284 543.727 735.369> 596 158<-731.158 -544.73 116.474 305.743>
VStem: -918 158<401 569.126> 760 158<528.056 696>
LayerCount: 2
Fore
SplineSet
644 502 m 0,0,1
 681 502 681 502 705 515.5 c 128,-1,2
 729 529 729 529 740.5 557 c 128,-1,3
 752 585 752 585 756 616.5 c 128,-1,4
 760 648 760 648 760 696 c 1,5,-1
 918 696 l 1,6,7
 918 450 918 450 761 370 c 0,8,9
 710 344 710 344 638 344 c 0,10,11
 586 344 586 344 541 361 c 128,-1,12
 496 378 496 378 461.5 406 c 128,-1,13
 427 434 427 434 398.5 463.5 c 128,-1,14
 370 493 370 493 335 526 c 128,-1,15
 300 559 300 559 269 578 c 0,16,17
 239 596 239 596 212 596 c 0,18,19
 161 596 161 596 94 531 c 0,20,21
 83 521 83 521 48 486 c 128,-1,22
 13 451 13 451 -4.5 435 c 128,-1,23
 -22 419 -22 419 -54 396.5 c 128,-1,24
 -86 374 -86 374 -116 362 c 0,25,26
 -160 344 -160 344 -210 344 c 0,27,28
 -253 344 -253 344 -290.5 354 c 128,-1,29
 -328 364 -328 364 -363 388.5 c 128,-1,30
 -398 413 -398 413 -417.5 429 c 128,-1,31
 -437 445 -437 445 -474 482.5 c 128,-1,32
 -511 520 -511 520 -522 531 c 0,33,34
 -545 553 -545 553 -557.5 563 c 128,-1,35
 -570 573 -570 573 -594.5 584.5 c 128,-1,36
 -619 596 -619 596 -644 596 c 0,37,38
 -711 596 -711 596 -735.5 545.5 c 128,-1,39
 -760 495 -760 495 -760 401 c 1,40,-1
 -918 401 l 1,41,42
 -918 523 -918 523 -877.5 606.5 c 128,-1,43
 -837 690 -837 690 -762 728 c 0,44,45
 -711 754 -711 754 -638 754 c 0,46,47
 -586 754 -586 754 -541 737 c 128,-1,48
 -496 720 -496 720 -462 692 c 128,-1,49
 -428 664 -428 664 -399.5 634.5 c 128,-1,50
 -371 605 -371 605 -336 572 c 128,-1,51
 -301 539 -301 539 -270 520 c 0,52,53
 -240 502 -240 502 -213 502 c 0,54,55
 -191 502 -191 502 -167 514 c 128,-1,56
 -143 526 -143 526 -131.5 536 c 128,-1,57
 -120 546 -120 546 -97 567 c 0,58,59
 -84 579 -84 579 -56.5 607.5 c 128,-1,60
 -29 636 -29 636 -13 651.5 c 128,-1,61
 3 667 3 667 31.5 689.5 c 128,-1,62
 60 712 60 712 84 724 c 128,-1,63
 108 736 108 736 142 745 c 128,-1,64
 176 754 176 754 212 754 c 0,65,66
 264 754 264 754 309 737 c 128,-1,67
 354 720 354 720 388 692 c 128,-1,68
 422 664 422 664 450.5 634.5 c 128,-1,69
 479 605 479 605 514 572 c 128,-1,70
 549 539 549 539 580 520 c 0,71,72
 610 502 610 502 644 502 c 0,0,1
EndSplineSet
PickledDataWithLists: "(dp0
Vcom.schriftgestaltung.Glyphs.lastChange\\u000d
p1
V2019/11/18 23:05:38\\u000d
p2
s."
EndChar

StartChar: asciitilde_at.liga
Encoding: 3 -1 3
GlifName: asciitilde_at.liga
Width: 1126
Flags: W
HStem: 63 130<311.421 423.107 634.734 754.185> 344 158<-388.599 -239.725> 596 158<-732.308 -590.231> 795 129<387.799 535.782> 1303 122<329.607 653.748>
VStem: -919 160<401 571.939> 140 159<195.784 658.595> 830 141<314.851 1069.62>
LayerCount: 2
Fore
SplineSet
299 373 m 2,0,-1
 299 350 l 2,1,2
 299 313 299 313 300.5 291 c 128,-1,3
 302 269 302 269 307 243.5 c 128,-1,4
 312 218 312 218 324.5 205.5 c 128,-1,5
 337 193 337 193 357 193 c 0,6,7
 364 193 364 193 370 194 c 128,-1,8
 376 195 376 195 382 198 c 128,-1,9
 388 201 388 201 392 203 c 128,-1,10
 396 205 396 205 401 210.5 c 128,-1,11
 406 216 406 216 409 218.5 c 128,-1,12
 412 221 412 221 417 228 c 128,-1,13
 422 235 422 235 423.5 237.5 c 128,-1,14
 425 240 425 240 430 248 c 128,-1,15
 435 256 435 256 436 258 c 0,16,17
 448 277 448 277 471 326 c 1,18,-1
 537 764 l 1,19,20
 514 795 514 795 463 795 c 0,21,22
 408 795 408 795 367 718 c 0,23,24
 299 587 299 587 299 373 c 2,0,-1
628 297 m 0,25,26
 628 248 628 248 640.5 220.5 c 128,-1,27
 653 193 653 193 690 193 c 128,-1,28
 727 193 727 193 748.5 226.5 c 128,-1,29
 770 260 770 260 787 314 c 0,30,31
 830 451 830 451 830 692 c 0,32,33
 830 903 830 903 791.5 1049.5 c 128,-1,34
 753 1196 753 1196 653 1262 c 0,35,36
 592 1303 592 1303 502 1303 c 0,37,38
 344 1303 344 1303 217 1172 c 0,39,40
 215 1170 215 1170 205 1159.5 c 128,-1,41
 195 1149 195 1149 192.5 1146.5 c 128,-1,42
 190 1144 190 1144 180.5 1134.5 c 128,-1,43
 171 1125 171 1125 168 1121 c 128,-1,44
 165 1117 165 1117 157 1107.5 c 128,-1,45
 149 1098 149 1098 144.5 1092.5 c 128,-1,46
 140 1087 140 1087 133.5 1077.5 c 128,-1,47
 127 1068 127 1068 122 1060 c 128,-1,48
 117 1052 117 1052 111.5 1042 c 128,-1,49
 106 1032 106 1032 101 1022 c 0,50,51
 62 941 62 941 35.5 869 c 128,-1,52
 9 797 9 797 -22.5 687 c 128,-1,53
 -54 577 -54 577 -65 544 c 0,54,55
 -97 443 -97 443 -153.5 393.5 c 128,-1,56
 -210 344 -210 344 -314 344 c 0,57,58
 -397 344 -397 344 -466 409 c 0,59,60
 -519 458 -519 458 -568 521 c 0,61,62
 -572 526 -572 526 -582 541 c 128,-1,63
 -592 556 -592 556 -598 562.5 c 128,-1,64
 -604 569 -604 569 -614 578.5 c 128,-1,65
 -624 588 -624 588 -635.5 592 c 128,-1,66
 -647 596 -647 596 -660 596 c 0,67,68
 -716 596 -716 596 -737.5 544.5 c 128,-1,69
 -759 493 -759 493 -759 401 c 1,70,-1
 -919 401 l 1,71,72
 -919 505 -919 505 -894.5 582.5 c 128,-1,73
 -870 660 -870 660 -815 707 c 128,-1,74
 -760 754 -760 754 -679 754 c 0,75,76
 -645 754 -645 754 -613.5 745 c 128,-1,77
 -582 736 -582 736 -560.5 724 c 128,-1,78
 -539 712 -539 712 -514 689 c 128,-1,79
 -489 666 -489 666 -475.5 650.5 c 128,-1,80
 -462 635 -462 635 -439 607 c 128,-1,81
 -416 579 -416 579 -406 567 c 0,82,83
 -404 564 -404 564 -395 554 c 128,-1,84
 -386 544 -386 544 -383 540.5 c 128,-1,85
 -380 537 -380 537 -372 529 c 128,-1,86
 -364 521 -364 521 -358.5 517.5 c 128,-1,87
 -353 514 -353 514 -344.5 509.5 c 128,-1,88
 -336 505 -336 505 -327.5 503.5 c 128,-1,89
 -319 502 -319 502 -309 502 c 0,90,91
 -267 502 -267 502 -238 548 c 0,92,93
 -208 591 -208 591 -198 624 c 0,94,95
 -138.185930825 844.564380084 -138.185930825 844.564380084 -93.2495046487 954.763907941 c 0,96,97
 -58.2574337077 1040.57646636 -58.2574337077 1040.57646636 -18 1110 c 0,98,99
 41 1211 41 1211 118 1276 c 128,-1,100
 195 1341 195 1341 305 1386 c 0,101,102
 401 1425 401 1425 509 1425 c 0,103,104
 742 1425 742 1425 859 1236 c 0,105,106
 971 1057 971 1057 971 709 c 0,107,108
 971 381 971 381 888 214 c 0,109,110
 812 63 812 63 670 63 c 0,111,112
 596 63 596 63 556 101.5 c 128,-1,113
 516 140 516 140 516 211 c 1,114,115
 479 135 479 135 434 98 c 0,116,117
 392 63 392 63 328 63 c 0,118,119
 224 63 224 63 182 140 c 128,-1,120
 140 217 140 217 140 356 c 0,121,122
 140 500 140 500 173.5 623 c 128,-1,123
 207 746 207 746 271 826 c 0,124,125
 349 924 349 924 471 924 c 0,126,127
 547 924 547 924 590 897 c 1,128,-1
 719 928 l 1,129,-1
 639 408 l 2,130,131
 628 335 628 335 628 297 c 0,25,26
EndSplineSet
PickledDataWithLists: "(dp0
Vcom.schriftgestaltung.Glyphs.lastChange\\u000d
p1
V2019/11/18 23:07:02\\u000d
p2
s."
EndChar

StartChar: asciitilde_equal.liga
Encoding: 4 -1 4
GlifName: asciitilde_equal.liga
Width: 1126
VWidth: 0
Flags: W
HStem: 298 147<-746 747> 584 158<151.244 511.834> 836 158<-510.084 -152.147>
VStem: -746 160<641 754.155> 587 160<822.286 936>
LayerCount: 2
Fore
SplineSet
747 936 m 1,0,1
 747 808 747 808 683.5 727.5 c 128,-1,2
 620 647 620 647 509 610 c 0,3,4
 431 584 431 584 322 584 c 0,5,6
 170 584 170 584 52 651 c 0,7,8
 18 670 18 670 -36.5 713 c 128,-1,9
 -91 756 -91 756 -115 771 c 0,10,11
 -217 836 -217 836 -332 836 c 0,12,13
 -382 836 -382 836 -438 823.5 c 128,-1,14
 -494 811 -494 811 -513 789 c 0,15,16
 -586 708 -586 708 -586 641 c 1,17,-1
 -746 641 l 1,18,19
 -746 768 -746 768 -682 850 c 128,-1,20
 -618 932 -618 932 -510 968 c 0,21,22
 -432 994 -432 994 -323 994 c 0,23,24
 -171 994 -171 994 -52 927 c 0,25,26
 -18 908 -18 908 36 865 c 128,-1,27
 90 822 90 822 114 807 c 0,28,29
 216 742 216 742 331 742 c 0,30,31
 385 742 385 742 441 754.5 c 128,-1,32
 497 767 497 767 516 788 c 0,33,34
 537 812 537 812 548 826.5 c 128,-1,35
 559 841 559 841 573 873 c 128,-1,36
 587 905 587 905 587 936 c 1,37,-1
 747 936 l 1,0,1
747 298 m 1,38,-1
 -746 298 l 1,39,-1
 -746 445 l 1,40,-1
 747 445 l 1,41,-1
 747 298 l 1,38,-1
EndSplineSet
Validated: 1
PickledDataWithLists: "(dp0
Vcom.schriftgestaltung.Glyphs.lastChange\\u000d
p1
V2019/11/18 23:05:38\\u000d
p2
s."
EndChar

StartChar: asciitilde_greater.liga
Encoding: 5 -1 5
GlifName: asciitilde_greater.liga
Width: 1126
Flags: W
HStem: 344 158<-303.307 -94.6716> 466 163<10.5282 227.855 235.078 510> 482 160<39.2724 506.934> 596 158<-729.535 -540.693>
VStem: -919 160<401 564.365>
LayerCount: 2
Fore
SplineSet
-919 401 m 5,0,1
 -919.130250444 407.545084788 -919.130250444 407.545084788 -919.130250444 414.010707674 c 0,2,3
 -919.130250444 513.828275641 -919.130250444 513.828275641 -889.679840457 588.799910513 c 128,-1,4
 -860.229430471 663.771545386 -860.229430471 663.771545386 -795.586921523 708.885772693 c 128,-1,5
 -730.944412574 754 -730.944412574 754 -637 754 c 0,6,7
 -542 754 -542 754 -457 689 c 0,8,9
 -435 673 -435 673 -414 653.5 c 128,-1,10
 -393 634 -393 634 -364 605.5 c 128,-1,11
 -335 577 -335 577 -325 567 c 0,12,13
 -304 547 -304 547 -290 535.5 c 128,-1,14
 -276 524 -276 524 -251.5 513 c 128,-1,15
 -227 502 -227 502 -201 502 c 0,16,17
 -177 502 -177 502 -72.5 557.5 c 128,-1,18
 32 613 32 613 49 618 c 0,19,20
 135 642 135 642 232 642 c 0,21,22
 237 642 237 642 510 629 c 1,23,-1
 68 995 l 1,24,-1
 176 1106 l 1,25,-1
 848 545 l 1,26,-1
 176 -16 l 1,27,-1
 68 94 l 1,28,-1
 519 466 l 1,29,30
 479 468 479 468 375.5 475 c 128,-1,31
 272 482 272 482 230 482 c 0,32,33
 161 482 161 482 112 470 c 0,34,35
 93 466 93 466 54.5 446 c 128,-1,36
 16 426 16 426 -27 401 c 128,-1,37
 -70 376 -70 376 -83 370 c 0,38,39
 -135 344 -135 344 -207 344 c 0,40,41
 -302 344 -302 344 -387 409 c 0,42,43
 -409 425 -409 425 -430 444.5 c 128,-1,44
 -451 464 -451 464 -480 492.5 c 128,-1,45
 -509 521 -509 521 -519 531 c 0,46,47
 -540 551 -540 551 -554 562.5 c 128,-1,48
 -568 574 -568 574 -592.5 585 c 128,-1,49
 -617 596 -617 596 -643 596 c 0,50,51
 -709 596 -709 596 -734 544.5 c 128,-1,52
 -759 493 -759 493 -759 401 c 1,53,-1
 -919 401 l 5,0,1
EndSplineSet
PickledDataWithLists: "(dp0
Vcom.schriftgestaltung.Glyphs.lastChange\\u000d
p1
V2019/11/18 23:07:02\\u000d
p2
s."
EndChar

StartChar: asciitilde_hyphen.liga
Encoding: 6 -1 6
GlifName: asciitilde_hyphen.liga
Width: 1126
Flags: W
HStem: 361 164<-308.967 -79.1793> 463 164<-23.7641 721> 596 158<-729.535 -543.325>
VStem: -919 160<401 564.365>
LayerCount: 2
Fore
SplineSet
-919 401 m 5,0,1
 -919.130250444 407.545084788 -919.130250444 407.545084788 -919.130250444 414.010707674 c 0,2,3
 -919.130250444 513.828275641 -919.130250444 513.828275641 -889.679840457 588.799910513 c 128,-1,4
 -860.229430471 663.771545386 -860.229430471 663.771545386 -795.586921523 708.885772693 c 128,-1,5
 -730.944412574 754 -730.944412574 754 -637 754 c 0,6,7
 -542 754 -542 754 -457 689 c 0,8,9
 -433 671 -433 671 -391 635 c 128,-1,10
 -349 599 -349 599 -326 582 c 0,11,12
 -323 580 -323 580 -308.5 569 c 128,-1,13
 -294 558 -294 558 -289.5 555 c 128,-1,14
 -285 552 -285 552 -271.5 544 c 128,-1,15
 -258 536 -258 536 -249.5 533.5 c 128,-1,16
 -241 531 -241 531 -227.5 528 c 128,-1,17
 -214 525 -214 525 -201 525 c 0,18,19
 -189 525 -189 525 -178.5 526.5 c 128,-1,20
 -168 528 -168 528 -155.5 532.5 c 128,-1,21
 -143 537 -143 537 -139 539 c 128,-1,22
 -135 541 -135 541 -118.5 549 c 128,-1,23
 -102 557 -102 557 -101 558 c 0,24,25
 -21 598 -21 598 20 608 c 0,26,27
 81 625 81 625 203 627 c 2,28,-1
 721 627 l 1,29,-1
 721 463 l 1,30,-1
 203 463 l 2,31,32
 71 463 71 463 21 441 c 0,33,34
 11 437 11 437 -40.5 410 c 128,-1,35
 -92 383 -92 383 -128.5 372 c 128,-1,36
 -165 361 -165 361 -207 361 c 0,37,38
 -260 361 -260 361 -301 378.5 c 128,-1,39
 -342 396 -342 396 -388 428 c 0,40,41
 -446 468 -446 468 -519 531 c 0,42,43
 -522 534 -522 534 -531.5 542 c 128,-1,44
 -541 550 -541 550 -545 553.5 c 128,-1,45
 -549 557 -549 557 -558.5 564 c 128,-1,46
 -568 571 -568 571 -573.5 574.5 c 128,-1,47
 -579 578 -579 578 -588.5 583 c 128,-1,48
 -598 588 -598 588 -605.5 590 c 128,-1,49
 -613 592 -613 592 -623 594 c 128,-1,50
 -633 596 -633 596 -643 596 c 0,51,52
 -709 596 -709 596 -734 544.5 c 128,-1,53
 -759 493 -759 493 -759 401 c 1,54,-1
 -919 401 l 5,0,1
EndSplineSet
PickledDataWithLists: "(dp0
Vcom.schriftgestaltung.Glyphs.lastChange\\u000d
p1
V2019/11/18 23:05:38\\u000d
p2
s."
EndChar

StartChar: asterisk_asterisk.liga
Encoding: 7 -1 7
GlifName: asterisk_asterisk.liga
Width: 1126
Flags: W
LayerCount: 2
Fore
SplineSet
861 840 m 1,0,-1
 793 721 l 1,1,-1
 512 907 l 1,2,-1
 535 565 l 1,3,-1
 392 565 l 1,4,-1
 414 907 l 1,5,-1
 127 721 l 1,6,-1
 64 838 l 1,7,-1
 371 989 l 1,8,-1
 64 1143 l 1,9,-1
 133 1260 l 1,10,-1
 416 1071 l 1,11,-1
 392 1413 l 1,12,-1
 535 1413 l 1,13,-1
 510 1071 l 1,14,-1
 793 1262 l 1,15,-1
 863 1139 l 1,16,-1
 555 987 l 1,17,-1
 861 840 l 1,0,-1
-65 840 m 1,18,-1
 -133 721 l 1,19,-1
 -414 907 l 1,20,-1
 -391 565 l 1,21,-1
 -534 565 l 1,22,-1
 -512 907 l 1,23,-1
 -799 721 l 1,24,-1
 -862 838 l 1,25,-1
 -555 989 l 1,26,-1
 -862 1143 l 1,27,-1
 -793 1260 l 1,28,-1
 -510 1071 l 1,29,-1
 -534 1413 l 1,30,-1
 -391 1413 l 1,31,-1
 -416 1071 l 1,32,-1
 -133 1262 l 1,33,-1
 -63 1139 l 1,34,-1
 -371 987 l 1,35,-1
 -65 840 l 1,18,-1
EndSplineSet
Validated: 1
PickledDataWithLists: "(dp0
Vcom.schriftgestaltung.Glyphs.lastChange\\u000d
p1
V2019/11/18 23:05:38\\u000d
p2
s."
EndChar

StartChar: asterisk_asterisk_asterisk.liga
Encoding: 8 -1 8
GlifName: asterisk_asterisk_asterisk.liga
Width: 1126
Flags: W
LayerCount: 2
Fore
SplineSet
-958 380 m 1,0,-1
 -1026 261 l 1,1,-1
 -1307 447 l 1,2,-1
 -1284 105 l 1,3,-1
 -1427 105 l 1,4,-1
 -1405 447 l 1,5,-1
 -1692 261 l 1,6,-1
 -1755 378 l 1,7,-1
 -1448 529 l 1,8,-1
 -1755 683 l 1,9,-1
 -1686 800 l 1,10,-1
 -1403 611 l 1,11,-1
 -1427 953 l 1,12,-1
 -1284 953 l 1,13,-1
 -1309 611 l 1,14,-1
 -1026 802 l 1,15,-1
 -956 679 l 1,16,-1
 -1264 527 l 1,17,-1
 -958 380 l 1,0,-1
628 380 m 1,18,-1
 560 261 l 1,19,-1
 279 447 l 1,20,-1
 302 105 l 1,21,-1
 159 105 l 1,22,-1
 181 447 l 1,23,-1
 -106 261 l 1,24,-1
 -169 378 l 1,25,-1
 138 529 l 1,26,-1
 -169 683 l 1,27,-1
 -100 800 l 1,28,-1
 183 611 l 1,29,-1
 159 953 l 1,30,-1
 302 953 l 1,31,-1
 277 611 l 1,32,-1
 560 802 l 1,33,-1
 630 679 l 1,34,-1
 322 527 l 1,35,-1
 628 380 l 1,18,-1
-165 840 m 1,36,-1
 -233 721 l 1,37,-1
 -514 907 l 1,38,-1
 -491 565 l 1,39,-1
 -634 565 l 1,40,-1
 -612 907 l 1,41,-1
 -899 721 l 1,42,-1
 -962 838 l 1,43,-1
 -655 989 l 1,44,-1
 -962 1143 l 1,45,-1
 -893 1260 l 1,46,-1
 -610 1071 l 1,47,-1
 -634 1413 l 1,48,-1
 -491 1413 l 1,49,-1
 -516 1071 l 1,50,-1
 -233 1262 l 1,51,-1
 -163 1139 l 1,52,-1
 -471 987 l 1,53,-1
 -165 840 l 1,36,-1
EndSplineSet
Validated: 1
PickledDataWithLists: "(dp0
Vcom.schriftgestaltung.Glyphs.lastChange\\u000d
p1
V2019/11/18 23:05:38\\u000d
p2
s."
EndChar

StartChar: asterisk_greater.liga
Encoding: 9 -1 9
GlifName: asterisk_greater.liga
Width: 1126
Flags: W
LayerCount: 2
Fore
SplineSet
-24 394 m 1,0,-1
 -92 275 l 1,1,-1
 -373 461 l 1,2,-1
 -350 119 l 1,3,-1
 -493 119 l 1,4,-1
 -471 461 l 1,5,-1
 -758 275 l 1,6,-1
 -821 392 l 1,7,-1
 -514 543 l 1,8,-1
 -821 697 l 1,9,-1
 -752 814 l 1,10,-1
 -469 625 l 1,11,-1
 -493 967 l 1,12,-1
 -350 967 l 1,13,-1
 -375 625 l 1,14,-1
 -92 816 l 1,15,-1
 -22 693 l 1,16,-1
 -330 541 l 1,17,-1
 -24 394 l 1,0,-1
-133 985 m 1,18,-1
 -45 1106 l 1,19,-1
 977 545 l 1,20,-1
 -45 -16 l 1,21,-1
 -133 104 l 1,22,-1
 662 543 l 1,23,-1
 -133 985 l 1,18,-1
EndSplineSet
PickledDataWithLists: "(dp0
Vcom.schriftgestaltung.Glyphs.lastChange\\u000d
p1
V2019/11/18 23:05:38\\u000d
p2
s."
EndChar

StartChar: asterisk_slash.liga
Encoding: 10 -1 10
GlifName: asterisk_slash.liga
Width: 1126
Flags: W
LayerCount: 2
Fore
SplineSet
826 1413 m 1,0,-1
 140 -215 l 1,1,-1
 -26 -215 l 1,2,-1
 660 1413 l 1,3,-1
 826 1413 l 1,0,-1
-24 840 m 1,4,-1
 -92 721 l 1,5,-1
 -373 907 l 1,6,-1
 -350 565 l 1,7,-1
 -493 565 l 1,8,-1
 -471 907 l 1,9,-1
 -758 721 l 1,10,-1
 -821 838 l 1,11,-1
 -514 989 l 1,12,-1
 -821 1143 l 1,13,-1
 -752 1260 l 1,14,-1
 -469 1071 l 1,15,-1
 -493 1413 l 1,16,-1
 -350 1413 l 1,17,-1
 -375 1071 l 1,18,-1
 -92 1262 l 1,19,-1
 -22 1139 l 1,20,-1
 -330 987 l 1,21,-1
 -24 840 l 1,4,-1
EndSplineSet
PickledDataWithLists: "(dp0
Vcom.schriftgestaltung.Glyphs.lastChange\\u000d
p1
V2019/11/18 23:05:38\\u000d
p2
s."
EndChar

StartChar: bar_bar.liga
Encoding: 11 -1 11
GlifName: bar_bar.liga
Width: 1126
Flags: W
VStem: -504 164<-410 1638> 340 164<-410 1638>
LayerCount: 2
Fore
SplineSet
504 -410 m 1,0,-1
 340 -410 l 1,1,-1
 340 1638 l 1,2,-1
 504 1638 l 1,3,-1
 504 -410 l 1,0,-1
-340 -410 m 1,4,-1
 -504 -410 l 1,5,-1
 -504 1638 l 1,6,-1
 -340 1638 l 1,7,-1
 -340 -410 l 1,4,-1
EndSplineSet
PickledDataWithLists: "(dp0
Vcom.schriftgestaltung.Glyphs.lastChange\\u000d
p1
V2019/11/18 23:05:38\\u000d
p2
s."
EndChar

StartChar: bar_bar_bar_greater.liga
Encoding: 12 -1 12
GlifName: bar_bar_bar_greater.liga
Width: 1126
Flags: W
VStem: -2474 164<-272 1364> -1630 164<-272 1364> -786 164<-14 1102>
CounterMasks: 1 e0
LayerCount: 2
Fore
SplineSet
-1466 -272 m 5,0,-1
 -1630 -272 l 1,1,-1
 -1630 1364 l 1,2,-1
 -1466 1364 l 1,3,-1
 -1466 -272 l 5,0,-1
-2310 -272 m 5,4,-1
 -2474 -272 l 1,5,-1
 -2474 1364 l 1,6,-1
 -2310 1364 l 1,7,-1
 -2310 -272 l 5,4,-1
-786 -272 m 5,8,-1
 -786 1364 l 1,9,-1
 703 545 l 1,10,-1
 -786 -272 l 5,8,-1
-622 -14 m 5,11,-1
 388 543 l 1,12,-1
 -622 1102 l 1,13,-1
 -622 -14 l 5,11,-1
EndSplineSet
PickledDataWithLists: "(dp0
Vcom.schriftgestaltung.Glyphs.lastChange\\u000d
p1
V2019/11/18 23:05:38\\u000d
p2
s."
EndChar

StartChar: bar_bar_equal.liga
Encoding: 13 -1 13
GlifName: bar_bar_equal.liga
Width: 1126
Flags: W
HStem: 298 147<-622 711> 646 147<-622 711>
VStem: -1489 164<-410 1638> -786 164<-410 298 445 646 793 1638>
LayerCount: 2
Fore
SplineSet
-1325 -410 m 1,0,-1
 -1489 -410 l 1,1,-1
 -1489 1638 l 1,2,-1
 -1325 1638 l 1,3,-1
 -1325 -410 l 1,0,-1
-622 -410 m 1,4,-1
 -786 -410 l 1,5,-1
 -786 1638 l 1,6,-1
 -622 1638 l 1,7,-1
 -622 793 l 1,8,-1
 711 793 l 1,9,-1
 711 646 l 1,10,-1
 -622 646 l 1,11,-1
 -622 445 l 1,12,-1
 711 445 l 1,13,-1
 711 298 l 1,14,-1
 -622 298 l 1,15,-1
 -622 -410 l 1,4,-1
EndSplineSet
PickledDataWithLists: "(dp0
Vcom.schriftgestaltung.Glyphs.lastChange\\u000d
p1
V2019/11/18 23:05:38\\u000d
p2
s."
EndChar

StartChar: bar_bar_greater.liga
Encoding: 14 -1 14
GlifName: bar_bar_greater.liga
Width: 1126
Flags: W
VStem: -1489 164<-272 1364> -645 164<-14 1102>
LayerCount: 2
Fore
SplineSet
-645 -272 m 5,0,-1
 -645 1364 l 1,1,-1
 844 545 l 1,2,-1
 -645 -272 l 5,0,-1
-481 -14 m 5,3,-1
 529 543 l 1,4,-1
 -481 1102 l 1,5,-1
 -481 -14 l 5,3,-1
-1325 -272 m 5,6,-1
 -1489 -272 l 1,7,-1
 -1489 1364 l 1,8,-1
 -1325 1364 l 1,9,-1
 -1325 -272 l 5,6,-1
EndSplineSet
PickledDataWithLists: "(dp0
Vcom.schriftgestaltung.Glyphs.lastChange\\u000d
p1
V2019/11/18 23:05:38\\u000d
p2
s."
EndChar

StartChar: bar_braceright.liga
Encoding: 15 -1 15
GlifName: bar_braceright.liga
Width: 1126
Flags: W
HStem: -410 140<-340 300.674> 506 139<607.439 824> 1308 140<-340 300.674>
VStem: -504 164<-270 1308> 379 164<-198.791 454.053 709.208 1227.89>
LayerCount: 2
Fore
SplineSet
543 -45 m 2,0,1
 543 -231 543 -231 448 -320.5 c 128,-1,2
 353 -410 353 -410 162 -410 c 2,3,-1
 -504 -410 l 1,4,-1
 -504 1448 l 1,5,-1
 162 1448 l 2,6,7
 353 1448 353 1448 448 1358.5 c 128,-1,8
 543 1269 543 1269 543 1083 c 2,9,-1
 543 852 l 2,10,11
 543 740 543 740 601.5 692.5 c 128,-1,12
 660 645 660 645 781 645 c 2,13,-1
 824 645 l 1,14,-1
 824 506 l 1,15,-1
 781 506 l 2,16,17
 683 506 683 506 626.5 482 c 128,-1,18
 570 458 570 458 553 395 c 0,19,20
 543 359 543 359 543 305 c 2,21,-1
 543 -45 l 2,0,1
-340 1308 m 1,22,-1
 -340 -270 l 1,23,-1
 148 -270 l 2,24,25
 379 -270 379 -270 379 -45 c 2,26,-1
 379 301 l 2,27,28
 379 545 379 545 590 575 c 1,29,30
 379 597 379 597 379 850 c 2,31,-1
 379 1079 l 2,32,33
 379 1308 379 1308 148 1308 c 2,34,-1
 -340 1308 l 1,22,-1
EndSplineSet
PickledDataWithLists: "(dp0
Vcom.schriftgestaltung.Glyphs.lastChange\\u000d
p1
V2019/11/18 23:07:02\\u000d
p2
s."
EndChar

StartChar: bar_bracketright.liga
Encoding: 16 -1 16
GlifName: bar_bracketright.liga
Width: 1126
Flags: W
HStem: -410 140<-340 472> 1308 140<-340 472>
VStem: -504 164<-270 1308> 472 168<-270 1308>
LayerCount: 2
Fore
SplineSet
-504 1448 m 1,0,-1
 640 1448 l 1,1,-1
 640 -410 l 1,2,-1
 -504 -410 l 1,3,-1
 -504 1448 l 1,0,-1
-340 1308 m 1,4,-1
 -340 -270 l 1,5,-1
 472 -270 l 1,6,-1
 472 1308 l 1,7,-1
 -340 1308 l 1,4,-1
EndSplineSet
PickledDataWithLists: "(dp0
Vcom.schriftgestaltung.Glyphs.lastChange\\u000d
p1
V2019/11/18 23:05:38\\u000d
p2
s."
EndChar

StartChar: bar_equal.liga
Encoding: 17 -1 17
GlifName: bar_equal.liga
Width: 1126
Flags: W
HStem: 298 147<-340 852> 646 147<-340 852>
VStem: -504 164<-410 298 445 646 793 1638>
LayerCount: 2
Fore
SplineSet
-340 -410 m 1,0,-1
 -504 -410 l 1,1,-1
 -504 1638 l 1,2,-1
 -340 1638 l 1,3,-1
 -340 793 l 1,4,-1
 852 793 l 1,5,-1
 852 646 l 1,6,-1
 -340 646 l 1,7,-1
 -340 445 l 1,8,-1
 852 445 l 1,9,-1
 852 298 l 1,10,-1
 -340 298 l 1,11,-1
 -340 -410 l 1,0,-1
EndSplineSet
PickledDataWithLists: "(dp0
Vcom.schriftgestaltung.Glyphs.lastChange\\u000d
p1
V2019/11/18 23:05:38\\u000d
p2
s."
EndChar

StartChar: bar_greater.liga
Encoding: 18 -1 18
GlifName: bar_greater.liga
Width: 1126
Flags: W
VStem: -504 164<-14 1102>
LayerCount: 2
Fore
SplineSet
-504 -272 m 5,0,-1
 -504 1364 l 1,1,-1
 985 545 l 1,2,-1
 -504 -272 l 5,0,-1
-340 -14 m 5,3,-1
 670 543 l 1,4,-1
 -340 1102 l 1,5,-1
 -340 -14 l 5,3,-1
EndSplineSet
PickledDataWithLists: "(dp0
Vcom.schriftgestaltung.Glyphs.lastChange\\u000d
p1
V2019/11/18 23:05:38\\u000d
p2
s."
EndChar

StartChar: bar_hyphen.liga
Encoding: 19 -1 19
GlifName: bar_hyphen.liga
Width: 1126
Flags: W
HStem: 463 164<-340 721>
VStem: -504 164<-410 463 627 1638>
LayerCount: 2
Fore
SplineSet
-340 -410 m 1,0,-1
 -504 -410 l 1,1,-1
 -504 1638 l 1,2,-1
 -340 1638 l 1,3,-1
 -340 627 l 1,4,-1
 721 627 l 1,5,-1
 721 463 l 1,6,-1
 -340 463 l 1,7,-1
 -340 -410 l 1,0,-1
EndSplineSet
PickledDataWithLists: "(dp0
Vcom.schriftgestaltung.Glyphs.lastChange\\u000d
p1
V2019/11/18 23:05:38\\u000d
p2
s."
EndChar

StartChar: braceleft_bar.liga
Encoding: 20 -1 20
GlifName: braceleft_bar.liga
Width: 1126
Flags: W
HStem: -410 140<-300.674 340> 506 139<-823 -607.257> 1308 140<-300.287 340>
VStem: -543 166<-190.293 443.16 696.895 1236.38> 340 164<-270 1308>
LayerCount: 2
Fore
SplineSet
-543 1083 m 2,0,1
 -543 1268 -543 1268 -448 1358 c 128,-1,2
 -353 1448 -353 1448 -162 1448 c 2,3,-1
 504 1448 l 1,4,-1
 504 -410 l 1,5,-1
 -162 -410 l 2,6,7
 -353 -410 -353 -410 -448 -321 c 128,-1,8
 -543 -232 -543 -232 -543 -45 c 2,9,-1
 -543 299 l 2,10,11
 -543 411 -543 411 -601 458.5 c 128,-1,12
 -659 506 -659 506 -780 506 c 2,13,-1
 -823 506 l 1,14,-1
 -823 645 l 1,15,-1
 -780 645 l 2,16,17
 -682 645 -682 645 -626.5 668.5 c 128,-1,18
 -571 692 -571 692 -553 756 c 0,19,20
 -543 792 -543 792 -543 846 c 2,21,-1
 -543 1083 l 2,0,1
340 1308 m 1,22,-1
 -147 1308 l 2,23,24
 -379 1308 -379 1308 -379 1083 c 2,25,-1
 -379 850 l 2,26,27
 -379 606 -379 606 -590 575 c 1,28,29
 -485 575 -485 575 -431 502.5 c 128,-1,30
 -377 430 -377 430 -377 301 c 2,31,-1
 -377 -41 l 2,32,33
 -377 -270 -377 -270 -147 -270 c 2,34,-1
 340 -270 l 1,35,-1
 340 1308 l 1,22,-1
EndSplineSet
PickledDataWithLists: "(dp0
Vcom.schriftgestaltung.Glyphs.lastChange\\u000d
p1
V2019/11/18 23:07:02\\u000d
p2
s."
EndChar

StartChar: braceright_numbersign.liga
Encoding: 21 -1 21
GlifName: braceright_numbersign.liga
Width: 1126
Flags: W
HStem: -410 140<-756 -543.326> 0 21G<78 228.016 481 631.016> 367 130<-235.534 115 276 518 679 889> 847 130<-301 164 324 567 727 942> 1308 140<-756 -543.326>
VStem: -465 164<-198.791 310.053 565.208 847 977 1228.29>
LayerCount: 2
Fore
SplineSet
-301 -45 m 2,0,1
 -301 -231 -301 -231 -396 -320.5 c 128,-1,2
 -491 -410 -491 -410 -682 -410 c 2,3,-1
 -756 -410 l 1,4,-1
 -756 -270 l 1,5,-1
 -696 -270 l 2,6,7
 -465 -270 -465 -270 -465 -45 c 2,8,-1
 -465 157 l 2,9,10
 -465 401 -465 401 -254 431 c 1,11,12
 -465 453 -465 453 -465 706 c 2,13,-1
 -465 1079 l 2,14,15
 -465 1308 -465 1308 -696 1308 c 2,16,-1
 -756 1308 l 1,17,-1
 -756 1448 l 1,18,-1
 -682 1448 l 2,19,20
 -491 1448 -491 1448 -396 1359 c 128,-1,21
 -301 1270 -301 1270 -301 1083 c 2,22,-1
 -301 977 l 1,23,-1
 177 977 l 1,24,-1
 211 1308 l 1,25,-1
 357 1308 l 1,26,-1
 324 977 l 1,27,-1
 580 977 l 1,28,-1
 614 1308 l 1,29,-1
 762 1308 l 1,30,-1
 727 977 l 1,31,-1
 942 977 l 1,32,-1
 942 847 l 1,33,-1
 714 847 l 1,34,-1
 679 497 l 1,35,-1
 889 497 l 1,36,-1
 889 367 l 1,37,-1
 666 367 l 1,38,-1
 629 0 l 1,39,-1
 481 0 l 1,40,-1
 518 367 l 1,41,-1
 263 367 l 1,42,-1
 226 0 l 1,43,-1
 78 0 l 1,44,-1
 115 367 l 1,45,-1
 -63 367 l 2,46,47
 -160 367 -160 367 -216.5 342 c 128,-1,48
 -273 317 -273 317 -291 251 c 0,49,50
 -301 215 -301 215 -301 161 c 2,51,-1
 -301 -45 l 2,0,1
532 497 m 1,52,-1
 567 847 l 1,53,-1
 311 847 l 1,54,-1
 276 497 l 1,55,-1
 532 497 l 1,52,-1
-301 847 m 1,56,-1
 -301 708 l 2,57,58
 -301 596 -301 596 -241.5 546.5 c 128,-1,59
 -182 497 -182 497 -63 497 c 2,60,-1
 128 497 l 1,61,-1
 164 847 l 1,62,-1
 -301 847 l 1,56,-1
EndSplineSet
PickledDataWithLists: "(dp0
Vcom.schriftgestaltung.Glyphs.lastChange\\u000d
p1
V2019/11/18 23:07:02\\u000d
p2
s."
EndChar

StartChar: bracketleft_bar.liga
Encoding: 22 -1 22
GlifName: bracketleft_bar.liga
Width: 1126
Flags: W
HStem: -410 140<-474 340> 1308 140<-474 340>
VStem: -640 166<-270 1308> 340 164<-270 1308>
LayerCount: 2
Fore
SplineSet
504 1448 m 1,0,-1
 504 -410 l 1,1,-1
 -640 -410 l 1,2,-1
 -640 1448 l 1,3,-1
 504 1448 l 1,0,-1
340 1308 m 1,4,-1
 -474 1308 l 1,5,-1
 -474 -270 l 1,6,-1
 340 -270 l 1,7,-1
 340 1308 l 1,4,-1
EndSplineSet
PickledDataWithLists: "(dp0
Vcom.schriftgestaltung.Glyphs.lastChange\\u000d
p1
V2019/11/18 23:05:38\\u000d
p2
s."
EndChar

StartChar: bracketright_numbersign.liga
Encoding: 23 -1 23
GlifName: bracketright_numbersign.liga
Width: 1126
Flags: W
HStem: -410 140<-697 -372> 0 21G<78 228.016 481 631.016> 367 130<-204 115 276 518 679 889> 847 130<-204 164 324 567 727 942> 1308 140<-697 -372>
VStem: -372 168<-270 367 497 847 977 1308>
LayerCount: 2
Fore
SplineSet
-204 -410 m 1,0,-1
 -697 -410 l 1,1,-1
 -697 -270 l 1,2,-1
 -372 -270 l 1,3,-1
 -372 1308 l 1,4,-1
 -697 1308 l 1,5,-1
 -697 1448 l 1,6,-1
 -204 1448 l 1,7,-1
 -204 977 l 1,8,-1
 177 977 l 1,9,-1
 211 1308 l 1,10,-1
 357 1308 l 1,11,-1
 324 977 l 1,12,-1
 580 977 l 1,13,-1
 614 1308 l 1,14,-1
 762 1308 l 1,15,-1
 727 977 l 1,16,-1
 942 977 l 1,17,-1
 942 847 l 1,18,-1
 714 847 l 1,19,-1
 679 497 l 1,20,-1
 889 497 l 1,21,-1
 889 367 l 1,22,-1
 666 367 l 1,23,-1
 629 0 l 1,24,-1
 481 0 l 1,25,-1
 518 367 l 1,26,-1
 263 367 l 1,27,-1
 226 0 l 1,28,-1
 78 0 l 1,29,-1
 115 367 l 1,30,-1
 -204 367 l 1,31,-1
 -204 -410 l 1,0,-1
532 497 m 1,32,-1
 567 847 l 1,33,-1
 311 847 l 1,34,-1
 276 497 l 1,35,-1
 532 497 l 1,32,-1
-204 847 m 1,36,-1
 -204 497 l 1,37,-1
 128 497 l 1,38,-1
 164 847 l 1,39,-1
 -204 847 l 1,36,-1
EndSplineSet
PickledDataWithLists: "(dp0
Vcom.schriftgestaltung.Glyphs.lastChange\\u000d
p1
V2019/11/18 23:05:38\\u000d
p2
s."
EndChar

StartChar: colon_colon.liga
Encoding: 24 -1 24
GlifName: colon_colon.liga
Width: 1126
Flags: W
HStem: -18 307<-527.686 -314.997 316.314 529.003> 715 307<-528.913 -314.997 315.087 529.003>
VStem: -575 307<25.875 241.904 758.875 975.165> 269 307<25.875 241.904 758.875 975.165>
LayerCount: 2
Fore
SplineSet
422 1022 m 0,0,1
 472 1022 472 1022 509 995 c 128,-1,2
 546 968 546 968 564 927 c 0,3,4
 576 898 576 898 576 868 c 0,5,6
 576 803 576 803 531.5 759 c 128,-1,7
 487 715 487 715 422 715 c 0,8,9
 356 715 356 715 312.5 759 c 128,-1,10
 269 803 269 803 269 868 c 0,11,12
 269 918 269 918 295 954.5 c 128,-1,13
 321 991 321 991 362 1010 c 0,14,15
 389 1022 389 1022 422 1022 c 0,0,1
422 289 m 0,16,17
 472 289 472 289 509 262 c 128,-1,18
 546 235 546 235 564 194 c 0,19,20
 576 166 576 166 576 135 c 0,21,22
 576 70 576 70 531.5 26 c 128,-1,23
 487 -18 487 -18 422 -18 c 0,24,25
 356 -18 356 -18 312.5 26 c 128,-1,26
 269 70 269 70 269 135 c 0,27,28
 269 185 269 185 295 221 c 128,-1,29
 321 257 321 257 362 276 c 0,30,31
 391 289 391 289 422 289 c 0,16,17
-422 1022 m 0,32,33
 -372 1022 -372 1022 -335 995 c 128,-1,34
 -298 968 -298 968 -280 927 c 0,35,36
 -268 898 -268 898 -268 868 c 0,37,38
 -268 803 -268 803 -312.5 759 c 128,-1,39
 -357 715 -357 715 -422 715 c 0,40,41
 -488 715 -488 715 -531.5 759 c 128,-1,42
 -575 803 -575 803 -575 868 c 0,43,44
 -575 918 -575 918 -549 954.5 c 128,-1,45
 -523 991 -523 991 -482 1010 c 0,46,47
 -455 1022 -455 1022 -422 1022 c 0,32,33
-422 289 m 0,48,49
 -372 289 -372 289 -335 262 c 128,-1,50
 -298 235 -298 235 -280 194 c 0,51,52
 -268 166 -268 166 -268 135 c 0,53,54
 -268 70 -268 70 -312.5 26 c 128,-1,55
 -357 -18 -357 -18 -422 -18 c 0,56,57
 -488 -18 -488 -18 -531.5 26 c 128,-1,58
 -575 70 -575 70 -575 135 c 0,59,60
 -575 185 -575 185 -549 221 c 128,-1,61
 -523 257 -523 257 -482 276 c 0,62,63
 -453 289 -453 289 -422 289 c 0,48,49
EndSplineSet
PickledDataWithLists: "(dp0
Vcom.schriftgestaltung.Glyphs.lastChange\\u000d
p1
V2019/11/18 23:05:38\\u000d
p2
s."
EndChar

StartChar: colon_colon_colon.liga
Encoding: 25 -1 25
GlifName: colon_colon_colon.liga
Width: 1126
Flags: W
HStem: -18 307<-1511.26 -1300 -667.263 -455.997 176.737 388.003> 715 307<-1513.89 -1300 -669.892 -455.997 174.108 388.003>
VStem: -1560 307<25.875 241.904 758.875 973.684> -716 307<25.875 241.904 758.875 973.684> 128 307<25.875 241.904 758.875 973.684>
CounterMasks: 1 38
LayerCount: 2
Fore
SplineSet
281 1022 m 0,0,1
 331 1022 331 1022 367.5 995 c 128,-1,2
 404 968 404 968 422 927 c 0,3,4
 435 896 435 896 435 868 c 0,5,6
 435 803 435 803 390.5 759 c 128,-1,7
 346 715 346 715 281 715 c 0,8,9
 215 715 215 715 171.5 759 c 128,-1,10
 128 803 128 803 128 868 c 0,11,12
 128 918 128 918 154.5 954.5 c 128,-1,13
 181 991 181 991 222 1010 c 0,14,15
 249 1022 249 1022 281 1022 c 0,0,1
281 289 m 0,16,17
 331 289 331 289 367.5 262 c 128,-1,18
 404 235 404 235 422 194 c 0,19,20
 435 163 435 163 435 135 c 0,21,22
 435 70 435 70 390.5 26 c 128,-1,23
 346 -18 346 -18 281 -18 c 0,24,25
 215 -18 215 -18 171.5 26 c 128,-1,26
 128 70 128 70 128 135 c 0,27,28
 128 185 128 185 154.5 221 c 128,-1,29
 181 257 181 257 222 276 c 0,30,31
 251 289 251 289 281 289 c 0,16,17
-1407 1022 m 0,32,33
 -1357 1022 -1357 1022 -1320.5 995 c 128,-1,34
 -1284 968 -1284 968 -1266 927 c 0,35,36
 -1253 896 -1253 896 -1253 868 c 0,37,38
 -1253 803 -1253 803 -1297.5 759 c 128,-1,39
 -1342 715 -1342 715 -1407 715 c 0,40,41
 -1473 715 -1473 715 -1516.5 759 c 128,-1,42
 -1560 803 -1560 803 -1560 868 c 0,43,44
 -1560 918 -1560 918 -1533.5 954.5 c 128,-1,45
 -1507 991 -1507 991 -1466 1010 c 0,46,47
 -1439 1022 -1439 1022 -1407 1022 c 0,32,33
-1407 289 m 0,48,49
 -1357 289 -1357 289 -1320.5 262 c 128,-1,50
 -1284 235 -1284 235 -1266 194 c 0,51,52
 -1253 163 -1253 163 -1253 135 c 0,53,54
 -1253 70 -1253 70 -1297.5 26 c 128,-1,55
 -1342 -18 -1342 -18 -1407 -18 c 0,56,57
 -1473 -18 -1473 -18 -1516.5 26 c 128,-1,58
 -1560 70 -1560 70 -1560 135 c 0,59,60
 -1560 185 -1560 185 -1533.5 221 c 128,-1,61
 -1507 257 -1507 257 -1466 276 c 0,62,63
 -1437 289 -1437 289 -1407 289 c 0,48,49
-563 1022 m 0,64,65
 -513 1022 -513 1022 -476.5 995 c 128,-1,66
 -440 968 -440 968 -422 927 c 0,67,68
 -409 896 -409 896 -409 868 c 0,69,70
 -409 803 -409 803 -453.5 759 c 128,-1,71
 -498 715 -498 715 -563 715 c 0,72,73
 -629 715 -629 715 -672.5 759 c 128,-1,74
 -716 803 -716 803 -716 868 c 0,75,76
 -716 918 -716 918 -689.5 954.5 c 128,-1,77
 -663 991 -663 991 -622 1010 c 0,78,79
 -595 1022 -595 1022 -563 1022 c 0,64,65
-563 289 m 0,80,81
 -513 289 -513 289 -476.5 262 c 128,-1,82
 -440 235 -440 235 -422 194 c 0,83,84
 -409 163 -409 163 -409 135 c 0,85,86
 -409 70 -409 70 -453.5 26 c 128,-1,87
 -498 -18 -498 -18 -563 -18 c 0,88,89
 -629 -18 -629 -18 -672.5 26 c 128,-1,90
 -716 70 -716 70 -716 135 c 0,91,92
 -716 185 -716 185 -689.5 221 c 128,-1,93
 -663 257 -663 257 -622 276 c 0,94,95
 -593 289 -593 289 -563 289 c 0,80,81
EndSplineSet
PickledDataWithLists: "(dp0
Vcom.schriftgestaltung.Glyphs.lastChange\\u000d
p1
V2019/11/18 23:05:38\\u000d
p2
s."
EndChar

StartChar: colon_colon_equal.liga
Encoding: 26 -1 26
GlifName: colon_colon_equal.liga
Width: 1126
Flags: W
HStem: -18 307<-1512.44 -1300 -950.439 -737.997> 298 147<-431 711> 646 147<-431 711> 715 307<-1513.53 -1297.38 -951.527 -735.375>
VStem: -1560 307<28.4731 241.617 758.875 974.617> -998 307<28.4731 241.617 758.875 974.617>
LayerCount: 2
Fore
SplineSet
711 646 m 1,0,-1
 -431 646 l 1,1,-1
 -431 793 l 1,2,-1
 711 793 l 1,3,-1
 711 646 l 1,0,-1
711 298 m 1,4,-1
 -431 298 l 1,5,-1
 -431 445 l 1,6,-1
 711 445 l 1,7,-1
 711 298 l 1,4,-1
-845 715 m 128,-1,9
 -910 715 -910 715 -954 758.5 c 128,-1,10
 -998 802 -998 802 -998 868 c 0,11,12
 -998 918 -998 918 -971.5 955 c 128,-1,13
 -945 992 -945 992 -904 1010 c 0,14,15
 -877 1022 -877 1022 -845 1022 c 0,16,17
 -780 1022 -780 1022 -735.5 977.5 c 128,-1,18
 -691 933 -691 933 -691 868 c 128,-1,19
 -691 803 -691 803 -735.5 759 c 128,-1,8
 -780 715 -780 715 -845 715 c 128,-1,9
-845 289 m 0,20,21
 -780 289 -780 289 -735.5 244.5 c 128,-1,22
 -691 200 -691 200 -691 135 c 128,-1,23
 -691 70 -691 70 -735.5 26 c 128,-1,24
 -780 -18 -780 -18 -845 -18 c 0,25,26
 -895 -18 -895 -18 -931.5 8.5 c 128,-1,27
 -968 35 -968 35 -986 76 c 0,28,29
 -998 103 -998 103 -998 135 c 0,30,31
 -998 185 -998 185 -971.5 221.5 c 128,-1,32
 -945 258 -945 258 -904 276 c 0,33,34
 -875 289 -875 289 -845 289 c 0,20,21
-1407 715 m 128,-1,36
 -1472 715 -1472 715 -1516 758.5 c 128,-1,37
 -1560 802 -1560 802 -1560 868 c 0,38,39
 -1560 918 -1560 918 -1533.5 955 c 128,-1,40
 -1507 992 -1507 992 -1466 1010 c 0,41,42
 -1439 1022 -1439 1022 -1407 1022 c 0,43,44
 -1342 1022 -1342 1022 -1297.5 977.5 c 128,-1,45
 -1253 933 -1253 933 -1253 868 c 128,-1,46
 -1253 803 -1253 803 -1297.5 759 c 128,-1,35
 -1342 715 -1342 715 -1407 715 c 128,-1,36
-1407 289 m 0,47,48
 -1342 289 -1342 289 -1297.5 244.5 c 128,-1,49
 -1253 200 -1253 200 -1253 135 c 128,-1,50
 -1253 70 -1253 70 -1297.5 26 c 128,-1,51
 -1342 -18 -1342 -18 -1407 -18 c 0,52,53
 -1457 -18 -1457 -18 -1493.5 8.5 c 128,-1,54
 -1530 35 -1530 35 -1548 76 c 0,55,56
 -1560 103 -1560 103 -1560 135 c 0,57,58
 -1560 185 -1560 185 -1533.5 221.5 c 128,-1,59
 -1507 258 -1507 258 -1466 276 c 0,60,61
 -1437 289 -1437 289 -1407 289 c 0,47,48
EndSplineSet
PickledDataWithLists: "(dp0
Vcom.schriftgestaltung.Glyphs.lastChange\\u000d
p1
V2019/11/18 23:05:38\\u000d
p2
s."
EndChar

StartChar: colon_equal.liga
Encoding: 27 -1 27
GlifName: colon_equal.liga
Width: 1126
Flags: W
HStem: -18 307<-527.439 -314.997> 298 147<-8 852> 646 147<-8 852> 715 307<-528.892 -312.375>
VStem: -575 307<28.4731 241.617 761.473 974.617>
LayerCount: 2
Fore
SplineSet
852 646 m 1,0,-1
 -8 646 l 1,1,-1
 -8 793 l 1,2,-1
 852 793 l 1,3,-1
 852 646 l 1,0,-1
852 298 m 1,4,-1
 -8 298 l 1,5,-1
 -8 445 l 1,6,-1
 852 445 l 1,7,-1
 852 298 l 1,4,-1
-422 1022 m 0,8,9
 -357 1022 -357 1022 -312.5 977.5 c 128,-1,10
 -268 933 -268 933 -268 868 c 128,-1,11
 -268 803 -268 803 -312.5 759 c 128,-1,12
 -357 715 -357 715 -422 715 c 0,13,14
 -472 715 -472 715 -508.5 741.5 c 128,-1,15
 -545 768 -545 768 -563 808 c 0,16,17
 -575 835 -575 835 -575 868 c 0,18,19
 -575 918 -575 918 -548.5 955 c 128,-1,20
 -522 992 -522 992 -481 1010 c 0,21,22
 -454 1022 -454 1022 -422 1022 c 0,8,9
-422 289 m 0,23,24
 -358 289 -358 289 -313 244.5 c 128,-1,25
 -268 200 -268 200 -268 135 c 128,-1,26
 -268 70 -268 70 -312.5 26 c 128,-1,27
 -357 -18 -357 -18 -422 -18 c 0,28,29
 -472 -18 -472 -18 -508.5 8.5 c 128,-1,30
 -545 35 -545 35 -563 76 c 0,31,32
 -575 103 -575 103 -575 135 c 0,33,34
 -575 185 -575 185 -548.5 221.5 c 128,-1,35
 -522 258 -522 258 -481 276 c 0,36,37
 -452 289 -452 289 -422 289 c 0,23,24
EndSplineSet
PickledDataWithLists: "(dp0
Vcom.schriftgestaltung.Glyphs.lastChange\\u000d
p1
V2019/11/18 23:05:38\\u000d
p2
s."
EndChar

StartChar: colon_greater.liga
Encoding: 28 -1 28
GlifName: colon_greater.liga
Width: 1126
Flags: W
HStem: -18 307<-527.686 -314.997> 715 307<-528.913 -314.997>
VStem: -575 307<25.875 241.904 758.875 975.165>
LayerCount: 2
Fore
SplineSet
-422 1022 m 0,0,1
 -372 1022 -372 1022 -335 995 c 128,-1,2
 -298 968 -298 968 -280 927 c 0,3,4
 -268 898 -268 898 -268 868 c 0,5,6
 -268 803 -268 803 -312.5 759 c 128,-1,7
 -357 715 -357 715 -422 715 c 0,8,9
 -488 715 -488 715 -531.5 759 c 128,-1,10
 -575 803 -575 803 -575 868 c 0,11,12
 -575 918 -575 918 -549 954.5 c 128,-1,13
 -523 991 -523 991 -482 1010 c 0,14,15
 -455 1022 -455 1022 -422 1022 c 0,0,1
-422 289 m 0,16,17
 -372 289 -372 289 -335 262 c 128,-1,18
 -298 235 -298 235 -280 194 c 0,19,20
 -268 166 -268 166 -268 135 c 0,21,22
 -268 70 -268 70 -312.5 26 c 128,-1,23
 -357 -18 -357 -18 -422 -18 c 0,24,25
 -488 -18 -488 -18 -531.5 26 c 128,-1,26
 -575 70 -575 70 -575 135 c 0,27,28
 -575 185 -575 185 -549 221 c 128,-1,29
 -523 257 -523 257 -482 276 c 0,30,31
 -453 289 -453 289 -422 289 c 0,16,17
-125 985 m 5,32,-1
 -37 1106 l 1,33,-1
 985 545 l 1,34,-1
 -37 -16 l 1,35,-1
 -125 104 l 1,36,-1
 670 543 l 1,37,-1
 -125 985 l 5,32,-1
EndSplineSet
PickledDataWithLists: "(dp0
Vcom.schriftgestaltung.Glyphs.lastChange\\u000d
p1
V2019/11/18 23:05:38\\u000d
p2
s."
EndChar

StartChar: colon_less.liga
Encoding: 29 -1 29
GlifName: colon_less.liga
Width: 1126
Flags: W
HStem: -18 307<-527.686 -314.997> 715 307<-528.913 -314.997>
VStem: -575 307<25.875 241.904 758.875 975.165>
LayerCount: 2
Fore
SplineSet
-422 1022 m 0,0,1
 -372 1022 -372 1022 -335 995 c 128,-1,2
 -298 968 -298 968 -280 927 c 0,3,4
 -268 898 -268 898 -268 868 c 0,5,6
 -268 803 -268 803 -312.5 759 c 128,-1,7
 -357 715 -357 715 -422 715 c 0,8,9
 -488 715 -488 715 -531.5 759 c 128,-1,10
 -575 803 -575 803 -575 868 c 0,11,12
 -575 918 -575 918 -549 954.5 c 128,-1,13
 -523 991 -523 991 -482 1010 c 0,14,15
 -455 1022 -455 1022 -422 1022 c 0,0,1
-422 289 m 0,16,17
 -372 289 -372 289 -335 262 c 128,-1,18
 -298 235 -298 235 -280 194 c 0,19,20
 -268 166 -268 166 -268 135 c 0,21,22
 -268 70 -268 70 -312.5 26 c 128,-1,23
 -357 -18 -357 -18 -422 -18 c 0,24,25
 -488 -18 -488 -18 -531.5 26 c 128,-1,26
 -575 70 -575 70 -575 135 c 0,27,28
 -575 185 -575 185 -549 221 c 128,-1,29
 -523 257 -523 257 -482 276 c 0,30,31
 -453 289 -453 289 -422 289 c 0,16,17
969 985 m 5,32,-1
 174 543 l 1,33,-1
 969 104 l 1,34,-1
 881 -16 l 1,35,-1
 -141 545 l 1,36,-1
 881 1106 l 1,37,-1
 969 985 l 5,32,-1
EndSplineSet
PickledDataWithLists: "(dp0
Vcom.schriftgestaltung.Glyphs.lastChange\\u000d
p1
V2019/11/18 23:05:38\\u000d
p2
s."
EndChar

StartChar: dollar_greater.liga
Encoding: 30 -1 30
GlifName: dollar_greater.liga
Width: 1126
Flags: W
HStem: 1155 150<-748.371 -579>
VStem: -1005 186<865.055 1088.46> -309 187<229.595 461.917>
LayerCount: 2
Fore
SplineSet
-426 156 m 1,0,1
 -309 156 -309 156 -238.5 204.5 c 128,-1,2
 -168 253 -168 253 -168 352 c 0,3,4
 -168 411 -168 411 -199 447 c 128,-1,5
 -230 483 -230 483 -285 511 c 0,6,7
 -329 534 -329 534 -375 551 c 1,8,-1
 -426 156 l 1,0,1
-438 1155 m 1,9,10
 -543 1155 -543 1155 -610.5 1109.5 c 128,-1,11
 -678 1064 -678 1064 -678 975 c 0,12,13
 -678 906 -678 906 -631 862 c 128,-1,14
 -584 818 -584 818 -489 780 c 1,15,-1
 -438 1155 l 1,9,10
-592 0 m 1,16,17
 -705 0 -705 0 -874 45 c 1,18,-1
 -874 211 l 1,19,20
 -716 156 -716 156 -571 156 c 1,21,-1
 -512 606 l 1,22,23
 -635 653 -635 653 -712 700.5 c 128,-1,24
 -789 748 -789 748 -833 825 c 0,25,26
 -864 880 -864 880 -864 956 c 0,27,28
 -864 1073 -864 1073 -795.5 1150 c 128,-1,29
 -727 1227 -727 1227 -618 1268 c 0,30,31
 -514 1305 -514 1305 -418 1305 c 1,32,-1
 -393 1495 l 1,33,-1
 -248 1495 l 1,34,-1
 -274 1302 l 1,35,-1
 848 545 l 1,36,-1
 176 -16 l 1,37,-1
 68 94 l 1,38,-1
 585 520 l 1,39,40
 520 569 520 569 415.5 646 c 128,-1,41
 311 723 311 723 74 885.5 c 128,-1,42
 -163 1048 -163 1048 -298 1120 c 1,43,-1
 -350 725 l 1,44,45
 -288 701 -288 701 -248 683 c 128,-1,46
 -208 665 -208 665 -158.5 637 c 128,-1,47
 -109 609 -109 609 -73 574.5 c 128,-1,48
 -37 540 -37 540 -13 498 c 0,49,50
 19 440 19 440 19 362 c 0,51,52
 19 115 19 115 -257 32 c 0,53,54
 -371 0 -371 0 -446 0 c 1,55,-1
 -479 -236 l 1,56,-1
 -625 -236 l 1,57,-1
 -592 0 l 1,16,17
EndSplineSet
PickledDataWithLists: "(dp0
Vcom.schriftgestaltung.Glyphs.lastChange\\u000d
p1
V2019/11/18 23:07:02\\u000d
p2
s."
EndChar

StartChar: equal_colon_equal.liga
Encoding: 31 -1 31
GlifName: equal_colon_equal.liga
Width: 1126
Flags: W
HStem: -18 307<-669.892 -455.997> 298 147<-1837 -971 -155 711> 646 147<-1837 -971 -155 711> 715 307<-669.892 -455.997>
VStem: -716 307<25.875 242.165 758.875 973.684>
LayerCount: 2
Fore
SplineSet
-1837 646 m 1,0,-1
 -1837 793 l 1,1,-1
 -971 793 l 1,2,-1
 -971 646 l 1,3,-1
 -1837 646 l 1,0,-1
-1837 298 m 1,4,-1
 -1837 445 l 1,5,-1
 -971 445 l 1,6,-1
 -971 298 l 1,7,-1
 -1837 298 l 1,4,-1
711 646 m 1,8,-1
 -155 646 l 1,9,-1
 -155 793 l 1,10,-1
 711 793 l 1,11,-1
 711 646 l 1,8,-1
711 298 m 1,12,-1
 -155 298 l 1,13,-1
 -155 445 l 1,14,-1
 711 445 l 1,15,-1
 711 298 l 1,12,-1
-563 1022 m 0,16,17
 -513 1022 -513 1022 -476.5 995 c 128,-1,18
 -440 968 -440 968 -422 927 c 0,19,20
 -409 900 -409 900 -409 868 c 0,21,22
 -409 803 -409 803 -453.5 759 c 128,-1,23
 -498 715 -498 715 -563 715 c 0,24,25
 -629 715 -629 715 -672.5 759 c 128,-1,26
 -716 803 -716 803 -716 868 c 0,27,28
 -716 918 -716 918 -689.5 954.5 c 128,-1,29
 -663 991 -663 991 -622 1010 c 0,30,31
 -595 1022 -595 1022 -563 1022 c 0,16,17
-563 289 m 0,32,33
 -513 289 -513 289 -476.5 262 c 128,-1,34
 -440 235 -440 235 -422 194 c 0,35,36
 -409 167 -409 167 -409 135 c 0,37,38
 -409 70 -409 70 -453.5 26 c 128,-1,39
 -498 -18 -498 -18 -563 -18 c 0,40,41
 -629 -18 -629 -18 -672.5 26 c 128,-1,42
 -716 70 -716 70 -716 135 c 0,43,44
 -716 185 -716 185 -689.5 221.5 c 128,-1,45
 -663 258 -663 258 -622 276 c 0,46,47
 -596 289 -596 289 -563 289 c 0,32,33
EndSplineSet
PickledDataWithLists: "(dp0
Vcom.schriftgestaltung.Glyphs.lastChange\\u000d
p1
V2019/11/18 23:05:38\\u000d
p2
s."
EndChar

StartChar: equal_equal.liga
Encoding: 32 -1 32
GlifName: equal_equal.liga
Width: 1126
Flags: W
HStem: 298 147<-852 852> 646 147<-852 852>
LayerCount: 2
Fore
SplineSet
852 445 m 1,0,-1
 852 298 l 1,1,-1
 -852 298 l 1,2,-1
 -852 445 l 1,3,-1
 852 445 l 1,0,-1
852 793 m 1,4,-1
 852 646 l 1,5,-1
 -852 646 l 1,6,-1
 -852 793 l 1,7,-1
 852 793 l 1,4,-1
EndSplineSet
PickledDataWithLists: "(dp0
Vcom.schriftgestaltung.Glyphs.lastChange\\u000d
p1
V2019/11/18 23:05:38\\u000d
p2
s."
EndChar

StartChar: equal_equal_equal.liga
Encoding: 33 -1 33
GlifName: equal_equal_equal.liga
Width: 1126
Flags: W
HStem: 143 147<-1837 711> 471 147<-1837 711> 799 147<-1837 711>
CounterMasks: 1 e0
LayerCount: 2
Fore
SplineSet
711 290 m 5,0,-1
 711 143 l 1,1,-1
 -1837 143 l 1,2,-1
 -1837 290 l 1,3,-1
 711 290 l 5,0,-1
711 618 m 5,4,-1
 711 471 l 1,5,-1
 -1837 471 l 1,6,-1
 -1837 618 l 1,7,-1
 711 618 l 5,4,-1
711 946 m 5,8,-1
 711 799 l 1,9,-1
 -1837 799 l 1,10,-1
 -1837 946 l 1,11,-1
 711 946 l 5,8,-1
EndSplineSet
PickledDataWithLists: "(dp0
Vcom.schriftgestaltung.Glyphs.lastChange\\u000d
p1
V2019/11/18 23:05:38\\u000d
p2
s."
EndChar

StartChar: equal_equal_greater.liga
Encoding: 34 -1 34
GlifName: equal_equal_greater.liga
Width: 1126
Flags: W
HStem: 298 147<-1837 175> 646 147<-1837 171>
LayerCount: 2
Fore
SplineSet
-73 995 m 1,0,-1
 35 1106 l 1,1,-1
 707 545 l 1,2,-1
 35 -16 l 1,3,-1
 -73 94 l 1,4,-1
 175 298 l 1,5,-1
 -1837 298 l 1,6,-1
 -1837 445 l 1,7,-1
 353 445 l 1,8,-1
 472 543 l 1,9,-1
 348 646 l 1,10,-1
 -1837 646 l 1,11,-1
 -1837 793 l 1,12,-1
 171 793 l 1,13,-1
 -73 995 l 1,0,-1
EndSplineSet
PickledDataWithLists: "(dp0
Vcom.schriftgestaltung.Glyphs.lastChange\\u000d
p1
V2019/11/18 23:05:38\\u000d
p2
s."
EndChar

StartChar: equal_exclam_equal.liga
Encoding: 35 -1 35
GlifName: equal_exclam_equal.liga
Width: 1126
Flags: W
HStem: -18 264<-666.088 -467.103> 298 147<-1837 -953 -179 711> 646 147<-1837 -953 -179 711>
VStem: -698 264<15.1032 214.088> -671 211<920.797 1413> -641 154<383 875.203>
LayerCount: 2
Fore
SplineSet
-460 1413 m 1,0,-1
 -487 383 l 1,1,-1
 -641 383 l 1,2,-1
 -671 1413 l 1,3,-1
 -460 1413 l 1,0,-1
-698 113 m 256,4,5
 -698 170 -698 170 -660 208 c 128,-1,6
 -622 246 -622 246 -565 246 c 0,7,8
 -509 246 -509 246 -471.5 207.5 c 128,-1,9
 -434 169 -434 169 -434 113 c 128,-1,10
 -434 57 -434 57 -471.5 19.5 c 128,-1,11
 -509 -18 -509 -18 -565 -18 c 128,-1,12
 -621 -18 -621 -18 -659.5 19.5 c 128,-1,13
 -698 57 -698 57 -698 113 c 256,4,5
-1837 646 m 1,14,-1
 -1837 793 l 1,15,-1
 -953 793 l 1,16,-1
 -953 646 l 1,17,-1
 -1837 646 l 1,14,-1
-1837 298 m 1,18,-1
 -1837 445 l 1,19,-1
 -953 445 l 1,20,-1
 -953 298 l 1,21,-1
 -1837 298 l 1,18,-1
711 646 m 1,22,-1
 -179 646 l 1,23,-1
 -179 793 l 1,24,-1
 711 793 l 1,25,-1
 711 646 l 1,22,-1
711 298 m 1,26,-1
 -179 298 l 1,27,-1
 -179 445 l 1,28,-1
 711 445 l 1,29,-1
 711 298 l 1,26,-1
EndSplineSet
PickledDataWithLists: "(dp0
Vcom.schriftgestaltung.Glyphs.lastChange\\u000d
p1
V2019/11/18 23:05:38\\u000d
p2
s."
EndChar

StartChar: equal_greater.liga
Encoding: 36 -1 36
GlifName: equal_greater.liga
Width: 1126
Flags: W
HStem: 298 147<-852 316> 646 147<-852 312>
LayerCount: 2
Fore
SplineSet
68 995 m 1,0,-1
 176 1106 l 1,1,-1
 848 545 l 1,2,-1
 176 -16 l 1,3,-1
 68 94 l 1,4,-1
 316 298 l 1,5,-1
 -852 298 l 1,6,-1
 -852 445 l 1,7,-1
 494 445 l 1,8,-1
 613 543 l 1,9,-1
 489 646 l 1,10,-1
 -852 646 l 1,11,-1
 -852 793 l 1,12,-1
 312 793 l 1,13,-1
 68 995 l 1,0,-1
EndSplineSet
PickledDataWithLists: "(dp0
Vcom.schriftgestaltung.Glyphs.lastChange\\u000d
p1
V2019/11/18 23:05:38\\u000d
p2
s."
EndChar

StartChar: equal_greater_greater.liga
Encoding: 37 -1 37
GlifName: equal_greater_greater.liga
Width: 1126
Flags: W
HStem: 298 147<-1837 -388> 646 147<-1837 -392>
LayerCount: 2
Fore
SplineSet
-636 995 m 1,0,-1
 -528 1106 l 1,1,-1
 144 545 l 1,2,-1
 -528 -16 l 1,3,-1
 -636 94 l 1,4,-1
 -388 298 l 1,5,-1
 -1837 298 l 1,6,-1
 -1837 445 l 1,7,-1
 -210 445 l 1,8,-1
 -91 543 l 1,9,-1
 -215 646 l 1,10,-1
 -1837 646 l 1,11,-1
 -1837 793 l 1,12,-1
 -392 793 l 1,13,-1
 -636 995 l 1,0,-1
-73 995 m 1,14,-1
 35 1106 l 1,15,-1
 707 545 l 1,16,-1
 35 -16 l 1,17,-1
 -73 94 l 1,18,-1
 472 543 l 1,19,-1
 -73 995 l 1,14,-1
EndSplineSet
PickledDataWithLists: "(dp0
Vcom.schriftgestaltung.Glyphs.lastChange\\u000d
p1
V2019/11/18 23:05:38\\u000d
p2
s."
EndChar

StartChar: equal_less_less.liga
Encoding: 38 -1 38
GlifName: equal_less_less.liga
Width: 1126
Flags: W
HStem: 298 147<-1837 -588> 646 147<-1837 -587>
LayerCount: 2
Fore
SplineSet
73 94 m 1,0,-1
 -36 -16 l 1,1,-1
 -412 298 l 1,2,-1
 -1837 298 l 1,3,-1
 -1837 445 l 1,4,-1
 -588 445 l 1,5,-1
 -708 545 l 1,6,-1
 -587 646 l 1,7,-1
 -1837 646 l 1,8,-1
 -1837 793 l 1,9,-1
 -411 793 l 1,10,-1
 -36 1106 l 1,11,-1
 73 995 l 1,12,-1
 -472 547 l 1,13,-1
 73 94 l 1,0,-1
636 94 m 1,14,-1
 527 -16 l 1,15,-1
 -145 545 l 1,16,-1
 527 1106 l 1,17,-1
 636 995 l 1,18,-1
 91 547 l 1,19,-1
 636 94 l 1,14,-1
EndSplineSet
PickledDataWithLists: "(dp0
Vcom.schriftgestaltung.Glyphs.lastChange\\u000d
p1
V2019/11/18 23:05:38\\u000d
p2
s."
EndChar

StartChar: equal_slash_equal.liga
Encoding: 39 -1 39
GlifName: equal_slash_equal.liga
Width: 1126
Flags: W
HStem: 298 147<-1837 -795 -567 711> 646 147<-1837 -648 -420 711>
LayerCount: 2
Fore
SplineSet
711 445 m 1,0,-1
 711 298 l 1,1,-1
 -629 298 l 1,2,-1
 -845 -215 l 1,3,-1
 -1011 -215 l 1,4,-1
 -795 298 l 1,5,-1
 -1837 298 l 1,6,-1
 -1837 445 l 1,7,-1
 -733 445 l 1,8,-1
 -648 646 l 1,9,-1
 -1837 646 l 1,10,-1
 -1837 793 l 1,11,-1
 -586 793 l 1,12,-1
 -325 1413 l 1,13,-1
 -159 1413 l 1,14,-1
 -420 793 l 1,15,-1
 711 793 l 1,16,-1
 711 646 l 1,17,-1
 -482 646 l 1,18,-1
 -567 445 l 1,19,-1
 711 445 l 1,0,-1
EndSplineSet
PickledDataWithLists: "(dp0
Vcom.schriftgestaltung.Glyphs.lastChange\\u000d
p1
V2019/11/18 23:05:38\\u000d
p2
s."
EndChar

StartChar: exclam_equal.liga
Encoding: 40 -1 40
GlifName: exclam_equal.liga
Width: 1126
Flags: W
HStem: 298 147<-852 -232 -4 852> 646 147<-852 -85 143 852>
LayerCount: 2
Fore
SplineSet
-170 445 m 1,0,-1
 -85 646 l 1,1,-1
 -852 646 l 1,2,-1
 -852 793 l 1,3,-1
 -23 793 l 1,4,-1
 238 1413 l 1,5,-1
 404 1413 l 1,6,-1
 143 793 l 1,7,-1
 852 793 l 1,8,-1
 852 646 l 1,9,-1
 81 646 l 1,10,-1
 -4 445 l 1,11,-1
 852 445 l 1,12,-1
 852 298 l 1,13,-1
 -66 298 l 1,14,-1
 -282 -215 l 1,15,-1
 -448 -215 l 1,16,-1
 -232 298 l 1,17,-1
 -852 298 l 1,18,-1
 -852 445 l 1,19,-1
 -170 445 l 1,0,-1
EndSplineSet
PickledDataWithLists: "(dp0
Vcom.schriftgestaltung.Glyphs.lastChange\\u000d
p1
V2019/11/18 23:05:38\\u000d
p2
s."
EndChar

StartChar: exclam_equal_equal.liga
Encoding: 41 -1 41
GlifName: exclam_equal_equal.liga
Width: 1126
Flags: W
HStem: 143 147<-1837 -860 -632 711> 471 147<-1837 -722 -494 711> 799 147<-1837 -584 -356 711>
CounterMasks: 1 e0
LayerCount: 2
Fore
SplineSet
711 946 m 1,0,-1
 711 799 l 1,1,-1
 -418 799 l 1,2,-1
 -494 618 l 1,3,-1
 711 618 l 1,4,-1
 711 471 l 1,5,-1
 -556 471 l 1,6,-1
 -632 290 l 1,7,-1
 711 290 l 1,8,-1
 711 143 l 1,9,-1
 -694 143 l 1,10,-1
 -845 -215 l 1,11,-1
 -1011 -215 l 1,12,-1
 -860 143 l 1,13,-1
 -1837 143 l 1,14,-1
 -1837 290 l 1,15,-1
 -798 290 l 1,16,-1
 -722 471 l 1,17,-1
 -1837 471 l 1,18,-1
 -1837 618 l 1,19,-1
 -660 618 l 1,20,-1
 -584 799 l 1,21,-1
 -1837 799 l 1,22,-1
 -1837 946 l 1,23,-1
 -522 946 l 1,24,-1
 -325 1413 l 1,25,-1
 -159 1413 l 1,26,-1
 -356 946 l 1,27,-1
 711 946 l 1,0,-1
EndSplineSet
PickledDataWithLists: "(dp0
Vcom.schriftgestaltung.Glyphs.lastChange\\u000d
p1
V2019/11/18 23:05:38\\u000d
p2
s."
EndChar

StartChar: exclam_exclam.liga
Encoding: 42 -1 42
GlifName: exclam_exclam.liga
Width: 1126
Flags: W
HStem: -18 264<-525.088 -326.103 318.912 517.897>
VStem: -557 264<15.1032 214.088> -530 211<920.797 1413> -500 154<383 875.203> 287 264<15.1032 214.088> 314 211<920.797 1413> 344 154<383 875.203>
LayerCount: 2
Fore
SplineSet
-319 1413 m 1,0,-1
 -346 383 l 1,1,-1
 -500 383 l 1,2,-1
 -530 1413 l 1,3,-1
 -319 1413 l 1,0,-1
-557 113 m 256,4,5
 -557 170 -557 170 -519 208 c 128,-1,6
 -481 246 -481 246 -424 246 c 0,7,8
 -368 246 -368 246 -330.5 207.5 c 128,-1,9
 -293 169 -293 169 -293 113 c 128,-1,10
 -293 57 -293 57 -330.5 19.5 c 128,-1,11
 -368 -18 -368 -18 -424 -18 c 128,-1,12
 -480 -18 -480 -18 -518.5 19.5 c 128,-1,13
 -557 57 -557 57 -557 113 c 256,4,5
525 1413 m 1,14,-1
 498 383 l 1,15,-1
 344 383 l 1,16,-1
 314 1413 l 1,17,-1
 525 1413 l 1,14,-1
287 113 m 256,18,19
 287 170 287 170 325 208 c 128,-1,20
 363 246 363 246 420 246 c 0,21,22
 476 246 476 246 513.5 207.5 c 128,-1,23
 551 169 551 169 551 113 c 128,-1,24
 551 57 551 57 513.5 19.5 c 128,-1,25
 476 -18 476 -18 420 -18 c 128,-1,26
 364 -18 364 -18 325.5 19.5 c 128,-1,27
 287 57 287 57 287 113 c 256,18,19
EndSplineSet
PickledDataWithLists: "(dp0
Vcom.schriftgestaltung.Glyphs.lastChange\\u000d
p1
V2019/11/18 23:05:38\\u000d
p2
s."
EndChar

StartChar: exclam_exclam_period.liga
Encoding: 43 -1 43
GlifName: exclam_exclam_period.liga
Width: 1126
Flags: W
HStem: -18 264<-1510.09 -1311.1 -666.088 -467.103 177.912 376.897>
VStem: -1542 264<15.1032 214.088> -1515 211<920.797 1413> -1485 154<383 875.203> -698 264<15.1032 214.088> -671 211<920.797 1413> -641 154<383 875.203> 146 264<15.1032 214.088> 173 211<920.797 1413> 203 154<383 875.203>
LayerCount: 2
Fore
SplineSet
384 1413 m 1,0,-1
 357 383 l 1,1,-1
 203 383 l 1,2,-1
 173 1413 l 1,3,-1
 384 1413 l 1,0,-1
146 113 m 256,4,5
 146 170 146 170 184 208 c 128,-1,6
 222 246 222 246 279 246 c 0,7,8
 335 246 335 246 372.5 207.5 c 128,-1,9
 410 169 410 169 410 113 c 128,-1,10
 410 57 410 57 372.5 19.5 c 128,-1,11
 335 -18 335 -18 279 -18 c 128,-1,12
 223 -18 223 -18 184.5 19.5 c 128,-1,13
 146 57 146 57 146 113 c 256,4,5
-1304 1413 m 1,14,-1
 -1331 383 l 1,15,-1
 -1485 383 l 1,16,-1
 -1515 1413 l 1,17,-1
 -1304 1413 l 1,14,-1
-1542 113 m 256,18,19
 -1542 170 -1542 170 -1504 208 c 128,-1,20
 -1466 246 -1466 246 -1409 246 c 0,21,22
 -1353 246 -1353 246 -1315.5 207.5 c 128,-1,23
 -1278 169 -1278 169 -1278 113 c 128,-1,24
 -1278 57 -1278 57 -1315.5 19.5 c 128,-1,25
 -1353 -18 -1353 -18 -1409 -18 c 128,-1,26
 -1465 -18 -1465 -18 -1503.5 19.5 c 128,-1,27
 -1542 57 -1542 57 -1542 113 c 256,18,19
-460 1413 m 1,28,-1
 -487 383 l 1,29,-1
 -641 383 l 1,30,-1
 -671 1413 l 1,31,-1
 -460 1413 l 1,28,-1
-698 113 m 256,32,33
 -698 170 -698 170 -660 208 c 128,-1,34
 -622 246 -622 246 -565 246 c 0,35,36
 -509 246 -509 246 -471.5 207.5 c 128,-1,37
 -434 169 -434 169 -434 113 c 128,-1,38
 -434 57 -434 57 -471.5 19.5 c 128,-1,39
 -509 -18 -509 -18 -565 -18 c 128,-1,40
 -621 -18 -621 -18 -659.5 19.5 c 128,-1,41
 -698 57 -698 57 -698 113 c 256,32,33
EndSplineSet
PickledDataWithLists: "(dp0
Vcom.schriftgestaltung.Glyphs.lastChange\\u000d
p1
V2019/11/18 23:05:38\\u000d
p2
s."
EndChar

StartChar: greater_colon.liga
Encoding: 44 -1 44
GlifName: greater_colon.liga
Width: 1126
Flags: W
HStem: -18 307<316.314 529.003> 715 307<315.087 529.003>
VStem: 269 307<25.875 241.904 758.875 975.165>
LayerCount: 2
Fore
SplineSet
422 1022 m 0,0,1
 472 1022 472 1022 509 995 c 128,-1,2
 546 968 546 968 564 927 c 0,3,4
 576 898 576 898 576 868 c 0,5,6
 576 803 576 803 531.5 759 c 128,-1,7
 487 715 487 715 422 715 c 0,8,9
 356 715 356 715 312.5 759 c 128,-1,10
 269 803 269 803 269 868 c 0,11,12
 269 918 269 918 295 954.5 c 128,-1,13
 321 991 321 991 362 1010 c 0,14,15
 389 1022 389 1022 422 1022 c 0,0,1
422 289 m 0,16,17
 472 289 472 289 509 262 c 128,-1,18
 546 235 546 235 564 194 c 0,19,20
 576 166 576 166 576 135 c 0,21,22
 576 70 576 70 531.5 26 c 128,-1,23
 487 -18 487 -18 422 -18 c 0,24,25
 356 -18 356 -18 312.5 26 c 128,-1,26
 269 70 269 70 269 135 c 0,27,28
 269 185 269 185 295 221 c 128,-1,29
 321 257 321 257 362 276 c 0,30,31
 391 289 391 289 422 289 c 0,16,17
-969 985 m 5,32,-1
 -881 1106 l 1,33,-1
 141 545 l 1,34,-1
 -881 -16 l 1,35,-1
 -969 104 l 1,36,-1
 -174 543 l 1,37,-1
 -969 985 l 5,32,-1
EndSplineSet
PickledDataWithLists: "(dp0
Vcom.schriftgestaltung.Glyphs.lastChange\\u000d
p1
V2019/11/18 23:05:38\\u000d
p2
s."
EndChar

StartChar: greater_equal.liga
Encoding: 45 -1 45
GlifName: greater_equal.liga
Width: 1126
Flags: W
HStem: 0 145<-645 645>
LayerCount: 2
Fore
SplineSet
-552 1104 m 5,0,-1
 -495 1241 l 1,1,-1
 600 778 l 1,2,-1
 -495 315 l 1,3,-1
 -552 452 l 1,4,-1
 220 778 l 1,5,-1
 -552 1104 l 5,0,-1
645 0 m 5,6,-1
 -645 0 l 1,7,-1
 -645 145 l 1,8,-1
 645 145 l 1,9,-1
 645 0 l 5,6,-1
EndSplineSet
Validated: 1
PickledDataWithLists: "(dp0
Vcom.schriftgestaltung.Glyphs.lastChange\\u000d
p1
V2019/11/18 23:05:38\\u000d
p2
s."
EndChar

StartChar: greater_equal_greater.liga
Encoding: 46 -1 46
GlifName: greater_equal_greater.liga
Width: 1126
Flags: W
HStem: 298 147<-1101 175> 646 147<-1102 171>
LayerCount: 2
Fore
SplineSet
-1761 995 m 1,0,-1
 -1653 1106 l 1,1,-1
 -1278 793 l 1,2,-1
 171 793 l 1,3,-1
 -73 995 l 1,4,-1
 35 1106 l 1,5,-1
 707 545 l 1,6,-1
 35 -16 l 1,7,-1
 -73 94 l 1,8,-1
 175 298 l 1,9,-1
 -1277 298 l 1,10,-1
 -1653 -16 l 1,11,-1
 -1761 94 l 1,12,-1
 -1216 543 l 1,13,-1
 -1761 995 l 1,0,-1
353 445 m 1,14,-1
 472 543 l 1,15,-1
 348 646 l 1,16,-1
 -1102 646 l 1,17,-1
 -981 545 l 1,18,-1
 -1101 445 l 1,19,-1
 353 445 l 1,14,-1
EndSplineSet
PickledDataWithLists: "(dp0
Vcom.schriftgestaltung.Glyphs.lastChange\\u000d
p1
V2019/11/18 23:05:38\\u000d
p2
s."
EndChar

StartChar: greater_greater.liga
Encoding: 47 -1 47
GlifName: greater_greater.liga
Width: 1126
Flags: W
LayerCount: 2
Fore
SplineSet
-125 985 m 1,0,-1
 -37 1106 l 1,1,-1
 985 545 l 1,2,-1
 -37 -16 l 1,3,-1
 -125 104 l 1,4,-1
 670 543 l 1,5,-1
 -125 985 l 1,0,-1
-969 985 m 1,6,-1
 -881 1106 l 1,7,-1
 141 545 l 1,8,-1
 -881 -16 l 1,9,-1
 -969 104 l 1,10,-1
 -174 543 l 1,11,-1
 -969 985 l 1,6,-1
EndSplineSet
PickledDataWithLists: "(dp0
Vcom.schriftgestaltung.Glyphs.lastChange\\u000d
p1
V2019/11/18 23:05:38\\u000d
p2
s."
EndChar

StartChar: greater_greater_equal.liga
Encoding: 48 -1 48
GlifName: greater_greater_equal.liga
Width: 1126
Flags: W
HStem: 298 147<-538 711> 646 147<-539 711>
LayerCount: 2
Fore
SplineSet
-1761 995 m 1,0,-1
 -1653 1106 l 1,1,-1
 -981 545 l 1,2,-1
 -1653 -16 l 1,3,-1
 -1761 94 l 1,4,-1
 -1216 543 l 1,5,-1
 -1761 995 l 1,0,-1
-1198 995 m 1,6,-1
 -1090 1106 l 1,7,-1
 -715 793 l 1,8,-1
 711 793 l 1,9,-1
 711 646 l 1,10,-1
 -539 646 l 1,11,-1
 -418 545 l 1,12,-1
 -538 445 l 1,13,-1
 711 445 l 1,14,-1
 711 298 l 1,15,-1
 -714 298 l 1,16,-1
 -1090 -16 l 1,17,-1
 -1198 94 l 1,18,-1
 -653 543 l 1,19,-1
 -1198 995 l 1,6,-1
EndSplineSet
PickledDataWithLists: "(dp0
Vcom.schriftgestaltung.Glyphs.lastChange\\u000d
p1
V2019/11/18 23:05:38\\u000d
p2
s."
EndChar

StartChar: greater_greater_greater.liga
Encoding: 49 -1 49
GlifName: greater_greater_greater.liga
Width: 1126
Flags: W
LayerCount: 2
Fore
SplineSet
-1954 985 m 1,0,-1
 -1866 1106 l 1,1,-1
 -844 545 l 1,2,-1
 -1866 -16 l 1,3,-1
 -1954 104 l 1,4,-1
 -1159 543 l 1,5,-1
 -1954 985 l 1,0,-1
-266 985 m 1,6,-1
 -178 1106 l 1,7,-1
 844 545 l 1,8,-1
 -178 -16 l 1,9,-1
 -266 104 l 1,10,-1
 529 543 l 1,11,-1
 -266 985 l 1,6,-1
-1110 985 m 5,12,-1
 -1022 1106 l 1,13,-1
 0 545 l 1,14,-1
 -1022 -16 l 1,15,-1
 -1110 104 l 1,16,-1
 -315 543 l 1,17,-1
 -1110 985 l 5,12,-1
EndSplineSet
PickledDataWithLists: "(dp0
Vcom.schriftgestaltung.Glyphs.lastChange\\u000d
p1
V2019/11/18 23:05:38\\u000d
p2
s."
EndChar

StartChar: greater_greater_hyphen.liga
Encoding: 50 -1 50
GlifName: greater_greater_hyphen.liga
Width: 1126
Flags: W
HStem: 463 164<-798 862>
LayerCount: 2
Fore
SplineSet
-1761 995 m 1,0,-1
 -1653 1106 l 1,1,-1
 -981 545 l 1,2,-1
 -1653 -16 l 1,3,-1
 -1761 94 l 1,4,-1
 -1216 543 l 1,5,-1
 -1761 995 l 1,0,-1
-1198 995 m 1,6,-1
 -1090 1106 l 1,7,-1
 -516 627 l 1,8,-1
 580 627 l 1,9,-1
 580 463 l 1,10,-1
 -516 463 l 1,11,-1
 -1090 -16 l 1,12,-1
 -1198 94 l 1,13,-1
 -653 543 l 1,14,-1
 -1198 995 l 1,6,-1
EndSplineSet
PickledDataWithLists: "(dp0
Vcom.schriftgestaltung.Glyphs.lastChange\\u000d
p1
V2019/11/18 23:05:38\\u000d
p2
s."
EndChar

StartChar: greater_hyphen.liga
Encoding: 51 -1 51
GlifName: greater_hyphen.liga
Width: 1126
Flags: W
HStem: 463 164<-94 721>
LayerCount: 2
Fore
SplineSet
-776 995 m 1,0,-1
 -668 1106 l 1,1,-1
 -94 627 l 1,2,-1
 721 627 l 1,3,-1
 721 463 l 1,4,-1
 -94 463 l 1,5,-1
 -668 -16 l 1,6,-1
 -776 94 l 1,7,-1
 -231 543 l 1,8,-1
 -776 995 l 1,0,-1
EndSplineSet
PickledDataWithLists: "(dp0
Vcom.schriftgestaltung.Glyphs.lastChange\\u000d
p1
V2019/11/18 23:05:38\\u000d
p2
s."
EndChar

StartChar: greater_hyphen_greater.liga
Encoding: 52 -1 52
GlifName: greater_hyphen_greater.liga
Width: 1126
Flags: W
HStem: 463 164<-1079 371>
LayerCount: 2
Fore
SplineSet
-1761 995 m 1,0,-1
 -1653 1106 l 1,1,-1
 -1079 627 l 1,2,-1
 371 627 l 1,3,-1
 -73 995 l 1,4,-1
 35 1106 l 1,5,-1
 707 545 l 1,6,-1
 35 -16 l 1,7,-1
 -73 94 l 1,8,-1
 375 463 l 1,9,-1
 -1079 463 l 1,10,-1
 -1653 -16 l 1,11,-1
 -1761 94 l 1,12,-1
 -1216 543 l 1,13,-1
 -1761 995 l 1,0,-1
EndSplineSet
PickledDataWithLists: "(dp0
Vcom.schriftgestaltung.Glyphs.lastChange\\u000d
p1
V2019/11/18 23:05:38\\u000d
p2
s."
EndChar

StartChar: hyphen_asciitilde.liga
Encoding: 53 -1 53
GlifName: hyphen_asciitilde.liga
Width: 1126
Flags: W
HStem: 336 158<543.325 728.681> 463 164<-721 23.7641> 565 164<79.1793 308.967>
VStem: 759 160<525.447 689>
LayerCount: 2
Fore
SplineSet
919 689 m 1,0,-1
 919 676 l 2,1,2
 919 522 919 522 848 429 c 128,-1,3
 777 336 777 336 637 336 c 0,4,5
 542 336 542 336 457 401 c 0,6,7
 433 419 433 419 391 455 c 128,-1,8
 349 491 349 491 326 508 c 0,9,10
 323 510 323 510 308.5 521 c 128,-1,11
 294 532 294 532 289.5 535 c 128,-1,12
 285 538 285 538 271.5 546 c 128,-1,13
 258 554 258 554 249.5 556.5 c 128,-1,14
 241 559 241 559 227.5 562 c 128,-1,15
 214 565 214 565 201 565 c 0,16,17
 189 565 189 565 178.5 563.5 c 128,-1,18
 168 562 168 562 155.5 557.5 c 128,-1,19
 143 553 143 553 139 551 c 128,-1,20
 135 549 135 549 118.5 541 c 128,-1,21
 102 533 102 533 101 532 c 0,22,23
 21 492 21 492 -20 482 c 0,24,25
 -81 465 -81 465 -203 463 c 2,26,-1
 -721 463 l 1,27,-1
 -721 627 l 1,28,-1
 -203 627 l 2,29,30
 -71 627 -71 627 -21 649 c 0,31,32
 -11 653 -11 653 40.5 680 c 128,-1,33
 92 707 92 707 128.5 718 c 128,-1,34
 165 729 165 729 207 729 c 0,35,36
 260 729 260 729 301 711.5 c 128,-1,37
 342 694 342 694 388 662 c 0,38,39
 446 622 446 622 519 559 c 0,40,41
 522 556 522 556 531.5 548 c 128,-1,42
 541 540 541 540 545 536.5 c 128,-1,43
 549 533 549 533 558.5 526 c 128,-1,44
 568 519 568 519 573.5 515.5 c 128,-1,45
 579 512 579 512 588.5 507 c 128,-1,46
 598 502 598 502 605.5 500 c 128,-1,47
 613 498 613 498 623 496 c 128,-1,48
 633 494 633 494 643 494 c 0,49,50
 709 494 709 494 734 545.5 c 128,-1,51
 759 597 759 597 759 689 c 1,52,-1
 919 689 l 1,0,-1
EndSplineSet
PickledDataWithLists: "(dp0
Vcom.schriftgestaltung.Glyphs.lastChange\\u000d
p1
V2019/11/18 23:07:02\\u000d
p2
s."
EndChar

StartChar: hyphen_bar.liga
Encoding: 54 -1 54
GlifName: hyphen_bar.liga
Width: 1126
Flags: W
HStem: 463 164<-721 340>
VStem: 340 164<-410 463 627 1638>
LayerCount: 2
Fore
SplineSet
504 -410 m 1,0,-1
 340 -410 l 1,1,-1
 340 463 l 1,2,-1
 -721 463 l 1,3,-1
 -721 627 l 1,4,-1
 340 627 l 1,5,-1
 340 1638 l 1,6,-1
 504 1638 l 1,7,-1
 504 -410 l 1,0,-1
EndSplineSet
PickledDataWithLists: "(dp0
Vcom.schriftgestaltung.Glyphs.lastChange\\u000d
p1
V2019/11/18 23:05:38\\u000d
p2
s."
EndChar

StartChar: hyphen_greater.liga
Encoding: 55 -1 55
GlifName: hyphen_greater.liga
Width: 1126
Flags: W
HStem: 463 164<-721 512>
LayerCount: 2
Fore
SplineSet
68 995 m 1,0,-1
 176 1106 l 1,1,-1
 848 545 l 1,2,-1
 176 -16 l 1,3,-1
 68 94 l 1,4,-1
 516 463 l 1,5,-1
 -721 463 l 1,6,-1
 -721 627 l 1,7,-1
 512 627 l 1,8,-1
 68 995 l 1,0,-1
EndSplineSet
PickledDataWithLists: "(dp0
Vcom.schriftgestaltung.Glyphs.lastChange\\u000d
p1
V2019/11/18 23:05:38\\u000d
p2
s."
EndChar

StartChar: hyphen_greater_greater.liga
Encoding: 56 -1 56
GlifName: hyphen_greater_greater.liga
Width: 1126
Flags: W
HStem: 463 164<-1706 -192>
LayerCount: 2
Fore
SplineSet
-636 995 m 1,0,-1
 -528 1106 l 1,1,-1
 144 545 l 1,2,-1
 -528 -16 l 1,3,-1
 -636 94 l 1,4,-1
 -188 463 l 1,5,-1
 -1706 463 l 1,6,-1
 -1706 627 l 1,7,-1
 -192 627 l 1,8,-1
 -636 995 l 1,0,-1
-73 995 m 1,9,-1
 35 1106 l 1,10,-1
 707 545 l 1,11,-1
 35 -16 l 1,12,-1
 -73 94 l 1,13,-1
 472 543 l 1,14,-1
 -73 995 l 1,9,-1
EndSplineSet
PickledDataWithLists: "(dp0
Vcom.schriftgestaltung.Glyphs.lastChange\\u000d
p1
V2019/11/18 23:05:38\\u000d
p2
s."
EndChar

StartChar: hyphen_hyphen.liga
Encoding: 57 -1 57
GlifName: hyphen_hyphen.liga
Width: 1126
Flags: W
HStem: 463 164<-721 -123 123 721>
LayerCount: 2
Fore
SplineSet
721 463 m 1,0,-1
 123 463 l 1,1,-1
 123 627 l 1,2,-1
 721 627 l 1,3,-1
 721 463 l 1,0,-1
-123 463 m 1,4,-1
 -721 463 l 1,5,-1
 -721 627 l 1,6,-1
 -123 627 l 1,7,-1
 -123 463 l 1,4,-1
EndSplineSet
PickledDataWithLists: "(dp0
Vcom.schriftgestaltung.Glyphs.lastChange\\u000d
p1
V2019/11/18 23:05:38\\u000d
p2
s."
EndChar

StartChar: hyphen_hyphen_greater.liga
Encoding: 58 -1 58
GlifName: hyphen_hyphen_greater.liga
Width: 1126
Flags: W
HStem: 463 164<-1706 371>
LayerCount: 2
Fore
SplineSet
-73 995 m 1,0,-1
 35 1106 l 1,1,-1
 707 545 l 1,2,-1
 35 -16 l 1,3,-1
 -73 94 l 1,4,-1
 375 463 l 1,5,-1
 -1706 463 l 1,6,-1
 -1706 627 l 1,7,-1
 371 627 l 1,8,-1
 -73 995 l 1,0,-1
EndSplineSet
PickledDataWithLists: "(dp0
Vcom.schriftgestaltung.Glyphs.lastChange\\u000d
p1
V2019/11/18 23:05:38\\u000d
p2
s."
EndChar

StartChar: hyphen_hyphen_hyphen.liga
Encoding: 59 -1 59
GlifName: hyphen_hyphen_hyphen.liga
Width: 1126
Flags: W
HStem: 463 164<-1706 -1108 -862 -264 -18 580>
LayerCount: 2
Fore
SplineSet
580 463 m 1,0,-1
 -18 463 l 1,1,-1
 -18 627 l 1,2,-1
 580 627 l 1,3,-1
 580 463 l 1,0,-1
-264 463 m 1,4,-1
 -862 463 l 1,5,-1
 -862 627 l 1,6,-1
 -264 627 l 1,7,-1
 -264 463 l 1,4,-1
-1108 463 m 1,8,-1
 -1706 463 l 1,9,-1
 -1706 627 l 1,10,-1
 -1108 627 l 1,11,-1
 -1108 463 l 1,8,-1
EndSplineSet
PickledDataWithLists: "(dp0
Vcom.schriftgestaltung.Glyphs.lastChange\\u000d
p1
V2019/11/18 23:05:38\\u000d
p2
s."
EndChar

StartChar: hyphen_less.liga
Encoding: 60 -1 60
GlifName: hyphen_less.liga
Width: 1126
Flags: W
HStem: 463 164<-721 94>
LayerCount: 2
Fore
SplineSet
777 94 m 1,0,-1
 668 -16 l 1,1,-1
 94 463 l 1,2,-1
 -721 463 l 1,3,-1
 -721 627 l 1,4,-1
 94 627 l 1,5,-1
 668 1106 l 1,6,-1
 777 995 l 1,7,-1
 232 547 l 1,8,-1
 777 94 l 1,0,-1
EndSplineSet
PickledDataWithLists: "(dp0
Vcom.schriftgestaltung.Glyphs.lastChange\\u000d
p1
V2019/11/18 23:05:38\\u000d
p2
s."
EndChar

StartChar: hyphen_less_less.liga
Encoding: 61 -1 61
GlifName: hyphen_less_less.liga
Width: 1126
Flags: W
HStem: 463 164<-1706 -610>
LayerCount: 2
Fore
SplineSet
73 94 m 1,0,-1
 -36 -16 l 1,1,-1
 -610 463 l 1,2,-1
 -1706 463 l 1,3,-1
 -1706 627 l 1,4,-1
 -610 627 l 1,5,-1
 -36 1106 l 1,6,-1
 73 995 l 1,7,-1
 -472 547 l 1,8,-1
 73 94 l 1,0,-1
636 94 m 1,9,-1
 527 -16 l 1,10,-1
 -145 545 l 1,11,-1
 527 1106 l 1,12,-1
 636 995 l 1,13,-1
 91 547 l 1,14,-1
 636 94 l 1,9,-1
EndSplineSet
PickledDataWithLists: "(dp0
Vcom.schriftgestaltung.Glyphs.lastChange\\u000d
p1
V2019/11/18 23:05:38\\u000d
p2
s."
EndChar

StartChar: less_asciitilde.liga
Encoding: 62 -1 62
GlifName: less_asciitilde.liga
Width: 1126
Flags: W
HStem: 343 158<541.693 729.681> 448 160<-506.934 -43.4329> 461 163<-510 -235.078 -227.855 -17.2459> 595 158<100.489 304.307>
VStem: 760 160<532.447 696>
LayerCount: 2
Fore
SplineSet
920 696 m 1,0,-1
 920 683 l 2,1,2
 920 529 920 529 849 436 c 128,-1,3
 778 343 778 343 638 343 c 0,4,5
 543 343 543 343 458 408 c 0,6,7
 436 424 436 424 415 443.5 c 128,-1,8
 394 463 394 463 365 491.5 c 128,-1,9
 336 520 336 520 326 530 c 0,10,11
 305 550 305 550 291 561.5 c 128,-1,12
 277 573 277 573 252.5 584 c 128,-1,13
 228 595 228 595 202 595 c 0,14,15
 179 595 179 595 73.5 536 c 128,-1,16
 -32 477 -32 477 -49 472 c 0,17,18
 -135 448 -135 448 -232 448 c 0,19,20
 -237 448 -237 448 -510 461 c 1,21,-1
 -68 95 l 1,22,-1
 -176 -16 l 1,23,-1
 -848 545 l 1,24,-1
 -176 1106 l 1,25,-1
 -68 996 l 1,26,-1
 -519 624 l 1,27,28
 -479 622 -479 622 -375.5 615 c 128,-1,29
 -272 608 -272 608 -230 608 c 0,30,31
 -161 608 -161 608 -112 620 c 0,32,33
 -87 626 -87 626 -5.5 674.5 c 128,-1,34
 76 723 76 723 84 727 c 0,35,36
 136 753 136 753 208 753 c 0,37,38
 303 753 303 753 388 688 c 0,39,40
 410 672 410 672 431 652.5 c 128,-1,41
 452 633 452 633 481 604.5 c 128,-1,42
 510 576 510 576 520 566 c 0,43,44
 541 546 541 546 555 534.5 c 128,-1,45
 569 523 569 523 593.5 512 c 128,-1,46
 618 501 618 501 644 501 c 0,47,48
 710 501 710 501 735 552.5 c 128,-1,49
 760 604 760 604 760 696 c 1,50,-1
 920 696 l 1,0,-1
EndSplineSet
PickledDataWithLists: "(dp0
Vcom.schriftgestaltung.Glyphs.lastChange\\u000d
p1
V2019/11/18 23:07:02\\u000d
p2
s."
EndChar

StartChar: less_asciitilde_asciitilde.liga
Encoding: 63 -1 63
GlifName: less_asciitilde_asciitilde.liga
Width: 1126
Flags: W
HStem: 344 158<-637.615 -420.795 345.553 573.434> 448 166<-1487 -1284.57> 595 159<-1147.48 -914.578 -148.127 70.447>
VStem: 619 159<550.719 696>
LayerCount: 2
Fore
SplineSet
778 696 m 5,0,1
 778 532 778 532 695 438 c 128,-1,2
 612 344 612 344 454 344 c 0,3,4
 393 344 393 344 341.5 361 c 128,-1,5
 290 378 290 378 250.5 406 c 128,-1,6
 211 434 211 434 177.5 463.5 c 128,-1,7
 144 493 144 493 104 526 c 128,-1,8
 64 559 64 559 28 578 c 0,9,10
 -6 596 -6 596 -38 596 c 0,11,12
 -64 596 -64 596 -91.5 584.5 c 128,-1,13
 -119 573 -119 573 -134.5 562 c 128,-1,14
 -150 551 -150 551 -174 531 c 0,15,16
 -187 521 -187 521 -227 486 c 128,-1,17
 -267 451 -267 451 -287.5 435 c 128,-1,18
 -308 419 -308 419 -345 396.5 c 128,-1,19
 -382 374 -382 374 -417 362 c 0,20,21
 -468 344 -468 344 -526 344 c 0,22,23
 -576 344 -576 344 -619.5 354 c 128,-1,24
 -663 364 -663 364 -703 388.5 c 128,-1,25
 -743 413 -743 413 -765.5 429 c 128,-1,26
 -788 445 -788 445 -830.5 482.5 c 128,-1,27
 -873 520 -873 520 -886 531 c 0,28,29
 -911 551 -911 551 -927 562.5 c 128,-1,30
 -943 574 -943 574 -971 584.5 c 128,-1,31
 -999 595 -999 595 -1028 595 c 0,32,33
 -1048 595 -1048 595 -1069.5 588.5 c 128,-1,34
 -1091 582 -1091 582 -1104.5 575 c 128,-1,35
 -1118 568 -1118 568 -1140.5 555 c 128,-1,36
 -1163 542 -1163 542 -1171 538 c 0,37,38
 -1180 533 -1180 533 -1214.5 514 c 128,-1,39
 -1249 495 -1249 495 -1261.5 489.5 c 128,-1,40
 -1274 484 -1274 484 -1301.5 472 c 128,-1,41
 -1329 460 -1329 460 -1353.5 455 c 128,-1,42
 -1378 450 -1378 450 -1407 448 c 0,43,44
 -1409.8740256 447.808398293 -1409.8740256 447.808398293 -1413.58558138 447.808398293 c 0,45,46
 -1438.09710839 447.808398293 -1438.09710839 447.808398293 -1487 455 c 1,47,-1
 -1052 94 l 1,48,-1
 -1161 -16 l 1,49,-1
 -1833 545 l 1,50,-1
 -1161 1106 l 1,51,-1
 -1052 995 l 1,52,-1
 -1507 621 l 1,53,54
 -1420.95927641 612.805645371 -1420.95927641 612.805645371 -1405.4826295 612.805645371 c 0,55,56
 -1393.3604824 612.805645371 -1393.3604824 612.805645371 -1385 614 c 0,57,58
 -1354 618 -1354 618 -1312.5 641 c 128,-1,59
 -1271 664 -1271 664 -1234 689 c 128,-1,60
 -1197 714 -1197 714 -1140.5 734 c 128,-1,61
 -1084 754 -1084 754 -1025 754 c 0,62,63
 -951 754 -951 754 -886.5 727 c 128,-1,64
 -822 700 -822 700 -782.5 665.5 c 128,-1,65
 -743 631 -743 631 -690 586.5 c 128,-1,66
 -637 542 -637 542 -595 520 c 0,67,68
 -560 502 -560 502 -529 502 c 0,69,70
 -503 502 -503 502 -475.5 514 c 128,-1,71
 -448 526 -448 526 -435 535.5 c 128,-1,72
 -422 545 -422 545 -395 567 c 0,73,74
 -380 579 -380 579 -348.5 607.5 c 128,-1,75
 -317 636 -317 636 -298 651.5 c 128,-1,76
 -279 667 -279 667 -246.5 689.5 c 128,-1,77
 -214 712 -214 712 -186 724 c 128,-1,78
 -158 736 -158 736 -119 745 c 128,-1,79
 -80 754 -80 754 -38 754 c 0,80,81
 23 754 23 754 74.5 737 c 128,-1,82
 126 720 126 720 165.5 692 c 128,-1,83
 205 664 205 664 238.5 634.5 c 128,-1,84
 272 605 272 605 312 572 c 128,-1,85
 352 539 352 539 388 520 c 0,86,87
 422 502 422 502 461 502 c 0,88,89
 545 502 545 502 576 548 c 0,90,91
 619 611 619 611 619 696 c 1,92,-1
 778 696 l 5,0,1
EndSplineSet
PickledDataWithLists: "(dp0
Vcom.schriftgestaltung.Glyphs.lastChange\\u000d
p1
V2019/11/18 23:07:02\\u000d
p2
s."
EndChar

StartChar: less_asciitilde_greater.liga
Encoding: 64 -1 64
GlifName: less_asciitilde_greater.liga
Width: 1126
Flags: W
HStem: 344 158<-443.064 -252.626> 596 158<-870.525 -682.936>
VStem: -1060 160<401 565.522> -225 160<526.649 696>
LayerCount: 2
Fore
SplineSet
-342 502 m 4,0,1
 -273 502 -273 502 -249 551.5 c 128,-1,2
 -225 601 -225 601 -225 696 c 1,3,-1
 -65 696 l 1,4,5
 -64.9473197332 691.838258919 -64.9473197332 691.838258919 -64.9473359775 687.716398736 c 0,6,7
 -64.9473359775 572.002283419 -64.9473359775 572.002283419 -105.558306914 490.458822247 c 128,-1,8
 -146.16927785 408.915361076 -146.16927785 408.915361076 -224 370 c 0,9,10
 -276 344 -276 344 -348 344 c 0,11,12
 -414 344 -414 344 -470.5 371 c 128,-1,13
 -527 398 -527 398 -560.5 432.5 c 128,-1,14
 -594 467 -594 467 -639.5 511.5 c 128,-1,15
 -685 556 -685 556 -720 578 c 0,16,17
 -750 596 -750 596 -784 596 c 0,18,19
 -850 596 -850 596 -875 544.5 c 128,-1,20
 -900 493 -900 493 -900 401 c 1,21,-1
 -1060 401 l 1,22,23
 -1060.19741344 408.748477454 -1060.19741344 408.748477454 -1060.19718192 416.369333994 c 0,24,25
 -1060.19718192 528.439669815 -1060.19718192 528.439669815 -1019.15191521 609.374379089 c 128,-1,26
 -978.106648499 690.309088362 -978.106648499 690.309088362 -902 728 c 0,27,28
 -850 754 -850 754 -778 754 c 0,29,30
 -712 754 -712 754 -655.5 727 c 128,-1,31
 -599 700 -599 700 -565.5 665.5 c 128,-1,32
 -532 631 -532 631 -486.5 586.5 c 128,-1,33
 -441 542 -441 542 -406 520 c 0,34,35
 -376 502 -376 502 -342 502 c 4,0,1
-860 985 m 5,36,-1
 -1655 543 l 1,37,-1
 -860 104 l 1,38,-1
 -948 -16 l 1,39,-1
 -1970 545 l 1,40,-1
 -948 1106 l 1,41,-1
 -860 985 l 5,36,-1
-266 985 m 5,42,-1
 -178 1106 l 1,43,-1
 844 545 l 1,44,-1
 -178 -16 l 1,45,-1
 -266 104 l 1,46,-1
 529 543 l 1,47,-1
 -266 985 l 5,42,-1
EndSplineSet
PickledDataWithLists: "(dp0
Vcom.schriftgestaltung.Glyphs.lastChange\\u000d
p1
V2019/11/18 23:05:38\\u000d
p2
s."
EndChar

StartChar: less_asterisk.liga
Encoding: 65 -1 65
GlifName: less_asterisk.liga
Width: 1126
Flags: W
LayerCount: 2
Fore
SplineSet
811 394 m 5,0,-1
 743 275 l 1,1,-1
 462 461 l 1,2,-1
 485 119 l 1,3,-1
 342 119 l 1,4,-1
 364 461 l 1,5,-1
 77 275 l 1,6,-1
 14 392 l 1,7,-1
 321 543 l 1,8,-1
 14 697 l 1,9,-1
 83 814 l 1,10,-1
 366 625 l 1,11,-1
 342 967 l 1,12,-1
 485 967 l 1,13,-1
 460 625 l 1,14,-1
 743 816 l 1,15,-1
 813 693 l 1,16,-1
 505 541 l 1,17,-1
 811 394 l 5,0,-1
143 985 m 5,18,-1
 -652 543 l 1,19,-1
 143 104 l 1,20,-1
 55 -16 l 1,21,-1
 -967 545 l 1,22,-1
 55 1106 l 1,23,-1
 143 985 l 5,18,-1
EndSplineSet
PickledDataWithLists: "(dp0
Vcom.schriftgestaltung.Glyphs.lastChange\\u000d
p1
V2019/11/18 23:05:38\\u000d
p2
s."
EndChar

StartChar: less_asterisk_greater.liga
Encoding: 66 -1 66
GlifName: less_asterisk_greater.liga
Width: 1126
Flags: W
LayerCount: 2
Fore
SplineSet
-174 394 m 5,0,-1
 -242 275 l 1,1,-1
 -523 461 l 1,2,-1
 -500 119 l 1,3,-1
 -643 119 l 1,4,-1
 -621 461 l 1,5,-1
 -908 275 l 1,6,-1
 -971 392 l 1,7,-1
 -664 543 l 1,8,-1
 -971 697 l 1,9,-1
 -902 814 l 1,10,-1
 -619 625 l 1,11,-1
 -643 967 l 1,12,-1
 -500 967 l 1,13,-1
 -525 625 l 1,14,-1
 -242 816 l 1,15,-1
 -172 693 l 1,16,-1
 -480 541 l 1,17,-1
 -174 394 l 5,0,-1
-860 985 m 5,18,-1
 -1655 543 l 1,19,-1
 -860 104 l 1,20,-1
 -948 -16 l 1,21,-1
 -1970 545 l 1,22,-1
 -948 1106 l 1,23,-1
 -860 985 l 5,18,-1
-266 985 m 5,24,-1
 -178 1106 l 1,25,-1
 844 545 l 1,26,-1
 -178 -16 l 1,27,-1
 -266 104 l 1,28,-1
 529 543 l 1,29,-1
 -266 985 l 5,24,-1
EndSplineSet
PickledDataWithLists: "(dp0
Vcom.schriftgestaltung.Glyphs.lastChange\\u000d
p1
V2019/11/18 23:05:38\\u000d
p2
s."
EndChar

StartChar: less_bar.liga
Encoding: 67 -1 67
GlifName: less_bar.liga
Width: 1126
Flags: W
VStem: 340 164<-14 1102>
LayerCount: 2
Fore
SplineSet
504 -272 m 1,0,-1
 -985 545 l 1,1,-1
 504 1364 l 1,2,-1
 504 -272 l 1,0,-1
340 -14 m 1,3,-1
 340 1102 l 1,4,-1
 -670 543 l 1,5,-1
 340 -14 l 1,3,-1
EndSplineSet
PickledDataWithLists: "(dp0
Vcom.schriftgestaltung.Glyphs.lastChange\\u000d
p1
V2019/11/18 23:05:38\\u000d
p2
s."
EndChar

StartChar: less_bar_bar.liga
Encoding: 68 -1 68
GlifName: less_bar_bar.liga
Width: 1126
Flags: W
VStem: -645 164<-14 1102> 199 164<-272 1364>
LayerCount: 2
Fore
SplineSet
-481 -272 m 1,0,-1
 -1970 545 l 1,1,-1
 -481 1364 l 1,2,-1
 -481 -272 l 1,0,-1
-645 -14 m 1,3,-1
 -645 1102 l 1,4,-1
 -1655 543 l 1,5,-1
 -645 -14 l 1,3,-1
199 -272 m 1,6,-1
 199 1364 l 1,7,-1
 363 1364 l 1,8,-1
 363 -272 l 1,9,-1
 199 -272 l 1,6,-1
EndSplineSet
PickledDataWithLists: "(dp0
Vcom.schriftgestaltung.Glyphs.lastChange\\u000d
p1
V2019/11/18 23:05:38\\u000d
p2
s."
EndChar

StartChar: less_bar_bar_bar.liga
Encoding: 69 -1 69
GlifName: less_bar_bar_bar.liga
Width: 1126
Flags: W
VStem: -1630 164<-14 1102> -786 164<-272 1364> 58 164<-272 1364>
CounterMasks: 1 e0
LayerCount: 2
Fore
SplineSet
-786 -272 m 1,0,-1
 -786 1364 l 1,1,-1
 -622 1364 l 1,2,-1
 -622 -272 l 1,3,-1
 -786 -272 l 1,0,-1
58 -272 m 1,4,-1
 58 1364 l 1,5,-1
 222 1364 l 1,6,-1
 222 -272 l 1,7,-1
 58 -272 l 1,4,-1
-1466 -272 m 1,8,-1
 -2955 545 l 1,9,-1
 -1466 1364 l 1,10,-1
 -1466 -272 l 1,8,-1
-1630 -14 m 1,11,-1
 -1630 1102 l 1,12,-1
 -2640 543 l 1,13,-1
 -1630 -14 l 1,11,-1
EndSplineSet
PickledDataWithLists: "(dp0
Vcom.schriftgestaltung.Glyphs.lastChange\\u000d
p1
V2019/11/18 23:05:38\\u000d
p2
s."
EndChar

StartChar: less_bar_greater.liga
Encoding: 70 -1 70
GlifName: less_bar_greater.liga
Width: 1126
Flags: W
VStem: -645 164<-410 1638>
LayerCount: 2
Fore
SplineSet
-481 -410 m 1,0,-1
 -645 -410 l 1,1,-1
 -645 1638 l 1,2,-1
 -481 1638 l 1,3,-1
 -481 -410 l 1,0,-1
-860 985 m 1,4,-1
 -1655 543 l 1,5,-1
 -860 104 l 1,6,-1
 -948 -16 l 1,7,-1
 -1970 545 l 1,8,-1
 -948 1106 l 1,9,-1
 -860 985 l 1,4,-1
-266 985 m 1,10,-1
 -178 1106 l 1,11,-1
 844 545 l 1,12,-1
 -178 -16 l 1,13,-1
 -266 104 l 1,14,-1
 529 543 l 1,15,-1
 -266 985 l 1,10,-1
EndSplineSet
PickledDataWithLists: "(dp0
Vcom.schriftgestaltung.Glyphs.lastChange\\u000d
p1
V2019/11/18 23:05:38\\u000d
p2
s."
EndChar

StartChar: less_colon.liga
Encoding: 71 -1 71
GlifName: less_colon.liga
Width: 1126
Flags: W
HStem: -18 307<316.314 529.003> 715 307<315.087 529.003>
VStem: 269 307<25.875 241.904 758.875 975.165>
LayerCount: 2
Fore
SplineSet
422 1022 m 0,0,1
 472 1022 472 1022 509 995 c 128,-1,2
 546 968 546 968 564 927 c 0,3,4
 576 898 576 898 576 868 c 0,5,6
 576 803 576 803 531.5 759 c 128,-1,7
 487 715 487 715 422 715 c 0,8,9
 356 715 356 715 312.5 759 c 128,-1,10
 269 803 269 803 269 868 c 0,11,12
 269 918 269 918 295 954.5 c 128,-1,13
 321 991 321 991 362 1010 c 0,14,15
 389 1022 389 1022 422 1022 c 0,0,1
422 289 m 0,16,17
 472 289 472 289 509 262 c 128,-1,18
 546 235 546 235 564 194 c 0,19,20
 576 166 576 166 576 135 c 0,21,22
 576 70 576 70 531.5 26 c 128,-1,23
 487 -18 487 -18 422 -18 c 0,24,25
 356 -18 356 -18 312.5 26 c 128,-1,26
 269 70 269 70 269 135 c 0,27,28
 269 185 269 185 295 221 c 128,-1,29
 321 257 321 257 362 276 c 0,30,31
 391 289 391 289 422 289 c 0,16,17
143 985 m 1,32,-1
 -652 543 l 1,33,-1
 143 104 l 1,34,-1
 55 -16 l 1,35,-1
 -967 545 l 1,36,-1
 55 1106 l 1,37,-1
 143 985 l 1,32,-1
EndSplineSet
PickledDataWithLists: "(dp0
Vcom.schriftgestaltung.Glyphs.lastChange\\u000d
p1
V2019/11/18 23:05:38\\u000d
p2
s."
EndChar

StartChar: less_dollar.liga
Encoding: 72 -1 72
GlifName: less_dollar.liga
Width: 1126
Flags: W
HStem: 2 154<418 594.013>
VStem: -20 186<865.099 1088.46> 676 187<229.517 460.925>
LayerCount: 2
Fore
SplineSet
418 156 m 1,0,1
 535 156 535 156 605.5 204.5 c 128,-1,2
 676 253 676 253 676 352 c 0,3,4
 676 411 676 411 645 447 c 128,-1,5
 614 483 614 483 559 511 c 0,6,7
 508 537 508 537 469 551 c 1,8,-1
 418 156 l 1,0,1
406 1155 m 1,9,10
 301 1155 301 1155 233.5 1109.5 c 128,-1,11
 166 1064 166 1064 166 975 c 0,12,13
 166 906 166 906 213 862 c 128,-1,14
 260 818 260 818 355 780 c 1,15,-1
 406 1155 l 1,9,10
570 1300 m 1,16,17
 696 1287 696 1287 772 1268 c 1,18,-1
 772 1114 l 1,19,20
 622 1153 622 1153 551 1153 c 1,21,-1
 494 725 l 1,22,23
 556 701 556 701 596 683 c 128,-1,24
 636 665 636 665 685.5 637 c 128,-1,25
 735 609 735 609 771 574.5 c 128,-1,26
 807 540 807 540 831 498 c 0,27,28
 863 443 863 443 863 362 c 0,29,30
 863 229 863 229 787 149 c 128,-1,31
 711 69 711 69 587 32 c 0,32,33
 486 2 486 2 398 2 c 1,34,-1
 365 -236 l 1,35,-1
 219 -236 l 1,36,-1
 252 2 l 1,37,-1
 -848 545 l 1,38,-1
 -176 1106 l 1,39,-1
 -67 995 l 1,40,-1
 -551 596 l 1,41,-1
 276 180 l 1,42,-1
 332 606 l 1,43,44
 209 653 209 653 132 700.5 c 128,-1,45
 55 748 55 748 11 825 c 0,46,47
 -20 880 -20 880 -20 956 c 0,48,49
 -20 1073 -20 1073 48.5 1150 c 128,-1,50
 117 1227 117 1227 226 1268 c 0,51,52
 325 1305 325 1305 426 1305 c 1,53,-1
 451 1495 l 1,54,-1
 596 1495 l 1,55,-1
 570 1300 l 1,16,17
EndSplineSet
PickledDataWithLists: "(dp0
Vcom.schriftgestaltung.Glyphs.lastChange\\u000d
p1
V2019/11/18 23:07:02\\u000d
p2
s."
EndChar

StartChar: less_dollar_greater.liga
Encoding: 73 -1 73
GlifName: less_dollar_greater.liga
Width: 1126
Flags: W
HStem: 2 154<-567 -390.987> 1155 150<-748.371 -579>
VStem: -1005 186<865.099 1088.46> -309 187<229.517 460.925>
LayerCount: 2
Fore
SplineSet
-579 1155 m 1,0,1
 -684 1155 -684 1155 -751.5 1109.5 c 128,-1,2
 -819 1064 -819 1064 -819 975 c 0,3,4
 -819 906 -819 906 -772 862 c 128,-1,5
 -725 818 -725 818 -630 780 c 1,6,-1
 -579 1155 l 1,0,1
-567 156 m 1,7,8
 -450 156 -450 156 -379.5 204.5 c 128,-1,9
 -309 253 -309 253 -309 352 c 0,10,11
 -309 411 -309 411 -340 447 c 128,-1,12
 -371 483 -371 483 -426 511 c 0,13,14
 -477 537 -477 537 -516 551 c 1,15,-1
 -567 156 l 1,7,8
-437 1132 m 1,16,-1
 -491 725 l 1,17,18
 -429 701 -429 701 -389 683 c 128,-1,19
 -349 665 -349 665 -299.5 637 c 128,-1,20
 -250 609 -250 609 -214 574.5 c 128,-1,21
 -178 540 -178 540 -154 498 c 0,22,23
 -122 443 -122 443 -122 362 c 0,24,25
 -122 229 -122 229 -198 149 c 128,-1,26
 -274 69 -274 69 -398 32 c 0,27,28
 -499 2 -499 2 -587 2 c 1,29,-1
 -620 -236 l 1,30,-1
 -766 -236 l 1,31,-1
 -733 2 l 1,32,-1
 -1833 545 l 1,33,-1
 -1161 1106 l 1,34,-1
 -1052 995 l 1,35,-1
 -1536 596 l 1,36,-1
 -712 174 l 1,37,-1
 -653 606 l 1,38,39
 -776 653 -776 653 -853 700.5 c 128,-1,40
 -930 748 -930 748 -974 825 c 0,41,42
 -1005 880 -1005 880 -1005 956 c 0,43,44
 -1005 1073 -1005 1073 -936.5 1150 c 128,-1,45
 -868 1227 -868 1227 -759 1268 c 0,46,47
 -660 1305 -660 1305 -559 1305 c 1,48,-1
 -534 1495 l 1,49,-1
 -389 1495 l 1,50,-1
 -415 1300 l 1,51,-1
 707 545 l 1,52,-1
 35 -16 l 1,53,-1
 -73 94 l 1,54,-1
 454 527 l 1,55,-1
 -437 1132 l 1,16,-1
EndSplineSet
PickledDataWithLists: "(dp0
Vcom.schriftgestaltung.Glyphs.lastChange\\u000d
p1
V2019/11/18 23:05:38\\u000d
p2
s."
EndChar

StartChar: less_equal.liga
Encoding: 74 -1 74
GlifName: less_equal.liga
Width: 1126
Flags: W
LayerCount: 2
Fore
SplineSet
552 1104 m 1,0,-1
 495 1241 l 1,1,-1
 -600 778 l 1,2,-1
 495 315 l 1,3,-1
 552 452 l 1,4,-1
 -220 778 l 1,5,-1
 552 1104 l 1,0,-1
645 0 m 1,6,-1
 -645 0 l 1,7,-1
 -645 145 l 1,8,-1
 645 145 l 1,9,-1
 645 0 l 1,6,-1
EndSplineSet
PickledDataWithLists: "(dp0
Vcom.schriftgestaltung.Glyphs.lastChange\\u000d
p1
V2019/11/18 23:07:02\\u000d
p2
s."
EndChar

StartChar: less_equal_equal.liga
Encoding: 75 -1 75
GlifName: less_equal_equal.liga
Width: 1126
Flags: W
HStem: 298 147<-1301 711> 646 147<-1297 711>
LayerCount: 2
Fore
SplineSet
-1053 995 m 1,0,-1
 -1297 793 l 1,1,-1
 711 793 l 1,2,-1
 711 646 l 1,3,-1
 -1474 646 l 1,4,-1
 -1598 543 l 1,5,-1
 -1479 445 l 1,6,-1
 711 445 l 1,7,-1
 711 298 l 1,8,-1
 -1301 298 l 1,9,-1
 -1053 94 l 1,10,-1
 -1161 -16 l 1,11,-1
 -1833 545 l 1,12,-1
 -1161 1106 l 1,13,-1
 -1053 995 l 1,0,-1
EndSplineSet
PickledDataWithLists: "(dp0
Vcom.schriftgestaltung.Glyphs.lastChange\\u000d
p1
V2019/11/18 23:05:38\\u000d
p2
s."
EndChar

StartChar: less_equal_equal_greater.liga
Encoding: 76 -1 76
GlifName: less_equal_equal_greater.liga
Width: 1126
Flags: W
HStem: 298 147<-2286 34> 646 147<-2282 30>
LayerCount: 2
Fore
SplineSet
-2038 995 m 1,0,-1
 -2282 793 l 1,1,-1
 30 793 l 1,2,-1
 -214 995 l 1,3,-1
 -106 1106 l 1,4,-1
 566 545 l 1,5,-1
 -106 -16 l 1,6,-1
 -214 94 l 1,7,-1
 34 298 l 1,8,-1
 -2286 298 l 1,9,-1
 -2038 94 l 1,10,-1
 -2146 -16 l 1,11,-1
 -2818 545 l 1,12,-1
 -2146 1106 l 1,13,-1
 -2038 995 l 1,0,-1
207 646 m 1,14,-1
 -2459 646 l 1,15,-1
 -2583 543 l 1,16,-1
 -2464 445 l 1,17,-1
 212 445 l 1,18,-1
 331 543 l 1,19,-1
 207 646 l 1,14,-1
EndSplineSet
PickledDataWithLists: "(dp0
Vcom.schriftgestaltung.Glyphs.lastChange\\u000d
p1
V2019/11/18 23:05:38\\u000d
p2
s."
EndChar

StartChar: less_equal_greater.liga
Encoding: 77 -1 77
GlifName: less_equal_greater.liga
Width: 1126
Flags: W
HStem: 298 147<-1297 175> 646 147<-1298 171>
LayerCount: 2
Fore
SplineSet
-73 995 m 1,0,-1
 35 1106 l 1,1,-1
 707 545 l 1,2,-1
 35 -16 l 1,3,-1
 -73 94 l 1,4,-1
 175 298 l 1,5,-1
 -1297 298 l 1,6,-1
 -1052 94 l 1,7,-1
 -1161 -16 l 1,8,-1
 -1833 545 l 1,9,-1
 -1161 1106 l 1,10,-1
 -1052 995 l 1,11,-1
 -1298 793 l 1,12,-1
 171 793 l 1,13,-1
 -73 995 l 1,0,-1
-1474 445 m 1,14,-1
 353 445 l 1,15,-1
 472 543 l 1,16,-1
 348 646 l 1,17,-1
 -1477 646 l 1,18,-1
 -1597 547 l 1,19,-1
 -1474 445 l 1,14,-1
EndSplineSet
PickledDataWithLists: "(dp0
Vcom.schriftgestaltung.Glyphs.lastChange\\u000d
p1
V2019/11/18 23:05:38\\u000d
p2
s."
EndChar

StartChar: less_equal_less.liga
Encoding: 78 -1 78
GlifName: less_equal_less.liga
Width: 1126
Flags: W
HStem: 298 147<-1297 -25> 646 147<-1298 -24>
LayerCount: 2
Fore
SplineSet
-1052 94 m 1,0,-1
 -1161 -16 l 1,1,-1
 -1833 545 l 1,2,-1
 -1161 1106 l 1,3,-1
 -1052 995 l 1,4,-1
 -1298 793 l 1,5,-1
 152 793 l 1,6,-1
 527 1106 l 1,7,-1
 636 995 l 1,8,-1
 91 547 l 1,9,-1
 636 94 l 1,10,-1
 527 -16 l 1,11,-1
 151 298 l 1,12,-1
 -1297 298 l 1,13,-1
 -1052 94 l 1,0,-1
-24 646 m 1,14,-1
 -1477 646 l 1,15,-1
 -1597 547 l 1,16,-1
 -1474 445 l 1,17,-1
 -25 445 l 1,18,-1
 -145 545 l 1,19,-1
 -24 646 l 1,14,-1
EndSplineSet
PickledDataWithLists: "(dp0
Vcom.schriftgestaltung.Glyphs.lastChange\\u000d
p1
V2019/11/18 23:05:38\\u000d
p2
s."
EndChar

StartChar: less_exclam_hyphen_hyphen.liga
Encoding: 79 -1 79
GlifName: less_exclam_hyphen_hyphen.liga
Width: 1126
Flags: W
HStem: -18 264<-1651.76 -1449.71> 463 164<-2622 -1938 -1164 439>
VStem: -1683 264<12.7149 214.425> -1656 211<920.797 1413> -1626 154<383 875.203>
LayerCount: 2
Fore
SplineSet
-2178 94 m 1,0,-1
 -2287 -18 l 1,1,-1
 -2959 545 l 1,2,-1
 -2287 1106 l 1,3,-1
 -2178 995 l 1,4,-1
 -2626 627 l 1,5,-1
 -1938 627 l 1,6,-1
 -1938 463 l 1,7,-1
 -2622 463 l 1,8,-1
 -2178 94 l 1,0,-1
-1419 113 m 128,-1,10
 -1419 56 -1419 56 -1456 19 c 128,-1,11
 -1493 -18 -1493 -18 -1550 -18 c 0,12,13
 -1608 -18 -1608 -18 -1645.5 19 c 128,-1,14
 -1683 56 -1683 56 -1683 113 c 0,15,16
 -1683 171 -1683 171 -1645.5 208.5 c 128,-1,17
 -1608 246 -1608 246 -1550 246 c 0,18,19
 -1493 246 -1493 246 -1456 208 c 128,-1,9
 -1419 170 -1419 170 -1419 113 c 128,-1,10
-1445 1413 m 1,20,-1
 -1472 383 l 1,21,-1
 -1626 383 l 1,22,-1
 -1656 1413 l 1,23,-1
 -1445 1413 l 1,20,-1
439 463 m 1,24,-1
 -1164 463 l 1,25,-1
 -1164 627 l 1,26,-1
 439 627 l 1,27,-1
 439 463 l 1,24,-1
EndSplineSet
PickledDataWithLists: "(dp0
Vcom.schriftgestaltung.Glyphs.lastChange\\u000d
p1
V2019/11/18 23:05:38\\u000d
p2
s."
EndChar

StartChar: less_greater.liga
Encoding: 80 -1 80
GlifName: less_greater.liga
Width: 1126
Flags: W
LayerCount: 2
Fore
SplineSet
990 545 m 1,0,-1
 -0 0 l 1,1,-1
 -990 545 l 1,2,-1
 0 1088 l 1,3,-1
 990 545 l 1,0,-1
0 170 m 1,4,-1
 675 543 l 1,5,-1
 -0 918 l 1,6,-1
 -675 543 l 1,7,-1
 0 170 l 1,4,-1
EndSplineSet
PickledDataWithLists: "(dp0
Vcom.schriftgestaltung.Glyphs.lastChange\\u000d
p1
V2019/11/18 23:05:38\\u000d
p2
s."
EndChar

StartChar: less_hyphen.liga
Encoding: 81 -1 81
GlifName: less_hyphen.liga
Width: 1126
Flags: W
HStem: 463 164<-511 721>
LayerCount: 2
Fore
SplineSet
-67 94 m 1,0,-1
 -176 -16 l 1,1,-1
 -848 545 l 1,2,-1
 -176 1106 l 1,3,-1
 -67 995 l 1,4,-1
 -515 627 l 1,5,-1
 721 627 l 1,6,-1
 721 463 l 1,7,-1
 -511 463 l 1,8,-1
 -67 94 l 1,0,-1
EndSplineSet
PickledDataWithLists: "(dp0
Vcom.schriftgestaltung.Glyphs.lastChange\\u000d
p1
V2019/11/18 23:05:38\\u000d
p2
s."
EndChar

StartChar: less_hyphen_greater.liga
Encoding: 82 -1 82
GlifName: less_hyphen_greater.liga
Width: 1126
Flags: W
HStem: 463 164<-1496 371>
LayerCount: 2
Fore
SplineSet
-1052 94 m 1,0,-1
 -1161 -16 l 1,1,-1
 -1833 545 l 1,2,-1
 -1544 786.263392857 l 1,3,-1
 -1161 1106 l 1,4,-1
 -1052 995 l 1,5,-1
 -1500 627 l 1,6,-1
 371 627 l 1,7,-1
 -73 995 l 1,8,-1
 35 1106 l 1,9,-1
 707 545 l 1,10,-1
 35 -16 l 1,11,-1
 -73 94 l 1,12,-1
 375 463 l 1,13,-1
 -1496 463 l 1,14,-1
 -1052 94 l 1,0,-1
EndSplineSet
PickledDataWithLists: "(dp0
Vcom.schriftgestaltung.Glyphs.lastChange\\u000d
p1
V2019/11/18 23:05:38\\u000d
p2
s."
EndChar

StartChar: less_hyphen_hyphen.liga
Encoding: 83 -1 83
GlifName: less_hyphen_hyphen.liga
Width: 1126
Flags: W
HStem: 463 164<-1496 580>
LayerCount: 2
Fore
SplineSet
-1052 94 m 1,0,-1
 -1161 -16 l 1,1,-1
 -1833 545 l 1,2,-1
 -1161 1106 l 1,3,-1
 -1052 995 l 1,4,-1
 -1500 627 l 1,5,-1
 580 627 l 1,6,-1
 580 463 l 1,7,-1
 -1496 463 l 1,8,-1
 -1052 94 l 1,0,-1
EndSplineSet
PickledDataWithLists: "(dp0
Vcom.schriftgestaltung.Glyphs.lastChange\\u000d
p1
V2019/11/18 23:05:38\\u000d
p2
s."
EndChar

StartChar: less_hyphen_less.liga
Encoding: 84 -1 84
GlifName: less_hyphen_less.liga
Width: 1126
Flags: W
HStem: 463 164<-1496 -47>
LayerCount: 2
Fore
SplineSet
-1052 94 m 1,0,-1
 -1161 -16 l 1,1,-1
 -1833 545 l 1,2,-1
 -1161 1106 l 1,3,-1
 -1052 995 l 1,4,-1
 -1500 627 l 1,5,-1
 -47 627 l 1,6,-1
 527 1106 l 1,7,-1
 636 995 l 1,8,-1
 91 547 l 1,9,-1
 636 94 l 1,10,-1
 527 -16 l 1,11,-1
 -47 463 l 1,12,-1
 -1496 463 l 1,13,-1
 -1052 94 l 1,0,-1
EndSplineSet
PickledDataWithLists: "(dp0
Vcom.schriftgestaltung.Glyphs.lastChange\\u000d
p1
V2019/11/18 23:05:38\\u000d
p2
s."
EndChar

StartChar: less_less.liga
Encoding: 85 -1 85
GlifName: less_less.liga
Width: 1126
Flags: W
LayerCount: 2
Fore
SplineSet
125 985 m 1,0,-1
 -670 543 l 1,1,-1
 125 104 l 1,2,-1
 37 -16 l 1,3,-1
 -985 545 l 1,4,-1
 37 1106 l 1,5,-1
 125 985 l 1,0,-1
969 985 m 1,6,-1
 174 543 l 1,7,-1
 969 104 l 1,8,-1
 881 -16 l 1,9,-1
 -141 545 l 1,10,-1
 881 1106 l 1,11,-1
 969 985 l 1,6,-1
EndSplineSet
PickledDataWithLists: "(dp0
Vcom.schriftgestaltung.Glyphs.lastChange\\u000d
p1
V2019/11/18 23:05:38\\u000d
p2
s."
EndChar

StartChar: less_less_equal.liga
Encoding: 86 -1 86
GlifName: less_less_equal.liga
Width: 1126
Flags: W
HStem: 298 147<-738 711> 646 147<-734 711>
LayerCount: 2
Fore
SplineSet
-490 995 m 1,0,-1
 -734 793 l 1,1,-1
 711 793 l 1,2,-1
 711 646 l 1,3,-1
 -911 646 l 1,4,-1
 -1035 543 l 1,5,-1
 -916 445 l 1,6,-1
 711 445 l 1,7,-1
 711 298 l 1,8,-1
 -738 298 l 1,9,-1
 -490 94 l 1,10,-1
 -598 -16 l 1,11,-1
 -1270 545 l 1,12,-1
 -598 1106 l 1,13,-1
 -490 995 l 1,0,-1
-1053 995 m 1,14,-1
 -1598 543 l 1,15,-1
 -1053 94 l 1,16,-1
 -1161 -16 l 1,17,-1
 -1833 545 l 1,18,-1
 -1161 1106 l 1,19,-1
 -1053 995 l 1,14,-1
EndSplineSet
PickledDataWithLists: "(dp0
Vcom.schriftgestaltung.Glyphs.lastChange\\u000d
p1
V2019/11/18 23:05:38\\u000d
p2
s."
EndChar

StartChar: less_less_hyphen.liga
Encoding: 87 -1 87
GlifName: less_less_hyphen.liga
Width: 1126
Flags: W
HStem: 463 164<-934 580>
LayerCount: 2
Fore
SplineSet
-1053 995 m 1,0,-1
 -1598 543 l 1,1,-1
 -1053 94 l 1,2,-1
 -1161 -16 l 1,3,-1
 -1833 545 l 1,4,-1
 -1161 1106 l 1,5,-1
 -1053 995 l 1,0,-1
-934 627 m 1,6,-1
 580 627 l 1,7,-1
 580 463 l 1,8,-1
 -938 463 l 1,9,-1
 -490 94 l 1,10,-1
 -598 -16 l 1,11,-1
 -1270 545 l 1,12,-1
 -598 1106 l 1,13,-1
 -490 995 l 1,14,-1
 -934 627 l 1,6,-1
EndSplineSet
PickledDataWithLists: "(dp0
Vcom.schriftgestaltung.Glyphs.lastChange\\u000d
p1
V2019/11/18 23:05:38\\u000d
p2
s."
EndChar

StartChar: less_less_less.liga
Encoding: 88 -1 88
GlifName: less_less_less.liga
Width: 1126
Flags: W
LayerCount: 2
Fore
SplineSet
828 985 m 1,0,-1
 33 543 l 1,1,-1
 828 104 l 1,2,-1
 740 -16 l 1,3,-1
 -282 545 l 1,4,-1
 740 1106 l 1,5,-1
 828 985 l 1,0,-1
-16 985 m 1,6,-1
 -811 543 l 1,7,-1
 -16 104 l 1,8,-1
 -104 -16 l 1,9,-1
 -1126 545 l 1,10,-1
 -104 1106 l 1,11,-1
 -16 985 l 1,6,-1
-860 985 m 1,12,-1
 -1655 543 l 1,13,-1
 -860 104 l 1,14,-1
 -948 -16 l 1,15,-1
 -1970 545 l 1,16,-1
 -948 1106 l 1,17,-1
 -860 985 l 1,12,-1
EndSplineSet
PickledDataWithLists: "(dp0
Vcom.schriftgestaltung.Glyphs.lastChange\\u000d
p1
V2019/11/18 23:05:38\\u000d
p2
s."
EndChar

StartChar: less_plus.liga
Encoding: 89 -1 89
GlifName: less_plus.liga
Width: 1126
Flags: W
HStem: 469 152<-57 336 508 901>
VStem: 336 172<61 469 621 1026>
LayerCount: 2
Fore
SplineSet
901 469 m 1,0,-1
 508 469 l 1,1,-1
 508 61 l 1,2,-1
 336 61 l 1,3,-1
 336 469 l 1,4,-1
 -57 469 l 1,5,-1
 -57 621 l 1,6,-1
 336 621 l 1,7,-1
 336 1026 l 1,8,-1
 508 1026 l 1,9,-1
 508 621 l 1,10,-1
 901 621 l 1,11,-1
 901 469 l 1,0,-1
143 985 m 1,12,-1
 -652 543 l 1,13,-1
 143 104 l 1,14,-1
 55 -16 l 1,15,-1
 -967 545 l 1,16,-1
 55 1106 l 1,17,-1
 143 985 l 1,12,-1
EndSplineSet
PickledDataWithLists: "(dp0
Vcom.schriftgestaltung.Glyphs.lastChange\\u000d
p1
V2019/11/18 23:05:38\\u000d
p2
s."
EndChar

StartChar: less_plus_greater.liga
Encoding: 90 -1 90
GlifName: less_plus_greater.liga
Width: 1126
Flags: W
HStem: 469 152<-1042 -649 -477 -84>
VStem: -649 172<61 469 621 1026>
LayerCount: 2
Fore
SplineSet
-84 469 m 1,0,-1
 -477 469 l 1,1,-1
 -477 61 l 1,2,-1
 -649 61 l 1,3,-1
 -649 469 l 1,4,-1
 -1042 469 l 1,5,-1
 -1042 621 l 1,6,-1
 -649 621 l 1,7,-1
 -649 1026 l 1,8,-1
 -477 1026 l 1,9,-1
 -477 621 l 1,10,-1
 -84 621 l 1,11,-1
 -84 469 l 1,0,-1
-860 985 m 1,12,-1
 -1655 543 l 1,13,-1
 -860 104 l 1,14,-1
 -948 -16 l 1,15,-1
 -1970 545 l 1,16,-1
 -948 1106 l 1,17,-1
 -860 985 l 1,12,-1
-266 985 m 1,18,-1
 -178 1106 l 1,19,-1
 844 545 l 1,20,-1
 -178 -16 l 1,21,-1
 -266 104 l 1,22,-1
 529 543 l 1,23,-1
 -266 985 l 1,18,-1
EndSplineSet
PickledDataWithLists: "(dp0
Vcom.schriftgestaltung.Glyphs.lastChange\\u000d
p1
V2019/11/18 23:05:38\\u000d
p2
s."
EndChar

StartChar: less_slash.liga
Encoding: 91 -1 91
GlifName: less_slash.liga
Width: 1126
Flags: W
LayerCount: 2
Fore
SplineSet
826 1413 m 1,0,-1
 140 -215 l 1,1,-1
 -26 -215 l 1,2,-1
 -848 545 l 1,3,-1
 -176 1106 l 1,4,-1
 -67 995 l 1,5,-1
 -595 558 l 1,6,-1
 40 -56 l 1,7,-1
 660 1413 l 1,8,-1
 826 1413 l 1,0,-1
EndSplineSet
PickledDataWithLists: "(dp0
Vcom.schriftgestaltung.Glyphs.lastChange\\u000d
p1
V2019/11/18 23:05:38\\u000d
p2
s."
EndChar

StartChar: less_slash_greater.liga
Encoding: 93 -1 93
GlifName: less_slash_greater.liga
Width: 1126
Flags: W
LayerCount: 2
Fore
SplineSet
-230 1246 m 1,0,-1
 -845 -215 l 1,1,-1
 -1011 -215 l 1,2,-1
 -1833 545 l 1,3,-1
 -1161 1106 l 1,4,-1
 -1052 995 l 1,5,-1
 -1580 558 l 1,6,-1
 -938 -42 l 1,7,-1
 -325 1413 l 1,8,-1
 -159 1413 l 1,9,-1
 707 545 l 1,10,-1
 35 -16 l 1,11,-1
 -73 94 l 1,12,-1
 466 538 l 1,13,-1
 -230 1246 l 1,0,-1
EndSplineSet
PickledDataWithLists: "(dp0
Vcom.schriftgestaltung.Glyphs.lastChange\\u000d
p1
V2019/11/18 23:05:38\\u000d
p2
s."
EndChar

StartChar: num_num_num.liga
Encoding: 94 -1 94
GlifName: num_num_num.liga
Width: 1126
Flags: W
HStem: 0 21G<-1715 -1564.98 -1312 -1161.98 -907 -756.984 -504 -353.984 -99 51.0163 304 454.016> 367 130<-1891 -1678 -1517 -1275 -1114 -870 -709 -467 -306 -62 99 341 502 712> 847 130<-1840 -1629 -1469 -1226 -1066 -821 -661 -418 -258 -13 147 390 550 765>
LayerCount: 2
Fore
SplineSet
-1261 497 m 1,0,-1
 -1226 847 l 1,1,-1
 -1482 847 l 1,2,-1
 -1517 497 l 1,3,-1
 -1261 497 l 1,0,-1
-453 497 m 1,4,-1
 -418 847 l 1,5,-1
 -674 847 l 1,6,-1
 -709 497 l 1,7,-1
 -453 497 l 1,4,-1
355 497 m 1,8,-1
 390 847 l 1,9,-1
 134 847 l 1,10,-1
 99 497 l 1,11,-1
 355 497 l 1,8,-1
712 367 m 1,12,-1
 489 367 l 1,13,-1
 452 0 l 1,14,-1
 304 0 l 1,15,-1
 341 367 l 1,16,-1
 86 367 l 1,17,-1
 49 0 l 1,18,-1
 -99 0 l 1,19,-1
 -62 367 l 1,20,-1
 -319 367 l 1,21,-1
 -356 0 l 1,22,-1
 -504 0 l 1,23,-1
 -467 367 l 1,24,-1
 -722 367 l 1,25,-1
 -759 0 l 1,26,-1
 -907 0 l 1,27,-1
 -870 367 l 1,28,-1
 -1127 367 l 1,29,-1
 -1164 0 l 1,30,-1
 -1312 0 l 1,31,-1
 -1275 367 l 1,32,-1
 -1530 367 l 1,33,-1
 -1567 0 l 1,34,-1
 -1715 0 l 1,35,-1
 -1678 367 l 1,36,-1
 -1891 367 l 1,37,-1
 -1891 497 l 1,38,-1
 -1665 497 l 1,39,-1
 -1629 847 l 1,40,-1
 -1840 847 l 1,41,-1
 -1840 977 l 1,42,-1
 -1616 977 l 1,43,-1
 -1582 1307 l 1,44,-1
 -1436 1307 l 1,45,-1
 -1469 977 l 1,46,-1
 -1213 977 l 1,47,-1
 -1179 1307 l 1,48,-1
 -1031 1307 l 1,49,-1
 -1066 977 l 1,50,-1
 -808 977 l 1,51,-1
 -774 1307 l 1,52,-1
 -628 1307 l 1,53,-1
 -661 977 l 1,54,-1
 -405 977 l 1,55,-1
 -371 1307 l 1,56,-1
 -223 1307 l 1,57,-1
 -258 977 l 1,58,-1
 0 977 l 1,59,-1
 34 1307 l 1,60,-1
 180 1307 l 1,61,-1
 147 977 l 1,62,-1
 403 977 l 1,63,-1
 437 1307 l 1,64,-1
 585 1307 l 1,65,-1
 550 977 l 1,66,-1
 765 977 l 1,67,-1
 765 847 l 1,68,-1
 537 847 l 1,69,-1
 502 497 l 1,70,-1
 712 497 l 1,71,-1
 712 367 l 1,12,-1
-821 847 m 1,72,-1
 -1079 847 l 1,73,-1
 -1114 497 l 1,74,-1
 -857 497 l 1,75,-1
 -821 847 l 1,72,-1
-13 847 m 1,76,-1
 -271 847 l 1,77,-1
 -306 497 l 1,78,-1
 -49 497 l 1,79,-1
 -13 847 l 1,76,-1
EndSplineSet
PickledDataWithLists: "(dp0
Vcom.schriftgestaltung.Glyphs.lastChange\\u000d
p1
V2019/11/18 23:05:38\\u000d
p2
s."
EndChar

StartChar: num_num_num_num.liga
Encoding: 95 -1 95
GlifName: num_num_num_num.liga
Width: 1126
Flags: W
HStem: 0 21G<-2682 -2531.98 -2279 -2128.98 -1874 -1723.98 -1471 -1320.98 -1066 -915.984 -663 -512.984 -258 -107.984 145 295.016> 367 130<-2858 -2645 -2484 -2242 -2081 -1837 -1676 -1434 -1273 -1029 -868 -626 -465 -221 -60 182 343 553> 847 130<-2807 -2596 -2436 -2193 -2033 -1788 -1628 -1385 -1225 -980 -820 -577 -417 -172 -12 231 391 606>
LayerCount: 2
Fore
SplineSet
-2228 497 m 1,0,-1
 -2193 847 l 1,1,-1
 -2449 847 l 1,2,-1
 -2484 497 l 1,3,-1
 -2228 497 l 1,0,-1
-1420 497 m 1,4,-1
 -1385 847 l 1,5,-1
 -1641 847 l 1,6,-1
 -1676 497 l 1,7,-1
 -1420 497 l 1,4,-1
196 497 m 1,8,-1
 231 847 l 1,9,-1
 -25 847 l 1,10,-1
 -60 497 l 1,11,-1
 196 497 l 1,8,-1
553 367 m 1,12,-1
 330 367 l 1,13,-1
 293 0 l 1,14,-1
 145 0 l 1,15,-1
 182 367 l 1,16,-1
 -73 367 l 1,17,-1
 -110 0 l 1,18,-1
 -258 0 l 1,19,-1
 -221 367 l 1,20,-1
 -478 367 l 1,21,-1
 -515 0 l 1,22,-1
 -663 0 l 1,23,-1
 -626 367 l 1,24,-1
 -881 367 l 1,25,-1
 -918 0 l 1,26,-1
 -1066 0 l 1,27,-1
 -1029 367 l 1,28,-1
 -1286 367 l 1,29,-1
 -1323 0 l 1,30,-1
 -1471 0 l 1,31,-1
 -1434 367 l 1,32,-1
 -1689 367 l 1,33,-1
 -1726 0 l 1,34,-1
 -1874 0 l 1,35,-1
 -1837 367 l 1,36,-1
 -2094 367 l 1,37,-1
 -2131 0 l 1,38,-1
 -2279 0 l 1,39,-1
 -2242 367 l 1,40,-1
 -2497 367 l 1,41,-1
 -2534 0 l 1,42,-1
 -2682 0 l 1,43,-1
 -2645 367 l 1,44,-1
 -2858 367 l 1,45,-1
 -2858 497 l 1,46,-1
 -2632 497 l 1,47,-1
 -2596 847 l 1,48,-1
 -2807 847 l 1,49,-1
 -2807 977 l 1,50,-1
 -2583 977 l 1,51,-1
 -2549 1307 l 1,52,-1
 -2403 1307 l 1,53,-1
 -2436 977 l 1,54,-1
 -2180 977 l 1,55,-1
 -2146 1307 l 1,56,-1
 -1998 1307 l 1,57,-1
 -2033 977 l 1,58,-1
 -1775 977 l 1,59,-1
 -1741 1307 l 1,60,-1
 -1595 1307 l 1,61,-1
 -1628 977 l 1,62,-1
 -1372 977 l 1,63,-1
 -1338 1307 l 1,64,-1
 -1190 1307 l 1,65,-1
 -1225 977 l 1,66,-1
 -967 977 l 1,67,-1
 -933 1307 l 1,68,-1
 -787 1307 l 1,69,-1
 -820 977 l 1,70,-1
 -564 977 l 1,71,-1
 -530 1307 l 1,72,-1
 -382 1307 l 1,73,-1
 -417 977 l 1,74,-1
 -159 977 l 1,75,-1
 -125 1307 l 1,76,-1
 21 1307 l 1,77,-1
 -12 977 l 1,78,-1
 244 977 l 1,79,-1
 278 1307 l 1,80,-1
 426 1307 l 1,81,-1
 391 977 l 1,82,-1
 606 977 l 1,83,-1
 606 847 l 1,84,-1
 378 847 l 1,85,-1
 343 497 l 1,86,-1
 553 497 l 1,87,-1
 553 367 l 1,12,-1
-612 497 m 1,88,-1
 -577 847 l 1,89,-1
 -833 847 l 1,90,-1
 -868 497 l 1,91,-1
 -612 497 l 1,88,-1
-1788 847 m 1,92,-1
 -2046 847 l 1,93,-1
 -2081 497 l 1,94,-1
 -1824 497 l 1,95,-1
 -1788 847 l 1,92,-1
-465 497 m 1,96,-1
 -208 497 l 1,97,-1
 -172 847 l 1,98,-1
 -430 847 l 1,99,-1
 -465 497 l 1,96,-1
-980 847 m 1,100,-1
 -1238 847 l 1,101,-1
 -1273 497 l 1,102,-1
 -1016 497 l 1,103,-1
 -980 847 l 1,100,-1
EndSplineSet
PickledDataWithLists: "(dp0
Vcom.schriftgestaltung.Glyphs.lastChange\\u000d
p1
V2019/11/18 23:05:38\\u000d
p2
s."
EndChar

StartChar: num_under_parenleft.liga
Encoding: 96 -1 96
GlifName: num_under_parenleft.liga
Width: 1126
Flags: W
HStem: -410 144<-1226 330> 0 21G<-1751 -1600.98> 367 130<-1927 -1714 -1553 -1311 -1150 -940> 847 130<-1876 -1665 -1505 -1262 -1102 -887>
VStem: 18 178<235.99 837.896>
LayerCount: 2
Fore
SplineSet
-1297 497 m 1,0,-1
 -1262 847 l 1,1,-1
 -1518 847 l 1,2,-1
 -1553 497 l 1,3,-1
 -1297 497 l 1,0,-1
-940 367 m 1,4,-1
 -1163 367 l 1,5,-1
 -1226 -266 l 1,6,-1
 330 -266 l 1,7,8
 18 98 18 98 18 524 c 0,9,10
 18 775 18 775 122 1007 c 0,11,12
 234 1258 234 1258 483 1489 c 1,13,-1
 584 1386 l 1,14,15
 196 1004 196 1004 196 537 c 0,16,17
 196 307 196 307 294 91 c 0,18,19
 390 -121 390 -121 584 -313 c 1,20,-1
 468 -410 l 1,21,-1
 -1388 -410 l 1,22,-1
 -1311 367 l 1,23,-1
 -1566 367 l 1,24,-1
 -1603 0 l 1,25,-1
 -1751 0 l 1,26,-1
 -1714 367 l 1,27,-1
 -1927 367 l 1,28,-1
 -1927 497 l 1,29,-1
 -1701 497 l 1,30,-1
 -1665 847 l 1,31,-1
 -1876 847 l 1,32,-1
 -1876 977 l 1,33,-1
 -1652 977 l 1,34,-1
 -1618 1307 l 1,35,-1
 -1472 1307 l 1,36,-1
 -1505 977 l 1,37,-1
 -1249 977 l 1,38,-1
 -1215 1307 l 1,39,-1
 -1067 1307 l 1,40,-1
 -1102 977 l 1,41,-1
 -887 977 l 1,42,-1
 -887 847 l 1,43,-1
 -1115 847 l 1,44,-1
 -1150 497 l 1,45,-1
 -940 497 l 1,46,-1
 -940 367 l 1,4,-1
EndSplineSet
PickledDataWithLists: "(dp0
Vcom.schriftgestaltung.Glyphs.lastChange\\u000d
p1
V2019/11/18 23:05:38\\u000d
p2
s."
EndChar

StartChar: numbersign_braceleft.liga
Encoding: 97 -1 97
GlifName: numbersign_braceleft.liga
Width: 1126
Flags: W
HStem: -410 140<543.326 756> 0 21G<-766 -615.984 -363 -212.984> 367 130<-942 -729 -568 -326 -165 236.899> 847 130<-891 -680 -520 -277 -117 301> 1308 140<543.326 756>
VStem: 301 166<-197.681 304.16 550.477 847 977 1236.79>
LayerCount: 2
Fore
SplineSet
301 1083 m 2,0,1
 301 1269 301 1269 396 1358.5 c 128,-1,2
 491 1448 491 1448 682 1448 c 2,3,-1
 756 1448 l 1,4,-1
 756 1308 l 1,5,-1
 697 1308 l 2,6,7
 465 1308 465 1308 465 1083 c 2,8,-1
 465 702 l 2,9,10
 465 463 465 463 254 432 c 1,11,12
 359 432 359 432 413 361.5 c 128,-1,13
 467 291 467 291 467 162 c 2,14,-1
 467 -41 l 2,15,16
 467 -270 467 -270 697 -270 c 2,17,-1
 756 -270 l 1,18,-1
 756 -410 l 1,19,-1
 682 -410 l 2,20,21
 491 -410 491 -410 396 -320.5 c 128,-1,22
 301 -231 301 -231 301 -45 c 2,23,-1
 301 160 l 2,24,25
 301 272 301 272 243 319.5 c 128,-1,26
 185 367 185 367 64 367 c 2,27,-1
 -178 367 l 1,28,-1
 -215 0 l 1,29,-1
 -363 0 l 1,30,-1
 -326 367 l 1,31,-1
 -581 367 l 1,32,-1
 -618 0 l 1,33,-1
 -766 0 l 1,34,-1
 -729 367 l 1,35,-1
 -942 367 l 1,36,-1
 -942 497 l 1,37,-1
 -716 497 l 1,38,-1
 -680 847 l 1,39,-1
 -891 847 l 1,40,-1
 -891 977 l 1,41,-1
 -667 977 l 1,42,-1
 -633 1308 l 1,43,-1
 -487 1308 l 1,44,-1
 -520 977 l 1,45,-1
 -264 977 l 1,46,-1
 -230 1308 l 1,47,-1
 -82 1308 l 1,48,-1
 -117 977 l 1,49,-1
 301 977 l 1,50,-1
 301 1083 l 2,0,1
-312 497 m 1,51,-1
 -277 847 l 1,52,-1
 -533 847 l 1,53,-1
 -568 497 l 1,54,-1
 -312 497 l 1,51,-1
301 847 m 1,55,-1
 -130 847 l 1,56,-1
 -165 497 l 1,57,-1
 64 497 l 2,58,59
 162 497 162 497 218 521 c 128,-1,60
 274 545 274 545 291 608 c 0,61,62
 301 644 301 644 301 698 c 2,63,-1
 301 847 l 1,55,-1
EndSplineSet
PickledDataWithLists: "(dp0
Vcom.schriftgestaltung.Glyphs.lastChange\\u000d
p1
V2019/11/18 23:07:02\\u000d
p2
s."
EndChar

StartChar: numbersign_bracketleft.liga
Encoding: 98 -1 98
GlifName: numbersign_bracketleft.liga
Width: 1126
Flags: W
HStem: -410 140<370 697> 0 21G<-766 -615.984 -363 -212.984> 367 130<-942 -729 -568 -326 -165 204> 847 130<-891 -680 -520 -277 -117 204> 1308 140<370 697>
VStem: 204 166<-270 367 497 847 977 1308>
LayerCount: 2
Fore
SplineSet
-312 497 m 1,0,-1
 -277 847 l 1,1,-1
 -533 847 l 1,2,-1
 -568 497 l 1,3,-1
 -312 497 l 1,0,-1
697 -410 m 1,4,-1
 204 -410 l 1,5,-1
 204 367 l 1,6,-1
 -178 367 l 1,7,-1
 -215 0 l 1,8,-1
 -363 0 l 1,9,-1
 -326 367 l 1,10,-1
 -581 367 l 1,11,-1
 -618 0 l 1,12,-1
 -766 0 l 1,13,-1
 -729 367 l 1,14,-1
 -942 367 l 1,15,-1
 -942 497 l 1,16,-1
 -716 497 l 1,17,-1
 -680 847 l 1,18,-1
 -891 847 l 1,19,-1
 -891 977 l 1,20,-1
 -667 977 l 1,21,-1
 -633 1308 l 1,22,-1
 -487 1308 l 1,23,-1
 -520 977 l 1,24,-1
 -264 977 l 1,25,-1
 -230 1308 l 1,26,-1
 -82 1308 l 1,27,-1
 -117 977 l 1,28,-1
 204 977 l 1,29,-1
 204 1448 l 1,30,-1
 697 1448 l 1,31,-1
 697 1308 l 1,32,-1
 370 1308 l 1,33,-1
 370 -270 l 1,34,-1
 697 -270 l 1,35,-1
 697 -410 l 1,4,-1
204 847 m 1,36,-1
 -130 847 l 1,37,-1
 -165 497 l 1,38,-1
 204 497 l 1,39,-1
 204 847 l 1,36,-1
EndSplineSet
PickledDataWithLists: "(dp0
Vcom.schriftgestaltung.Glyphs.lastChange\\u000d
p1
V2019/11/18 23:05:38\\u000d
p2
s."
EndChar

StartChar: numbersign_colon.liga
Encoding: 99 -1 99
GlifName: numbersign_colon.liga
Width: 1126
Flags: W
HStem: -18 307<316.561 529.003> 0 21G<-766 -615.984 -363 -212.984> 367 130<-942 -729 -568 -326 -165 45> 715 307<315.108 531.625> 847 130<-891 -680 -520 -277 -117 98>
VStem: 269 307<28.4731 241.617 761.473 974.617>
LayerCount: 2
Fore
SplineSet
45 367 m 1,0,-1
 -178 367 l 1,1,-1
 -215 0 l 1,2,-1
 -363 0 l 1,3,-1
 -326 367 l 1,4,-1
 -581 367 l 1,5,-1
 -618 0 l 1,6,-1
 -766 0 l 1,7,-1
 -729 367 l 1,8,-1
 -942 367 l 1,9,-1
 -942 497 l 1,10,-1
 -716 497 l 1,11,-1
 -680 847 l 1,12,-1
 -891 847 l 1,13,-1
 -891 977 l 1,14,-1
 -667 977 l 1,15,-1
 -633 1307 l 1,16,-1
 -487 1307 l 1,17,-1
 -520 977 l 1,18,-1
 -264 977 l 1,19,-1
 -230 1307 l 1,20,-1
 -82 1307 l 1,21,-1
 -117 977 l 1,22,-1
 98 977 l 1,23,-1
 98 847 l 1,24,-1
 -130 847 l 1,25,-1
 -165 497 l 1,26,-1
 45 497 l 1,27,-1
 45 367 l 1,0,-1
-312 497 m 1,28,-1
 -277 847 l 1,29,-1
 -533 847 l 1,30,-1
 -568 497 l 1,31,-1
 -312 497 l 1,28,-1
422 1022 m 0,32,33
 487 1022 487 1022 531.5 977.5 c 128,-1,34
 576 933 576 933 576 868 c 128,-1,35
 576 803 576 803 531.5 759 c 128,-1,36
 487 715 487 715 422 715 c 0,37,38
 372 715 372 715 335.5 741.5 c 128,-1,39
 299 768 299 768 281 808 c 0,40,41
 269 835 269 835 269 868 c 0,42,43
 269 918 269 918 295.5 955 c 128,-1,44
 322 992 322 992 363 1010 c 0,45,46
 390 1022 390 1022 422 1022 c 0,32,33
422 289 m 0,47,48
 486 289 486 289 531 244.5 c 128,-1,49
 576 200 576 200 576 135 c 128,-1,50
 576 70 576 70 531.5 26 c 128,-1,51
 487 -18 487 -18 422 -18 c 0,52,53
 372 -18 372 -18 335.5 8.5 c 128,-1,54
 299 35 299 35 281 76 c 0,55,56
 269 103 269 103 269 135 c 0,57,58
 269 185 269 185 295.5 221.5 c 128,-1,59
 322 258 322 258 363 276 c 0,60,61
 392 289 392 289 422 289 c 0,47,48
EndSplineSet
PickledDataWithLists: "(dp0
Vcom.schriftgestaltung.Glyphs.lastChange\\u000d
p1
V2019/11/18 23:05:38\\u000d
p2
s."
EndChar

StartChar: numbersign_equal.liga
Encoding: 100 -1 100
GlifName: numbersign_equal.liga
Width: 1126
Flags: W
HStem: 0 21G<-766 -615.984 -363 -212.987> 298 147<-170 852> 367 130<-942 -729 -568 -326> 646 147<-134 852> 847 130<-891 -680 -520 -277>
LayerCount: 2
Fore
SplineSet
-312 497 m 1,0,-1
 -277 847 l 1,1,-1
 -533 847 l 1,2,-1
 -568 497 l 1,3,-1
 -312 497 l 1,0,-1
-215 0 m 1,4,-1
 -363 0 l 1,5,-1
 -326 367 l 1,6,-1
 -581 367 l 1,7,-1
 -618 0 l 1,8,-1
 -766 0 l 1,9,-1
 -729 367 l 1,10,-1
 -942 367 l 1,11,-1
 -942 497 l 1,12,-1
 -716 497 l 1,13,-1
 -680 847 l 1,14,-1
 -891 847 l 1,15,-1
 -891 977 l 1,16,-1
 -667 977 l 1,17,-1
 -633 1307 l 1,18,-1
 -487 1307 l 1,19,-1
 -520 977 l 1,20,-1
 -264 977 l 1,21,-1
 -230 1307 l 1,22,-1
 -82 1307 l 1,23,-1
 -134 793 l 1,24,-1
 852 793 l 1,25,-1
 852 646 l 1,26,-1
 -149 646 l 1,27,-1
 -170 445 l 1,28,-1
 852 445 l 1,29,-1
 852 298 l 1,30,-1
 -185 298 l 1,31,-1
 -215 0 l 1,4,-1
EndSplineSet
PickledDataWithLists: "(dp0
Vcom.schriftgestaltung.Glyphs.lastChange\\u000d
p1
V2019/11/18 23:05:38\\u000d
p2
s."
EndChar

StartChar: numbersign_exclam.liga
Encoding: 101 -1 101
GlifName: numbersign_exclam.liga
Width: 1126
Flags: W
HStem: -18 264<318.912 517.897> 0 21G<-766 -615.984 -363 -212.984> 367 130<-942 -729 -568 -326 -165 45> 847 130<-891 -680 -520 -277 -117 98>
VStem: 287 264<15.1032 214.088> 314 211<920.797 1413> 344 154<383 875.203>
LayerCount: 2
Fore
SplineSet
45 367 m 1,0,-1
 -178 367 l 1,1,-1
 -215 0 l 1,2,-1
 -363 0 l 1,3,-1
 -326 367 l 1,4,-1
 -581 367 l 1,5,-1
 -618 0 l 1,6,-1
 -766 0 l 1,7,-1
 -729 367 l 1,8,-1
 -942 367 l 1,9,-1
 -942 497 l 1,10,-1
 -716 497 l 1,11,-1
 -680 847 l 1,12,-1
 -891 847 l 1,13,-1
 -891 977 l 1,14,-1
 -667 977 l 1,15,-1
 -633 1307 l 1,16,-1
 -487 1307 l 1,17,-1
 -520 977 l 1,18,-1
 -264 977 l 1,19,-1
 -230 1307 l 1,20,-1
 -82 1307 l 1,21,-1
 -117 977 l 1,22,-1
 98 977 l 1,23,-1
 98 847 l 1,24,-1
 -130 847 l 1,25,-1
 -165 497 l 1,26,-1
 45 497 l 1,27,-1
 45 367 l 1,0,-1
-312 497 m 1,28,-1
 -277 847 l 1,29,-1
 -533 847 l 1,30,-1
 -568 497 l 1,31,-1
 -312 497 l 1,28,-1
525 1413 m 1,32,-1
 498 383 l 1,33,-1
 344 383 l 1,34,-1
 314 1413 l 1,35,-1
 525 1413 l 1,32,-1
287 113 m 256,36,37
 287 170 287 170 325 208 c 128,-1,38
 363 246 363 246 420 246 c 0,39,40
 476 246 476 246 513.5 207.5 c 128,-1,41
 551 169 551 169 551 113 c 128,-1,42
 551 57 551 57 513.5 19.5 c 128,-1,43
 476 -18 476 -18 420 -18 c 128,-1,44
 364 -18 364 -18 325.5 19.5 c 128,-1,45
 287 57 287 57 287 113 c 256,36,37
EndSplineSet
PickledDataWithLists: "(dp0
Vcom.schriftgestaltung.Glyphs.lastChange\\u000d
p1
V2019/11/18 23:05:38\\u000d
p2
s."
EndChar

StartChar: numbersign_numbersign.liga
Encoding: 102 -1 102
GlifName: numbersign_numbersign.liga
Width: 1126
Flags: W
HStem: 0 21G<-778 -627.984 -375 -224.984 30 180.016 433 583.016> 367 130<-954 -741 -580 -338 -177 67 228 470 631 841> 847 130<-903 -692 -532 -289 -129 116 276 519 679 894>
LayerCount: 2
Fore
SplineSet
-324 497 m 5,0,-1
 -289 847 l 1,1,-1
 -545 847 l 1,2,-1
 -580 497 l 1,3,-1
 -324 497 l 5,0,-1
484 497 m 5,4,-1
 519 847 l 1,5,-1
 263 847 l 1,6,-1
 228 497 l 1,7,-1
 484 497 l 5,4,-1
841 367 m 5,8,-1
 618 367 l 1,9,-1
 581 0 l 1,10,-1
 433 0 l 1,11,-1
 470 367 l 1,12,-1
 215 367 l 1,13,-1
 178 0 l 1,14,-1
 30 0 l 1,15,-1
 67 367 l 1,16,-1
 -190 367 l 1,17,-1
 -227 0 l 1,18,-1
 -375 0 l 1,19,-1
 -338 367 l 1,20,-1
 -593 367 l 1,21,-1
 -630 0 l 1,22,-1
 -778 0 l 1,23,-1
 -741 367 l 1,24,-1
 -954 367 l 1,25,-1
 -954 497 l 1,26,-1
 -728 497 l 1,27,-1
 -692 847 l 1,28,-1
 -903 847 l 1,29,-1
 -903 977 l 1,30,-1
 -679 977 l 1,31,-1
 -645 1307 l 1,32,-1
 -499 1307 l 1,33,-1
 -532 977 l 1,34,-1
 -276 977 l 1,35,-1
 -242 1307 l 1,36,-1
 -94 1307 l 1,37,-1
 -129 977 l 1,38,-1
 129 977 l 1,39,-1
 163 1307 l 1,40,-1
 309 1307 l 1,41,-1
 276 977 l 1,42,-1
 532 977 l 1,43,-1
 566 1307 l 1,44,-1
 714 1307 l 1,45,-1
 679 977 l 1,46,-1
 894 977 l 1,47,-1
 894 847 l 1,48,-1
 666 847 l 1,49,-1
 631 497 l 1,50,-1
 841 497 l 1,51,-1
 841 367 l 5,8,-1
116 847 m 5,52,-1
 -142 847 l 1,53,-1
 -177 497 l 1,54,-1
 80 497 l 1,55,-1
 116 847 l 5,52,-1
EndSplineSet
PickledDataWithLists: "(dp0
Vcom.schriftgestaltung.Glyphs.lastChange\\u000d
p1
V2019/11/18 23:05:38\\u000d
p2
s."
EndChar

StartChar: numbersign_parenleft.liga
Encoding: 103 -1 103
GlifName: numbersign_parenleft.liga
Width: 1126
Flags: W
HStem: 0 21G<-766 -615.984 -363 -212.984> 367 130<-942 -729 -568 -326 -165 159> 847 130<-891 -680 -520 -277 -117 203>
VStem: 159 178<235.483 367 497 834.097>
LayerCount: 2
Fore
SplineSet
-312 497 m 1,0,-1
 -277 847 l 1,1,-1
 -533 847 l 1,2,-1
 -568 497 l 1,3,-1
 -312 497 l 1,0,-1
249 977 m 1,4,5
 360 1244 360 1244 624 1489 c 1,6,-1
 725 1386 l 1,7,8
 337 1004 337 1004 337 537 c 0,9,10
 337 307 337 307 435 91 c 0,11,12
 531 -121 531 -121 725 -313 c 1,13,-1
 620 -420 l 1,14,15
 230 -58 230 -58 170 367 c 1,16,-1
 -178 367 l 1,17,-1
 -215 0 l 1,18,-1
 -363 0 l 1,19,-1
 -326 367 l 1,20,-1
 -581 367 l 1,21,-1
 -618 0 l 1,22,-1
 -766 0 l 1,23,-1
 -729 367 l 1,24,-1
 -942 367 l 1,25,-1
 -942 497 l 1,26,-1
 -716 497 l 1,27,-1
 -680 847 l 1,28,-1
 -891 847 l 1,29,-1
 -891 977 l 1,30,-1
 -667 977 l 1,31,-1
 -633 1307 l 1,32,-1
 -487 1307 l 1,33,-1
 -520 977 l 1,34,-1
 -264 977 l 1,35,-1
 -230 1307 l 1,36,-1
 -82 1307 l 1,37,-1
 -117 977 l 1,38,-1
 249 977 l 1,4,5
159 524 m 2,39,40
 159 694 159 694 203 847 c 1,41,-1
 -130 847 l 1,42,-1
 -165 497 l 1,43,-1
 159 497 l 1,44,45
 159 524 l 2,39,40
EndSplineSet
PickledDataWithLists: "(dp0
Vcom.schriftgestaltung.Glyphs.lastChange\\u000d
p1
V2019/11/18 23:05:38\\u000d
p2
s."
EndChar

StartChar: numbersign_question.liga
Encoding: 104 -1 104
GlifName: numbersign_question.liga
Width: 1126
Flags: W
HStem: -18 264<246.052 446.285> 0 21G<-766 -615.984 -363 -212.984> 367 130<-942 -729 -568 -326 -165 45> 847 130<-891 -680 -520 -277 -117 98> 1257 156<162 412.767>
VStem: 215 262<13.0518 214.425> 273 149<383 631.54> 592 189<821.392 1106.84>
LayerCount: 2
Fore
SplineSet
45 367 m 1,0,-1
 -178 367 l 1,1,-1
 -215 0 l 1,2,-1
 -363 0 l 1,3,-1
 -326 367 l 1,4,-1
 -581 367 l 1,5,-1
 -618 0 l 1,6,-1
 -766 0 l 1,7,-1
 -729 367 l 1,8,-1
 -942 367 l 1,9,-1
 -942 497 l 1,10,-1
 -716 497 l 1,11,-1
 -680 847 l 1,12,-1
 -891 847 l 1,13,-1
 -891 977 l 1,14,-1
 -667 977 l 1,15,-1
 -633 1307 l 1,16,-1
 -487 1307 l 1,17,-1
 -520 977 l 1,18,-1
 -264 977 l 1,19,-1
 -230 1307 l 1,20,-1
 -82 1307 l 1,21,-1
 -117 977 l 1,22,-1
 98 977 l 1,23,-1
 98 847 l 1,24,-1
 -130 847 l 1,25,-1
 -165 497 l 1,26,-1
 45 497 l 1,27,-1
 45 367 l 1,0,-1
-312 497 m 1,28,-1
 -277 847 l 1,29,-1
 -533 847 l 1,30,-1
 -568 497 l 1,31,-1
 -312 497 l 1,28,-1
377 766 m 2,32,33
 483 766 483 766 537.5 810 c 128,-1,34
 592 854 592 854 592 952 c 0,35,36
 592 1068 592 1068 525 1138 c 128,-1,37
 458 1208 458 1208 350 1237 c 0,38,39
 273 1257 273 1257 187 1257 c 2,40,-1
 162 1257 l 1,41,-1
 162 1413 l 1,42,-1
 189 1413 l 2,43,44
 374 1413 374 1413 507.5 1350.5 c 128,-1,45
 641 1288 641 1288 718 1173 c 0,46,47
 781 1077 781 1077 781 969 c 0,48,49
 781 652 781 652 430 629 c 1,50,-1
 422 383 l 1,51,-1
 273 383 l 1,52,-1
 260 766 l 1,53,-1
 377 766 l 2,32,33
215 113 m 256,54,55
 215 170 215 170 252 208 c 128,-1,56
 289 246 289 246 346 246 c 128,-1,57
 403 246 403 246 440 208 c 128,-1,58
 477 170 477 170 477 113 c 128,-1,59
 477 56 477 56 440 19 c 128,-1,60
 403 -18 403 -18 346 -18 c 0,61,62
 290 -18 290 -18 252.5 19.5 c 128,-1,63
 215 57 215 57 215 113 c 256,54,55
EndSplineSet
PickledDataWithLists: "(dp0
Vcom.schriftgestaltung.Glyphs.lastChange\\u000d
p1
V2019/11/18 23:05:38\\u000d
p2
s."
EndChar

StartChar: numbersign_underscore.liga
Encoding: 105 -1 105
GlifName: numbersign_underscore.liga
Width: 1126
Flags: W
HStem: -410 144<-243 985> 0 21G<-767 -616.984> 367 130<-943 -730 -569 -327 -166 44> 847 130<-892 -681 -521 -278 -118 97>
LayerCount: 2
Fore
SplineSet
-313 497 m 1,0,-1
 -278 847 l 1,1,-1
 -534 847 l 1,2,-1
 -569 497 l 1,3,-1
 -313 497 l 1,0,-1
44 367 m 1,4,-1
 -179 367 l 1,5,-1
 -243 -266 l 1,6,-1
 985 -266 l 1,7,-1
 985 -410 l 1,8,-1
 -406 -410 l 1,9,-1
 -327 367 l 1,10,-1
 -582 367 l 1,11,-1
 -619 0 l 1,12,-1
 -767 0 l 1,13,-1
 -730 367 l 1,14,-1
 -943 367 l 1,15,-1
 -943 497 l 1,16,-1
 -717 497 l 1,17,-1
 -681 847 l 1,18,-1
 -892 847 l 1,19,-1
 -892 977 l 1,20,-1
 -668 977 l 1,21,-1
 -634 1307 l 1,22,-1
 -488 1307 l 1,23,-1
 -521 977 l 1,24,-1
 -265 977 l 1,25,-1
 -231 1307 l 1,26,-1
 -83 1307 l 1,27,-1
 -118 977 l 1,28,-1
 97 977 l 1,29,-1
 97 847 l 1,30,-1
 -131 847 l 1,31,-1
 -166 497 l 1,32,-1
 44 497 l 1,33,-1
 44 367 l 1,4,-1
EndSplineSet
PickledDataWithLists: "(dp0
Vcom.schriftgestaltung.Glyphs.lastChange\\u000d
p1
V2019/11/18 23:05:38\\u000d
p2
s."
EndChar

StartChar: percent_percent.liga
Encoding: 106 -1 106
GlifName: percent_percent.liga
Width: 1126
Flags: W
HStem: -14 127<-251.305 -76.183 591.269 767.806> 457 127<-251.591 -75.5836 592.409 769.174> 829 127<-768.731 -592.409 75.8563 251.591> 1300 127<-767.591 -591.269 76.6129 251.305>
VStem: -948 147<986.708 1267.81> -559 147<988.226 1269.7> -432 147<143.708 424.809> 285 147<988.226 1269.7> 412 147<143.708 424.809> 802 147<146.416 426.292>
LayerCount: 2
Fore
SplineSet
-164 113 m 0,0,1
 -103 113 -103 113 -72.5 162.5 c 128,-1,2
 -42 212 -42 212 -42 285 c 0,3,4
 -42 457 -42 457 -164 457 c 0,5,6
 -225 457 -225 457 -255 408 c 128,-1,7
 -285 359 -285 359 -285 285 c 0,8,9
 -285 113 -285 113 -164 113 c 0,0,1
-680 956 m 0,10,11
 -619 956 -619 956 -589 1005 c 128,-1,12
 -559 1054 -559 1054 -559 1128 c 0,13,14
 -559 1300 -559 1300 -680 1300 c 0,15,16
 -741 1300 -741 1300 -771 1251 c 128,-1,17
 -801 1202 -801 1202 -801 1128 c 0,18,19
 -801 956 -801 956 -680 956 c 0,10,11
-676 1427 m 0,20,21
 -546 1427 -546 1427 -479 1349 c 128,-1,22
 -412 1271 -412 1271 -412 1133 c 0,23,24
 -412 1031 -412 1031 -454.5 959 c 128,-1,25
 -497 887 -497 887 -571 852 c 0,26,27
 -620 829 -620 829 -684 829 c 0,28,29
 -814 829 -814 829 -881 907.5 c 128,-1,30
 -948 986 -948 986 -948 1124 c 0,31,32
 -948 1225 -948 1225 -905.5 1297.5 c 128,-1,33
 -863 1370 -863 1370 -789 1404 c 0,34,35
 -737 1427 -737 1427 -676 1427 c 0,20,21
680 113 m 0,36,37
 741 113 741 113 771.5 162.5 c 128,-1,38
 802 212 802 212 802 285 c 0,39,40
 802 457 802 457 680 457 c 0,41,42
 619 457 619 457 589 408 c 128,-1,43
 559 359 559 359 559 285 c 0,44,45
 559 113 559 113 680 113 c 0,36,37
684 584 m 0,46,47
 814 584 814 584 881.5 505.5 c 128,-1,48
 949 427 949 427 949 289 c 0,49,50
 949 188 949 188 906 115.5 c 128,-1,51
 863 43 863 43 789 9 c 0,52,53
 737 -14 737 -14 676 -14 c 0,54,55
 546 -14 546 -14 479 64.5 c 128,-1,56
 412 143 412 143 412 281 c 0,57,58
 412 382 412 382 454.5 454.5 c 128,-1,59
 497 527 497 527 571 561 c 0,60,61
 623 584 623 584 684 584 c 0,46,47
164 956 m 0,62,63
 225 956 225 956 255 1005 c 128,-1,64
 285 1054 285 1054 285 1128 c 0,65,66
 285 1300 285 1300 164 1300 c 0,67,68
 103 1300 103 1300 73 1251 c 128,-1,69
 43 1202 43 1202 43 1128 c 0,70,71
 43 956 43 956 164 956 c 0,62,63
168 1427 m 2,72,73
 298 1427 298 1427 365 1349 c 128,-1,74
 432 1271 432 1271 432 1133 c 0,75,76
 432 1031 432 1031 389.5 959 c 128,-1,77
 347 887 347 887 273 852 c 0,78,79
 224 829 224 829 160 829 c 0,80,81
 43 829 43 829 -23 893.5 c 128,-1,82
 -89 958 -89 958 -101 1072 c 1,83,-1
 -801 0 l 1,84,-1
 -965 0 l 1,85,-1
 -36 1427 l 1,86,-1
 168 1427 l 2,72,73
-160 584 m 0,87,88
 -43 584 -43 584 23.5 520 c 128,-1,89
 90 456 90 456 102 343 c 1,90,-1
 799 1413 l 1,91,-1
 965 1413 l 1,92,-1
 34 -14 l 1,93,-1
 -168 -14 l 2,94,95
 -298 -14 -298 -14 -365 64.5 c 128,-1,96
 -432 143 -432 143 -432 281 c 0,97,98
 -432 382 -432 382 -389.5 454.5 c 128,-1,99
 -347 527 -347 527 -273 561 c 0,100,101
 -221 584 -221 584 -160 584 c 0,87,88
EndSplineSet
PickledDataWithLists: "(dp0
Vcom.schriftgestaltung.Glyphs.lastChange\\u000d
p1
V2019/11/18 23:05:38\\u000d
p2
s."
EndChar

StartChar: period_equal.liga
Encoding: 107 -1 107
GlifName: period_equal.liga
Width: 1126
Flags: W
HStem: 298 147<-8 852> 399 334<-534.236 -309.203> 646 147<-8 852>
VStem: -588 332<452.971 678.839>
LayerCount: 2
Fore
SplineSet
993 646 m 5,0,-1
 133 646 l 1,1,-1
 133 793 l 1,2,-1
 993 793 l 1,3,-1
 993 646 l 5,0,-1
993 298 m 5,4,-1
 133 298 l 1,5,-1
 133 445 l 1,6,-1
 993 445 l 1,7,-1
 993 298 l 5,4,-1
852 646 m 1,8,-1
 -8 646 l 1,9,-1
 -8 793 l 1,10,-1
 852 793 l 1,11,-1
 852 646 l 1,8,-1
852 298 m 1,12,-1
 -8 298 l 1,13,-1
 -8 445 l 1,14,-1
 852 445 l 1,15,-1
 852 298 l 1,12,-1
-422 733 m 0,16,17
 -350 733 -350 733 -303 685 c 128,-1,18
 -256 637 -256 637 -256 565 c 0,19,20
 -256 510 -256 510 -284.5 470.5 c 128,-1,21
 -313 431 -313 431 -357 412 c 0,22,23
 -386 399 -386 399 -422 399 c 0,24,25
 -477 399 -477 399 -516.5 427.5 c 128,-1,26
 -556 456 -556 456 -575 501 c 0,27,28
 -588 530 -588 530 -588 565 c 0,29,30
 -588 620 -588 620 -560 660 c 128,-1,31
 -532 700 -532 700 -487 720 c 0,32,33
 -458 733 -458 733 -422 733 c 0,16,17
EndSplineSet
PickledDataWithLists: "(dp0
Vcom.schriftgestaltung.Glyphs.lastChange\\u000d
p1
V2019/11/18 23:05:38\\u000d
p2
s."
EndChar

StartChar: period_hyphen.liga
Encoding: 108 -1 108
GlifName: period_hyphen.liga
Width: 1126
Flags: W
HStem: 399 334<-534.236 -309.203> 463 164<-1 721>
VStem: -588 332<452.971 678.839>
LayerCount: 2
Fore
SplineSet
721 463 m 1,0,-1
 -1 463 l 1,1,-1
 -1 627 l 1,2,-1
 721 627 l 1,3,-1
 721 463 l 1,0,-1
-422 733 m 0,4,5
 -350 733 -350 733 -303 685 c 128,-1,6
 -256 637 -256 637 -256 565 c 0,7,8
 -256 510 -256 510 -284.5 470.5 c 128,-1,9
 -313 431 -313 431 -357 412 c 0,10,11
 -386 399 -386 399 -422 399 c 0,12,13
 -477 399 -477 399 -516.5 427.5 c 128,-1,14
 -556 456 -556 456 -575 501 c 0,15,16
 -588 530 -588 530 -588 565 c 0,17,18
 -588 620 -588 620 -560 660 c 128,-1,19
 -532 700 -532 700 -487 720 c 0,20,21
 -458 733 -458 733 -422 733 c 0,4,5
EndSplineSet
PickledDataWithLists: "(dp0
Vcom.schriftgestaltung.Glyphs.lastChange\\u000d
p1
V2019/11/18 23:05:38\\u000d
p2
s."
EndChar

StartChar: period_period.liga
Encoding: 109 -1 109
GlifName: period_period.liga
Width: 1126
Flags: W
HStem: -18 333<-542.236 -317.485 301.764 526.515>
VStem: -596 332<35.2034 260.559> 248 332<35.2034 260.559>
LayerCount: 2
Fore
SplineSet
414 315 m 0,0,1
 469 315 469 315 508.5 286 c 128,-1,2
 548 257 548 257 567 212 c 0,3,4
 580 183 580 183 580 147 c 0,5,6
 580 76 580 76 532.5 29 c 128,-1,7
 485 -18 485 -18 414 -18 c 0,8,9
 359 -18 359 -18 319.5 10.5 c 128,-1,10
 280 39 280 39 261 83 c 0,11,12
 248 112 248 112 248 147 c 0,13,14
 248 202 248 202 276.5 242.5 c 128,-1,15
 305 283 305 283 349 302 c 0,16,17
 378 315 378 315 414 315 c 0,0,1
-430 315 m 0,18,19
 -375 315 -375 315 -335.5 286 c 128,-1,20
 -296 257 -296 257 -277 212 c 0,21,22
 -264 183 -264 183 -264 147 c 0,23,24
 -264 76 -264 76 -311.5 29 c 128,-1,25
 -359 -18 -359 -18 -430 -18 c 0,26,27
 -485 -18 -485 -18 -524.5 10.5 c 128,-1,28
 -564 39 -564 39 -583 83 c 0,29,30
 -596 112 -596 112 -596 147 c 0,31,32
 -596 202 -596 202 -567.5 242.5 c 128,-1,33
 -539 283 -539 283 -495 302 c 0,34,35
 -466 315 -466 315 -430 315 c 0,18,19
EndSplineSet
PickledDataWithLists: "(dp0
Vcom.schriftgestaltung.Glyphs.lastChange\\u000d
p1
V2019/11/18 23:05:38\\u000d
p2
s."
EndChar

StartChar: period_period_equal.liga
Encoding: 110 -1 110
GlifName: period_period_equal.liga
Width: 1126
Flags: W
HStem: 298 147<-718 993> 399 334<-1801.24 -1576.2 -1238.24 -1013.2> 646 147<-718 993>
VStem: -1855 332<452.971 678.839> -1292 332<452.971 678.839>
LayerCount: 2
Fore
SplineSet
-1126 733 m 0,0,1
 -1054 733 -1054 733 -1007 685 c 128,-1,2
 -960 637 -960 637 -960 565 c 0,3,4
 -960 510 -960 510 -988.5 470.5 c 128,-1,5
 -1017 431 -1017 431 -1061 412 c 0,6,7
 -1090 399 -1090 399 -1126 399 c 0,8,9
 -1181 399 -1181 399 -1220.5 427.5 c 128,-1,10
 -1260 456 -1260 456 -1279 501 c 0,11,12
 -1292 530 -1292 530 -1292 565 c 0,13,14
 -1292 620 -1292 620 -1264 660 c 128,-1,15
 -1236 700 -1236 700 -1191 720 c 0,16,17
 -1162 733 -1162 733 -1126 733 c 0,0,1
-1689 733 m 0,18,19
 -1617 733 -1617 733 -1570 685 c 128,-1,20
 -1523 637 -1523 637 -1523 565 c 0,21,22
 -1523 510 -1523 510 -1551.5 470.5 c 128,-1,23
 -1580 431 -1580 431 -1624 412 c 0,24,25
 -1653 399 -1653 399 -1689 399 c 0,26,27
 -1744 399 -1744 399 -1783.5 427.5 c 128,-1,28
 -1823 456 -1823 456 -1842 501 c 0,29,30
 -1855 530 -1855 530 -1855 565 c 0,31,32
 -1855 620 -1855 620 -1827 660 c 128,-1,33
 -1799 700 -1799 700 -1754 720 c 0,34,35
 -1725 733 -1725 733 -1689 733 c 0,18,19
993 646 m 1,36,-1
 -718 646 l 1,37,-1
 -718 793 l 1,38,-1
 993 793 l 1,39,-1
 993 646 l 1,36,-1
993 298 m 1,40,-1
 -718 298 l 1,41,-1
 -718 445 l 1,42,-1
 993 445 l 1,43,-1
 993 298 l 1,40,-1
EndSplineSet
PickledDataWithLists: "(dp0
Vcom.schriftgestaltung.Glyphs.lastChange\\u000d
p1
V2019/11/18 23:05:38\\u000d
p2
s."
EndChar

StartChar: period_period_less.liga
Encoding: 111 -1 111
GlifName: period_period_less.liga
Width: 1126
Flags: W
HStem: 399 334<-1801.24 -1576.2 -957.236 -732.203>
VStem: -1855 332<452.971 678.839> -1011 332<452.971 678.839>
LayerCount: 2
Fore
SplineSet
918 985 m 1,0,-1
 123 543 l 1,1,-1
 918 104 l 1,2,-1
 830 -18 l 1,3,-1
 -192 545 l 1,4,-1
 830 1106 l 1,5,-1
 918 985 l 1,0,-1
-845 733 m 0,6,7
 -773 733 -773 733 -726 685 c 128,-1,8
 -679 637 -679 637 -679 565 c 0,9,10
 -679 510 -679 510 -707.5 470.5 c 128,-1,11
 -736 431 -736 431 -780 412 c 0,12,13
 -809 399 -809 399 -845 399 c 0,14,15
 -900 399 -900 399 -939.5 427.5 c 128,-1,16
 -979 456 -979 456 -998 501 c 0,17,18
 -1011 530 -1011 530 -1011 565 c 0,19,20
 -1011 620 -1011 620 -983 660 c 128,-1,21
 -955 700 -955 700 -910 720 c 0,22,23
 -881 733 -881 733 -845 733 c 0,6,7
-1689 733 m 0,24,25
 -1617 733 -1617 733 -1570 685 c 128,-1,26
 -1523 637 -1523 637 -1523 565 c 0,27,28
 -1523 510 -1523 510 -1551.5 470.5 c 128,-1,29
 -1580 431 -1580 431 -1624 412 c 0,30,31
 -1653 399 -1653 399 -1689 399 c 0,32,33
 -1744 399 -1744 399 -1783.5 427.5 c 128,-1,34
 -1823 456 -1823 456 -1842 501 c 0,35,36
 -1855 530 -1855 530 -1855 565 c 0,37,38
 -1855 620 -1855 620 -1827 660 c 128,-1,39
 -1799 700 -1799 700 -1754 720 c 0,40,41
 -1725 733 -1725 733 -1689 733 c 0,24,25
EndSplineSet
PickledDataWithLists: "(dp0
Vcom.schriftgestaltung.Glyphs.lastChange\\u000d
p1
V2019/11/18 23:05:38\\u000d
p2
s."
EndChar

StartChar: period_period_period.liga
Encoding: 112 -1 112
GlifName: period_period_period.liga
Width: 1126
Flags: W
HStem: -18 333<-1527.24 -1302.48 -683.236 -458.485 160.764 385.515>
VStem: -1581 332<35.2034 260.559> -737 332<35.2034 260.559> 107 332<35.2034 260.559>
CounterMasks: 1 70
LayerCount: 2
Fore
SplineSet
273 315 m 0,0,1
 328 315 328 315 367.5 286 c 128,-1,2
 407 257 407 257 426 212 c 0,3,4
 439 183 439 183 439 147 c 0,5,6
 439 76 439 76 391.5 29 c 128,-1,7
 344 -18 344 -18 273 -18 c 0,8,9
 218 -18 218 -18 178.5 10.5 c 128,-1,10
 139 39 139 39 120 83 c 0,11,12
 107 112 107 112 107 147 c 0,13,14
 107 202 107 202 135.5 242.5 c 128,-1,15
 164 283 164 283 208 302 c 0,16,17
 237 315 237 315 273 315 c 0,0,1
-1415 315 m 0,18,19
 -1360 315 -1360 315 -1320.5 286 c 128,-1,20
 -1281 257 -1281 257 -1262 212 c 0,21,22
 -1249 183 -1249 183 -1249 147 c 0,23,24
 -1249 76 -1249 76 -1296.5 29 c 128,-1,25
 -1344 -18 -1344 -18 -1415 -18 c 0,26,27
 -1470 -18 -1470 -18 -1509.5 10.5 c 128,-1,28
 -1549 39 -1549 39 -1568 83 c 0,29,30
 -1581 112 -1581 112 -1581 147 c 0,31,32
 -1581 202 -1581 202 -1552.5 242.5 c 128,-1,33
 -1524 283 -1524 283 -1480 302 c 0,34,35
 -1451 315 -1451 315 -1415 315 c 0,18,19
-571 315 m 0,36,37
 -516 315 -516 315 -476.5 286 c 128,-1,38
 -437 257 -437 257 -418 212 c 0,39,40
 -405 183 -405 183 -405 147 c 0,41,42
 -405 76 -405 76 -452.5 29 c 128,-1,43
 -500 -18 -500 -18 -571 -18 c 0,44,45
 -626 -18 -626 -18 -665.5 10.5 c 128,-1,46
 -705 39 -705 39 -724 83 c 0,47,48
 -737 112 -737 112 -737 147 c 0,49,50
 -737 202 -737 202 -708.5 242.5 c 128,-1,51
 -680 283 -680 283 -636 302 c 0,52,53
 -607 315 -607 315 -571 315 c 0,36,37
EndSplineSet
PickledDataWithLists: "(dp0
Vcom.schriftgestaltung.Glyphs.lastChange\\u000d
p1
V2019/11/18 23:05:38\\u000d
p2
s."
EndChar

StartChar: period_question.liga
Encoding: 113 -1 113
GlifName: period_question.liga
Width: 1126
Flags: W
HStem: -18 333<-542.236 -317.485> -18 264<246.052 446.285> 1257 156<162 412.767>
VStem: -596 332<35.2034 260.559> 215 262<13.0518 214.425> 273 149<383 631.54> 592 189<821.392 1106.84>
LayerCount: 2
Fore
SplineSet
377 766 m 6,0,1
 483 766 483 766 537.5 810 c 128,-1,2
 592 854 592 854 592 952 c 0,3,4
 592 1068 592 1068 525 1138 c 128,-1,5
 458 1208 458 1208 350 1237 c 0,6,7
 273 1257 273 1257 187 1257 c 2,8,-1
 162 1257 l 1,9,-1
 162 1413 l 1,10,-1
 189 1413 l 2,11,12
 374 1413 374 1413 507.5 1350.5 c 128,-1,13
 641 1288 641 1288 718 1173 c 0,14,15
 781 1077 781 1077 781 969 c 0,16,17
 781 652 781 652 430 629 c 1,18,-1
 422 383 l 1,19,-1
 273 383 l 1,20,-1
 260 766 l 1,21,-1
 377 766 l 6,0,1
215 113 m 260,22,23
 215 170 215 170 252 208 c 128,-1,24
 289 246 289 246 346 246 c 128,-1,25
 403 246 403 246 440 208 c 128,-1,26
 477 170 477 170 477 113 c 128,-1,27
 477 56 477 56 440 19 c 128,-1,28
 403 -18 403 -18 346 -18 c 0,29,30
 290 -18 290 -18 252.5 19.5 c 128,-1,31
 215 57 215 57 215 113 c 260,22,23
-430 315 m 4,32,33
 -375 315 -375 315 -335.5 286 c 128,-1,34
 -296 257 -296 257 -277 212 c 0,35,36
 -264 183 -264 183 -264 147 c 0,37,38
 -264 76 -264 76 -311.5 29 c 128,-1,39
 -359 -18 -359 -18 -430 -18 c 0,40,41
 -485 -18 -485 -18 -524.5 10.5 c 128,-1,42
 -564 39 -564 39 -583 83 c 0,43,44
 -596 112 -596 112 -596 147 c 0,45,46
 -596 202 -596 202 -567.5 242.5 c 128,-1,47
 -539 283 -539 283 -495 302 c 0,48,49
 -466 315 -466 315 -430 315 c 4,32,33
EndSplineSet
PickledDataWithLists: "(dp0
Vcom.schriftgestaltung.Glyphs.lastChange\\u000d
p1
V2019/11/18 23:05:38\\u000d
p2
s."
EndChar

StartChar: plus_greater.liga
Encoding: 114 -1 114
GlifName: plus_greater.liga
Width: 1126
Flags: W
HStem: 469 152<-901 -508 -336 57>
VStem: -508 172<61 469 621 1026>
LayerCount: 2
Fore
SplineSet
-125 985 m 1,0,-1
 -37 1106 l 1,1,-1
 985 545 l 1,2,-1
 -37 -16 l 1,3,-1
 -125 104 l 1,4,-1
 670 543 l 1,5,-1
 -125 985 l 1,0,-1
57 469 m 1,6,-1
 -336 469 l 1,7,-1
 -336 61 l 1,8,-1
 -508 61 l 1,9,-1
 -508 469 l 1,10,-1
 -901 469 l 1,11,-1
 -901 621 l 1,12,-1
 -508 621 l 1,13,-1
 -508 1026 l 1,14,-1
 -336 1026 l 1,15,-1
 -336 621 l 1,16,-1
 57 621 l 1,17,-1
 57 469 l 1,6,-1
EndSplineSet
PickledDataWithLists: "(dp0
Vcom.schriftgestaltung.Glyphs.lastChange\\u000d
p1
V2019/11/18 23:05:38\\u000d
p2
s."
EndChar

StartChar: plus_plus.liga
Encoding: 115 -1 115
GlifName: plus_plus.liga
Width: 1126
Flags: W
HStem: 469 152<-901 -508 -336 336 508 901>
VStem: -508 172<61 469 621 1026> 336 172<61 469 621 1026>
LayerCount: 2
Fore
SplineSet
901 469 m 1,0,-1
 508 469 l 1,1,-1
 508 61 l 1,2,-1
 336 61 l 1,3,-1
 336 469 l 1,4,-1
 -336 469 l 1,5,-1
 -336 61 l 1,6,-1
 -508 61 l 1,7,-1
 -508 469 l 1,8,-1
 -901 469 l 1,9,-1
 -901 621 l 1,10,-1
 -508 621 l 1,11,-1
 -508 1026 l 1,12,-1
 -336 1026 l 1,13,-1
 -336 621 l 1,14,-1
 336 621 l 1,15,-1
 336 1026 l 1,16,-1
 508 1026 l 1,17,-1
 508 621 l 1,18,-1
 901 621 l 1,19,-1
 901 469 l 1,0,-1
EndSplineSet
PickledDataWithLists: "(dp0
Vcom.schriftgestaltung.Glyphs.lastChange\\u000d
p1
V2019/11/18 23:05:38\\u000d
p2
s."
EndChar

StartChar: plus_plus_plus.liga
Encoding: 116 -1 116
GlifName: plus_plus_plus.liga
Width: 1126
Flags: W
HStem: 469 152<-1886 -1493 -1321 -649 -477 195 367 760>
VStem: -1493 172<61 469 621 1026> -649 172<61 469 621 1026> 195 172<61 469 621 1026>
CounterMasks: 1 70
LayerCount: 2
Fore
SplineSet
760 469 m 1,0,-1
 367 469 l 1,1,-1
 367 61 l 1,2,-1
 195 61 l 1,3,-1
 195 469 l 1,4,-1
 -477 469 l 1,5,-1
 -477 61 l 1,6,-1
 -649 61 l 1,7,-1
 -649 469 l 1,8,-1
 -1321 469 l 1,9,-1
 -1321 61 l 1,10,-1
 -1493 61 l 1,11,-1
 -1493 469 l 1,12,-1
 -1886 469 l 1,13,-1
 -1886 621 l 1,14,-1
 -1493 621 l 1,15,-1
 -1493 1026 l 1,16,-1
 -1321 1026 l 1,17,-1
 -1321 621 l 1,18,-1
 -649 621 l 1,19,-1
 -649 1026 l 1,20,-1
 -477 1026 l 1,21,-1
 -477 621 l 1,22,-1
 195 621 l 1,23,-1
 195 1026 l 1,24,-1
 367 1026 l 1,25,-1
 367 621 l 1,26,-1
 760 621 l 1,27,-1
 760 469 l 1,0,-1
EndSplineSet
PickledDataWithLists: "(dp0
Vcom.schriftgestaltung.Glyphs.lastChange\\u000d
p1
V2019/11/18 23:05:38\\u000d
p2
s."
EndChar

StartChar: question_colon.liga
Encoding: 117 -1 117
GlifName: question_colon.liga
Width: 1126
Flags: W
HStem: -18 307<316.314 529.003> -18 264<-597.948 -397.715> 715 307<315.087 529.003> 1257 156<-682 -431.233>
VStem: -629 262<13.0518 214.425> -571 149<383 631.54> -252 189<821.392 1106.84> 269 307<25.875 241.904 758.875 975.165>
LayerCount: 2
Fore
SplineSet
422 1022 m 4,0,1
 472 1022 472 1022 509 995 c 128,-1,2
 546 968 546 968 564 927 c 0,3,4
 576 898 576 898 576 868 c 0,5,6
 576 803 576 803 531.5 759 c 128,-1,7
 487 715 487 715 422 715 c 0,8,9
 356 715 356 715 312.5 759 c 128,-1,10
 269 803 269 803 269 868 c 0,11,12
 269 918 269 918 295 954.5 c 128,-1,13
 321 991 321 991 362 1010 c 0,14,15
 389 1022 389 1022 422 1022 c 4,0,1
422 289 m 4,16,17
 472 289 472 289 509 262 c 128,-1,18
 546 235 546 235 564 194 c 0,19,20
 576 166 576 166 576 135 c 0,21,22
 576 70 576 70 531.5 26 c 128,-1,23
 487 -18 487 -18 422 -18 c 0,24,25
 356 -18 356 -18 312.5 26 c 128,-1,26
 269 70 269 70 269 135 c 0,27,28
 269 185 269 185 295 221 c 128,-1,29
 321 257 321 257 362 276 c 0,30,31
 391 289 391 289 422 289 c 4,16,17
-467 766 m 6,32,33
 -361 766 -361 766 -306.5 810 c 128,-1,34
 -252 854 -252 854 -252 952 c 0,35,36
 -252 1068 -252 1068 -319 1138 c 128,-1,37
 -386 1208 -386 1208 -494 1237 c 0,38,39
 -571 1257 -571 1257 -657 1257 c 2,40,-1
 -682 1257 l 1,41,-1
 -682 1413 l 1,42,-1
 -655 1413 l 2,43,44
 -470 1413 -470 1413 -336.5 1350.5 c 128,-1,45
 -203 1288 -203 1288 -126 1173 c 0,46,47
 -63 1077 -63 1077 -63 969 c 0,48,49
 -63 652 -63 652 -414 629 c 1,50,-1
 -422 383 l 1,51,-1
 -571 383 l 1,52,-1
 -584 766 l 1,53,-1
 -467 766 l 6,32,33
-629 113 m 260,54,55
 -629 170 -629 170 -592 208 c 128,-1,56
 -555 246 -555 246 -498 246 c 128,-1,57
 -441 246 -441 246 -404 208 c 128,-1,58
 -367 170 -367 170 -367 113 c 128,-1,59
 -367 56 -367 56 -404 19 c 128,-1,60
 -441 -18 -441 -18 -498 -18 c 0,61,62
 -554 -18 -554 -18 -591.5 19.5 c 128,-1,63
 -629 57 -629 57 -629 113 c 260,54,55
EndSplineSet
PickledDataWithLists: "(dp0
Vcom.schriftgestaltung.Glyphs.lastChange\\u000d
p1
V2019/11/18 23:05:38\\u000d
p2
s."
EndChar

StartChar: question_equal.liga
Encoding: 118 -1 118
GlifName: question_equal.liga
Width: 1126
Flags: W
HStem: -18 264<-597.948 -397.715> 298 147<-8 852> 646 147<102 852> 1257 156<-682 -425.02>
VStem: -629 262<13.0518 214.425> -571 149<383 631.54> -252 189<821.392 1108.53>
LayerCount: 2
Fore
SplineSet
852 646 m 1,0,-1
 -8 646 l 1,1,-1
 102 793 l 1,2,-1
 852 793 l 1,3,-1
 852 646 l 1,0,-1
852 298 m 1,4,-1
 -8 298 l 1,5,-1
 -8 445 l 1,6,-1
 852 445 l 1,7,-1
 852 298 l 1,4,-1
-252 952 m 0,8,9
 -252 1015 -252 1015 -273.5 1066.5 c 128,-1,10
 -295 1118 -295 1118 -332 1153 c 128,-1,11
 -369 1188 -369 1188 -420.5 1212 c 128,-1,12
 -472 1236 -472 1236 -531 1246.5 c 128,-1,13
 -590 1257 -590 1257 -657 1257 c 2,14,-1
 -682 1257 l 1,15,-1
 -682 1413 l 1,16,-1
 -655 1413 l 2,17,18
 -470 1413 -470 1413 -336.5 1350.5 c 128,-1,19
 -203 1288 -203 1288 -126 1173 c 0,20,21
 -63 1077 -63 1077 -63 969 c 0,22,23
 -63 652 -63 652 -414 629 c 1,24,-1
 -422 383 l 1,25,-1
 -571 383 l 1,26,-1
 -584 766 l 1,27,-1
 -467 766 l 2,28,29
 -361 766 -361 766 -306.5 810 c 128,-1,30
 -252 854 -252 854 -252 952 c 0,8,9
-629 113 m 256,31,32
 -629 170 -629 170 -592 208 c 128,-1,33
 -555 246 -555 246 -498 246 c 128,-1,34
 -441 246 -441 246 -404 208 c 128,-1,35
 -367 170 -367 170 -367 113 c 128,-1,36
 -367 56 -367 56 -404 19 c 128,-1,37
 -441 -18 -441 -18 -498 -18 c 0,38,39
 -554 -18 -554 -18 -591.5 19.5 c 128,-1,40
 -629 57 -629 57 -629 113 c 256,31,32
EndSplineSet
PickledDataWithLists: "(dp0
Vcom.schriftgestaltung.Glyphs.lastChange\\u000d
p1
V2019/11/18 23:07:02\\u000d
p2
s."
EndChar

StartChar: question_period.liga
Encoding: 119 -1 119
GlifName: question_period.liga
Width: 1126
Flags: W
HStem: -18 333<301.764 526.515> -18 264<-597.948 -397.715> 1257 156<-682 -425.02>
VStem: -629 262<13.0518 214.425> -571 149<383 631.54> -252 189<821.392 1108.53> 248 332<35.2034 260.559>
LayerCount: 2
Fore
SplineSet
414 315 m 0,0,1
 469 315 469 315 508.5 286 c 128,-1,2
 548 257 548 257 567 212 c 0,3,4
 580 183 580 183 580 147 c 0,5,6
 580 76 580 76 532.5 29 c 128,-1,7
 485 -18 485 -18 414 -18 c 0,8,9
 359 -18 359 -18 319.5 10.5 c 128,-1,10
 280 39 280 39 261 83 c 0,11,12
 248 112 248 112 248 147 c 0,13,14
 248 202 248 202 276.5 242.5 c 128,-1,15
 305 283 305 283 349 302 c 0,16,17
 378 315 378 315 414 315 c 0,0,1
-252 952 m 0,18,19
 -252 1015 -252 1015 -273.5 1066.5 c 128,-1,20
 -295 1118 -295 1118 -332 1153 c 128,-1,21
 -369 1188 -369 1188 -420.5 1212 c 128,-1,22
 -472 1236 -472 1236 -531 1246.5 c 128,-1,23
 -590 1257 -590 1257 -657 1257 c 2,24,-1
 -682 1257 l 1,25,-1
 -682 1413 l 1,26,-1
 -655 1413 l 2,27,28
 -470 1413 -470 1413 -336.5 1350.5 c 128,-1,29
 -203 1288 -203 1288 -126 1173 c 0,30,31
 -63 1077 -63 1077 -63 969 c 0,32,33
 -63 652 -63 652 -414 629 c 1,34,-1
 -422 383 l 1,35,-1
 -571 383 l 1,36,-1
 -584 766 l 1,37,-1
 -467 766 l 2,38,39
 -361 766 -361 766 -306.5 810 c 128,-1,40
 -252 854 -252 854 -252 952 c 0,18,19
-629 113 m 256,41,42
 -629 170 -629 170 -592 208 c 128,-1,43
 -555 246 -555 246 -498 246 c 128,-1,44
 -441 246 -441 246 -404 208 c 128,-1,45
 -367 170 -367 170 -367 113 c 128,-1,46
 -367 56 -367 56 -404 19 c 128,-1,47
 -441 -18 -441 -18 -498 -18 c 0,48,49
 -554 -18 -554 -18 -591.5 19.5 c 128,-1,50
 -629 57 -629 57 -629 113 c 256,41,42
EndSplineSet
PickledDataWithLists: "(dp0
Vcom.schriftgestaltung.Glyphs.lastChange\\u000d
p1
V2019/11/18 23:05:38\\u000d
p2
s."
EndChar

StartChar: question_question.liga
Encoding: 120 -1 120
GlifName: question_question.liga
Width: 1126
Flags: W
HStem: -18 264<-597.948 -397.715 246.052 446.285> 383 383<-571 -424.189 273 419.811> 629 137<-414 -309.724 430 534.276> 1257 156<-682 -431.233 162 412.767>
VStem: -629 262<13.0518 214.425> -571 149<383 631.54> -252 189<821.392 1106.84> 215 262<13.0518 214.425> 273 149<383 631.54> 592 189<821.392 1106.84>
LayerCount: 2
Fore
SplineSet
377 766 m 2,0,1
 483 766 483 766 537.5 810 c 128,-1,2
 592 854 592 854 592 952 c 0,3,4
 592 1068 592 1068 525 1138 c 128,-1,5
 458 1208 458 1208 350 1237 c 0,6,7
 273 1257 273 1257 187 1257 c 2,8,-1
 162 1257 l 1,9,-1
 162 1413 l 1,10,-1
 189 1413 l 2,11,12
 374 1413 374 1413 507.5 1350.5 c 128,-1,13
 641 1288 641 1288 718 1173 c 0,14,15
 781 1077 781 1077 781 969 c 0,16,17
 781 652 781 652 430 629 c 1,18,-1
 422 383 l 1,19,-1
 273 383 l 1,20,-1
 260 766 l 1,21,-1
 377 766 l 2,0,1
215 113 m 256,22,23
 215 170 215 170 252 208 c 128,-1,24
 289 246 289 246 346 246 c 128,-1,25
 403 246 403 246 440 208 c 128,-1,26
 477 170 477 170 477 113 c 128,-1,27
 477 56 477 56 440 19 c 128,-1,28
 403 -18 403 -18 346 -18 c 0,29,30
 290 -18 290 -18 252.5 19.5 c 128,-1,31
 215 57 215 57 215 113 c 256,22,23
-467 766 m 2,32,33
 -361 766 -361 766 -306.5 810 c 128,-1,34
 -252 854 -252 854 -252 952 c 0,35,36
 -252 1068 -252 1068 -319 1138 c 128,-1,37
 -386 1208 -386 1208 -494 1237 c 0,38,39
 -571 1257 -571 1257 -657 1257 c 2,40,-1
 -682 1257 l 1,41,-1
 -682 1413 l 1,42,-1
 -655 1413 l 2,43,44
 -470 1413 -470 1413 -336.5 1350.5 c 128,-1,45
 -203 1288 -203 1288 -126 1173 c 0,46,47
 -63 1077 -63 1077 -63 969 c 0,48,49
 -63 652 -63 652 -414 629 c 1,50,-1
 -422 383 l 1,51,-1
 -571 383 l 1,52,-1
 -584 766 l 1,53,-1
 -467 766 l 2,32,33
-629 113 m 256,54,55
 -629 170 -629 170 -592 208 c 128,-1,56
 -555 246 -555 246 -498 246 c 128,-1,57
 -441 246 -441 246 -404 208 c 128,-1,58
 -367 170 -367 170 -367 113 c 128,-1,59
 -367 56 -367 56 -404 19 c 128,-1,60
 -441 -18 -441 -18 -498 -18 c 0,61,62
 -554 -18 -554 -18 -591.5 19.5 c 128,-1,63
 -629 57 -629 57 -629 113 c 256,54,55
EndSplineSet
PickledDataWithLists: "(dp0
Vcom.schriftgestaltung.Glyphs.lastChange\\u000d
p1
V2019/11/18 23:05:38\\u000d
p2
s."
EndChar

StartChar: semicolon_semicolon.liga
Encoding: 121 -1 121
GlifName: semicolon_semicolon.liga
Width: 1126
Flags: W
HStem: -342 137<-735 -547.012 109 296.988> 715 307<-528.913 -314.997 315.087 529.003>
VStem: -575 307<758.875 975.165> -471 219<-110.359 146.5> 269 307<758.875 975.165> 373 219<-110.359 146.5>
LayerCount: 2
Fore
SplineSet
279 193 m 0,0,1
 279 250 279 250 316.5 286 c 128,-1,2
 354 322 354 322 414 322 c 0,3,4
 503 322 503 322 547.5 254 c 128,-1,5
 592 186 592 186 592 82 c 0,6,7
 592 -63 592 -63 517 -161.5 c 128,-1,8
 442 -260 442 -260 320 -307 c 0,9,10
 229 -342 229 -342 109 -342 c 1,11,-1
 109 -205 l 1,12,13
 117.069007313 -205.301645133 117.069007313 -205.301645133 125.06384709 -205.301645133 c 0,14,15
 200.294922591 -205.301645133 200.294922591 -205.301645133 260.368662741 -180.036039054 c 128,-1,16
 320.442402891 -154.770432974 320.442402891 -154.770432974 351 -110 c 0,17,18
 373 -79 373 -79 373 -37 c 0,19,20
 373 -6 373 -6 363.5 18.5 c 128,-1,21
 354 43 354 43 340 60.5 c 128,-1,22
 326 78 326 78 312 95.5 c 128,-1,23
 298 113 298 113 288.5 138 c 128,-1,24
 279 163 279 163 279 193 c 0,0,1
422 1022 m 0,25,26
 472 1022 472 1022 509 995 c 128,-1,27
 546 968 546 968 564 927 c 0,28,29
 576 898 576 898 576 868 c 0,30,31
 576 803 576 803 531.5 759 c 128,-1,32
 487 715 487 715 422 715 c 0,33,34
 356 715 356 715 312.5 759 c 128,-1,35
 269 803 269 803 269 868 c 0,36,37
 269 918 269 918 295 954.5 c 128,-1,38
 321 991 321 991 362 1010 c 0,39,40
 389 1022 389 1022 422 1022 c 0,25,26
-565 193 m 0,41,42
 -565 250 -565 250 -527.5 286 c 128,-1,43
 -490 322 -490 322 -430 322 c 0,44,45
 -341 322 -341 322 -296.5 254 c 128,-1,46
 -252 186 -252 186 -252 82 c 0,47,48
 -252 -63 -252 -63 -327 -161.5 c 128,-1,49
 -402 -260 -402 -260 -524 -307 c 0,50,51
 -615 -342 -615 -342 -735 -342 c 1,52,-1
 -735 -205 l 1,53,54
 -726.930992687 -205.301645133 -726.930992687 -205.301645133 -718.93615291 -205.301645133 c 0,55,56
 -643.705077409 -205.301645133 -643.705077409 -205.301645133 -583.631337259 -180.036039054 c 128,-1,57
 -523.557597109 -154.770432974 -523.557597109 -154.770432974 -493 -110 c 0,58,59
 -471 -79 -471 -79 -471 -37 c 0,60,61
 -471 -6 -471 -6 -480.5 18.5 c 128,-1,62
 -490 43 -490 43 -504 60.5 c 128,-1,63
 -518 78 -518 78 -532 95.5 c 128,-1,64
 -546 113 -546 113 -555.5 138 c 128,-1,65
 -565 163 -565 163 -565 193 c 0,41,42
-422 1022 m 0,66,67
 -372 1022 -372 1022 -335 995 c 128,-1,68
 -298 968 -298 968 -280 927 c 0,69,70
 -268 898 -268 898 -268 868 c 0,71,72
 -268 803 -268 803 -312.5 759 c 128,-1,73
 -357 715 -357 715 -422 715 c 0,74,75
 -488 715 -488 715 -531.5 759 c 128,-1,76
 -575 803 -575 803 -575 868 c 0,77,78
 -575 918 -575 918 -549 954.5 c 128,-1,79
 -523 991 -523 991 -482 1010 c 0,80,81
 -455 1022 -455 1022 -422 1022 c 0,66,67
EndSplineSet
PickledDataWithLists: "(dp0
Vcom.schriftgestaltung.Glyphs.lastChange\\u000d
p1
V2019/11/18 23:05:38\\u000d
p2
s."
EndChar

StartChar: slash_asterisk.liga
Encoding: 122 -1 122
GlifName: slash_asterisk.liga
Width: 1126
Flags: W
LayerCount: 2
Fore
SplineSet
820 840 m 1,0,-1
 752 721 l 1,1,-1
 471 907 l 1,2,-1
 494 565 l 1,3,-1
 351 565 l 1,4,-1
 373 907 l 1,5,-1
 86 721 l 1,6,-1
 23 838 l 1,7,-1
 330 989 l 1,8,-1
 23 1143 l 1,9,-1
 92 1260 l 1,10,-1
 375 1071 l 1,11,-1
 351 1413 l 1,12,-1
 494 1413 l 1,13,-1
 469 1071 l 1,14,-1
 752 1262 l 1,15,-1
 822 1139 l 1,16,-1
 514 987 l 1,17,-1
 820 840 l 1,0,-1
-18 1413 m 1,18,-1
 -704 -215 l 1,19,-1
 -870 -215 l 1,20,-1
 -184 1413 l 1,21,-1
 -18 1413 l 1,18,-1
EndSplineSet
PickledDataWithLists: "(dp0
Vcom.schriftgestaltung.Glyphs.lastChange\\u000d
p1
V2019/11/18 23:05:38\\u000d
p2
s."
EndChar

StartChar: slash_equal.liga
Encoding: 123 -1 123
GlifName: slash_equal.liga
Width: 1126
Flags: W
HStem: 298 147<-171 852> 646 147<-24 852>
LayerCount: 2
Fore
SplineSet
852 646 m 5,0,-1
 -86 646 l 1,1,-1
 -24 793 l 1,2,-1
 852 793 l 1,3,-1
 852 646 l 5,0,-1
852 298 m 5,4,-1
 -233 298 l 1,5,-1
 -171 445 l 1,6,-1
 852 445 l 1,7,-1
 852 298 l 5,4,-1
-18 1413 m 5,8,-1
 -704 -215 l 1,9,-1
 -870 -215 l 1,10,-1
 -184 1413 l 1,11,-1
 -18 1413 l 5,8,-1
EndSplineSet
PickledDataWithLists: "(dp0
Vcom.schriftgestaltung.Glyphs.lastChange\\u000d
p1
V2019/11/18 23:05:38\\u000d
p2
s."
EndChar

StartChar: slash_equal_equal.liga
Encoding: 124 -1 124
GlifName: slash_equal_equal.liga
Width: 1126
Flags: W
HStem: 298 147<-1156 852> 646 147<-1009 852>
LayerCount: 2
Fore
SplineSet
-1003 1413 m 1,0,-1
 -1689 -215 l 1,1,-1
 -1855 -215 l 1,2,-1
 -1169 1413 l 1,3,-1
 -1003 1413 l 1,0,-1
-1156 445 m 1,4,-1
 852 445 l 1,5,-1
 852 298 l 1,6,-1
 -1218 298 l 1,7,-1
 -1156 445 l 1,4,-1
-1009 793 m 1,8,-1
 852 793 l 1,9,-1
 852 646 l 1,10,-1
 -1071 646 l 1,11,-1
 -1009 793 l 1,8,-1
EndSplineSet
PickledDataWithLists: "(dp0
Vcom.schriftgestaltung.Glyphs.lastChange\\u000d
p1
V2019/11/18 23:05:38\\u000d
p2
s."
EndChar

StartChar: slash_greater.liga
Encoding: 125 -1 125
GlifName: slash_greater.liga
Width: 1126
Flags: W
LayerCount: 2
Fore
SplineSet
-88 1249 m 1,0,-1
 -704 -215 l 1,1,-1
 -870 -215 l 1,2,-1
 -184 1413 l 1,3,-1
 -18 1413 l 1,4,-1
 848 545 l 1,5,-1
 176 -16 l 1,6,-1
 68 94 l 1,7,-1
 607 538 l 1,8,-1
 -88 1249 l 1,0,-1
EndSplineSet
PickledDataWithLists: "(dp0
Vcom.schriftgestaltung.Glyphs.lastChange\\u000d
p1
V2019/11/18 23:05:38\\u000d
p2
s."
EndChar

StartChar: slash_slash.liga
Encoding: 126 -1 126
GlifName: slash_slash.liga
Width: 1126
Flags: W
LayerCount: 2
Fore
SplineSet
826 1413 m 1,0,-1
 140 -215 l 1,1,-1
 -26 -215 l 1,2,-1
 660 1413 l 1,3,-1
 826 1413 l 1,0,-1
-18 1413 m 1,4,-1
 -704 -215 l 1,5,-1
 -870 -215 l 1,6,-1
 -184 1413 l 1,7,-1
 -18 1413 l 1,4,-1
EndSplineSet
PickledDataWithLists: "(dp0
Vcom.schriftgestaltung.Glyphs.lastChange\\u000d
p1
V2019/11/18 23:05:38\\u000d
p2
s."
EndChar

StartChar: slash_slash_slash.liga
Encoding: 127 -1 127
GlifName: slash_slash_slash.liga
Width: 1126
Flags: W
LayerCount: 2
Fore
SplineSet
685 1413 m 1,0,-1
 -1 -215 l 1,1,-1
 -167 -215 l 1,2,-1
 519 1413 l 1,3,-1
 685 1413 l 1,0,-1
-1003 1413 m 1,4,-1
 -1689 -215 l 1,5,-1
 -1855 -215 l 1,6,-1
 -1169 1413 l 1,7,-1
 -1003 1413 l 1,4,-1
-159 1413 m 1,8,-1
 -845 -215 l 1,9,-1
 -1011 -215 l 1,10,-1
 -325 1413 l 1,11,-1
 -159 1413 l 1,8,-1
EndSplineSet
PickledDataWithLists: "(dp0
Vcom.schriftgestaltung.Glyphs.lastChange\\u000d
p1
V2019/11/18 23:05:38\\u000d
p2
s."
EndChar

StartChar: tilde_tilde_greater.liga
Encoding: 128 -1 128
GlifName: tilde_tilde_greater.liga
Width: 1126
Flags: W
HStem: 343 158<-1195.45 -976.873 -210.422 22.3965> 477 165<158.512 361> 595 158<-1698.43 -1470.55 -704.205 -487.385>
VStem: -1903 159<401 546.281>
LayerCount: 2
Fore
SplineSet
-1903 401 m 1,0,1
 -1903 565 -1903 565 -1820 659 c 128,-1,2
 -1737 753 -1737 753 -1579 753 c 0,3,4
 -1518 753 -1518 753 -1466.5 736 c 128,-1,5
 -1415 719 -1415 719 -1375.5 691 c 128,-1,6
 -1336 663 -1336 663 -1302.5 633.5 c 128,-1,7
 -1269 604 -1269 604 -1229 571 c 128,-1,8
 -1189 538 -1189 538 -1153 519 c 0,9,10
 -1118 501 -1118 501 -1087 501 c 0,11,12
 -1061 501 -1061 501 -1033.5 512.5 c 128,-1,13
 -1006 524 -1006 524 -990.5 535 c 128,-1,14
 -975 546 -975 546 -951 566 c 0,15,16
 -938 576 -938 576 -898 611 c 128,-1,17
 -858 646 -858 646 -837.5 662 c 128,-1,18
 -817 678 -817 678 -780 700.5 c 128,-1,19
 -743 723 -743 723 -708 735 c 0,20,21
 -657 753 -657 753 -599 753 c 0,22,23
 -549 753 -549 753 -505.5 743 c 128,-1,24
 -462 733 -462 733 -422 708.5 c 128,-1,25
 -382 684 -382 684 -359.5 668 c 128,-1,26
 -337 652 -337 652 -294.5 614.5 c 128,-1,27
 -252 577 -252 577 -239 566 c 0,28,29
 -214 546 -214 546 -198 534.5 c 128,-1,30
 -182 523 -182 523 -154 512.5 c 128,-1,31
 -126 502 -126 502 -97 502 c 0,32,33
 -77 502 -77 502 -55.5 508.5 c 128,-1,34
 -34 515 -34 515 -20.5 522 c 128,-1,35
 -7 529 -7 529 15.5 542 c 128,-1,36
 38 555 38 555 46 559 c 0,37,38
 103 589 103 589 123.5 599.5 c 128,-1,39
 144 610 144 610 189 624 c 128,-1,40
 234 638 234 638 281 642 c 1,41,-1
 288 642 l 2,42,43
 308 642 308 642 361 635 c 1,44,-1
 -74 996 l 1,45,-1
 35 1106 l 1,46,-1
 707 545 l 1,47,-1
 35 -16 l 1,48,-1
 -74 95 l 1,49,-1
 381 469 l 1,50,51
 293 477 293 477 279 477 c 128,-1,52
 265 477 265 477 259 476 c 0,53,54
 228 472 228 472 186.5 450 c 128,-1,55
 145 428 145 428 108.5 404.5 c 128,-1,56
 72 381 72 381 15.5 362 c 128,-1,57
 -41 343 -41 343 -100 343 c 0,58,59
 -174 343 -174 343 -238.5 370 c 128,-1,60
 -303 397 -303 397 -342.5 431.5 c 128,-1,61
 -382 466 -382 466 -435 510.5 c 128,-1,62
 -488 555 -488 555 -530 577 c 0,63,64
 -564 595 -564 595 -596 595 c 0,65,66
 -622 595 -622 595 -649.5 583 c 128,-1,67
 -677 571 -677 571 -690 561.5 c 128,-1,68
 -703 552 -703 552 -730 530 c 0,69,70
 -745 518 -745 518 -776.5 489.5 c 128,-1,71
 -808 461 -808 461 -827 445.5 c 128,-1,72
 -846 430 -846 430 -878.5 407.5 c 128,-1,73
 -911 385 -911 385 -939 373 c 128,-1,74
 -967 361 -967 361 -1006 352 c 128,-1,75
 -1045 343 -1045 343 -1087 343 c 0,76,77
 -1148 343 -1148 343 -1199.5 360 c 128,-1,78
 -1251 377 -1251 377 -1290.5 405 c 128,-1,79
 -1330 433 -1330 433 -1363.5 462.5 c 128,-1,80
 -1397 492 -1397 492 -1437 525 c 128,-1,81
 -1477 558 -1477 558 -1513 577 c 0,82,83
 -1548 595 -1548 595 -1586 595 c 0,84,85
 -1670 595 -1670 595 -1701 549 c 0,86,87
 -1744 486 -1744 486 -1744 401 c 1,88,-1
 -1903 401 l 1,0,1
EndSplineSet
PickledDataWithLists: "(dp0
Vcom.schriftgestaltung.Glyphs.lastChange\\u000d
p1
V2019/11/18 23:07:02\\u000d
p2
s."
EndChar

StartChar: underscore_bar_underscore.liga
Encoding: 129 -1 129
GlifName: underscore_bar_underscore.liga
Width: 1126
Flags: W
HStem: -410 144<-1970 -645 -481 844>
VStem: -645 164<-266 1638>
LayerCount: 2
Fore
SplineSet
-481 -266 m 1,0,-1
 844 -266 l 1,1,-1
 844 -410 l 1,2,-1
 -1970 -410 l 1,3,-1
 -1970 -266 l 1,4,-1
 -645 -266 l 1,5,-1
 -645 1638 l 1,6,-1
 -481 1638 l 1,7,-1
 -481 -266 l 1,0,-1
EndSplineSet
PickledDataWithLists: "(dp0
Vcom.schriftgestaltung.Glyphs.lastChange\\u000d
p1
V2019/11/18 23:05:38\\u000d
p2
s."
EndChar

StartChar: underscore_underscore.liga
Encoding: 130 -1 130
GlifName: underscore_underscore.liga
Width: 1126
Flags: W
HStem: -410 144<-985 985>
LayerCount: 2
Fore
SplineSet
-985 -266 m 1,0,-1
 985 -266 l 1,1,-1
 985 -410 l 1,2,-1
 -985 -410 l 1,3,-1
 -985 -266 l 1,0,-1
EndSplineSet
PickledDataWithLists: "(dp0
Vcom.schriftgestaltung.Glyphs.lastChange\\u000d
p1
V2019/11/18 23:05:38\\u000d
p2
s."
EndChar

StartChar: w_w_w.liga
Encoding: 131 -1 131
GlifName: w_w_w.liga
Width: 1126
Flags: W
HStem: 0 21G<-1861.38 -1604 -1239.97 -1000.35 -946.902 -710.5 -399.905 -179.13 -132.565 125 489.032 728.347>
VStem: -208 172<616.575 1004> 656 159<1094.08 1307>
LayerCount: 2
Fore
SplineSet
815 1307 m 1,0,-1
 727 0 l 1,1,-1
 496 0 l 1,2,-1
 334 465 l 1,3,-1
 289 614 l 1,4,5
 263 520 263 520 230.5 419 c 128,-1,6
 198 318 198 318 155 190.5 c 128,-1,7
 112 63 112 63 92 0 c 1,8,-1
 -131 0 l 1,9,-1
 -149 230 l 1,10,-1
 -182 0 l 1,11,-1
 -393 0 l 1,12,-1
 -538 420 l 1,13,-1
 -567 522 l 1,14,15
 -598 416 -598 416 -664.5 220 c 128,-1,16
 -731 24 -731 24 -739 0 c 1,17,-1
 -944 0 l 1,18,-1
 -981 255 l 1,19,-1
 -1002 0 l 1,20,-1
 -1233 0 l 1,21,-1
 -1395 465 l 1,22,-1
 -1440 614 l 1,23,24
 -1466 520 -1466 520 -1498.5 419 c 128,-1,25
 -1531 318 -1531 318 -1574 190.5 c 128,-1,26
 -1617 63 -1617 63 -1637 0 c 1,27,-1
 -1860 0 l 1,28,-1
 -1950 1307 l 1,29,-1
 -1782 1307 l 1,30,-1
 -1731 418 l 1,31,-1
 -1716 174 l 1,32,33
 -1685 279 -1685 279 -1649 391.5 c 128,-1,34
 -1613 504 -1613 504 -1565 651.5 c 128,-1,35
 -1517 799 -1517 799 -1495 866 c 1,36,-1
 -1372 866 l 1,37,38
 -1150 234 -1150 234 -1129 174 c 1,39,-1
 -1125 354 l 1,40,-1
 -1089 1004 l 1,41,-1
 -919 1004 l 1,42,-1
 -817 170 l 1,43,44
 -786 268 -786 268 -723 462 c 128,-1,45
 -660 656 -660 656 -628 754 c 1,46,-1
 -503 754 l 1,47,48
 -486 706 -486 706 -412.5 498 c 128,-1,49
 -339 290 -339 290 -301 176 c 1,50,-1
 -208 1004 l 1,51,-1
 -36 1004 l 1,52,53
 -4 450 -4 450 13 174 c 1,54,55
 44 279 44 279 80 391.5 c 128,-1,56
 116 504 116 504 164 651.5 c 128,-1,57
 212 799 212 799 234 866 c 1,58,-1
 357 866 l 1,59,60
 579 234 579 234 600 174 c 1,61,-1
 604 354 l 1,62,-1
 656 1307 l 1,63,-1
 815 1307 l 1,0,-1
EndSplineSet
PickledDataWithLists: "(dp0
Vcom.schriftgestaltung.Glyphs.glyph.rightMetricsKey\\u000d
p1
Vw\\u000d
p2
sVcom.schriftgestaltung.Glyphs.lastChange\\u000d
p3
V2019/11/18 23:05:38\\u000d
p4
s."
EndChar

StartChar: zero.dnom
Encoding: 132 -1 132
GlifName: zero.dnom
Width: 1126
Flags: W
HStem: -16 139<448.72 672.536> 659 140<453.066 677.28>
VStem: 205 178<190.103 584.855> 743 178<197.647 592.003>
LayerCount: 2
Fore
SplineSet
573 799 m 4,0,1
 747 799 747 799 834 692.5 c 128,-1,2
 921 586 921 586 921 397 c 0,3,4
 921 206 921 206 827 95 c 128,-1,5
 733 -16 733 -16 553 -16 c 0,6,7
 379 -16 379 -16 292 90 c 128,-1,8
 205 196 205 196 205 385 c 0,9,10
 205 577 205 577 298.5 688 c 128,-1,11
 392 799 392 799 573 799 c 4,0,1
383 391 m 4,12,13
 383 331 383 331 391.5 285 c 128,-1,14
 400 239 400 239 419.5 201 c 128,-1,15
 439 163 439 163 475 143 c 128,-1,16
 511 123 511 123 563 123 c 0,17,18
 612 123 612 123 648 144.5 c 128,-1,19
 684 166 684 166 704 204.5 c 128,-1,20
 724 243 724 243 733.5 289 c 128,-1,21
 743 335 743 335 743 391 c 0,22,23
 743 451 743 451 734.5 497 c 128,-1,24
 726 543 726 543 706.5 581 c 128,-1,25
 687 619 687 619 651 639 c 128,-1,26
 615 659 615 659 563 659 c 0,27,28
 498 659 498 659 456 620.5 c 128,-1,29
 414 582 414 582 398.5 524.5 c 128,-1,30
 383 467 383 467 383 391 c 4,12,13
EndSplineSet
EndChar

StartChar: one.dnom
Encoding: 133 -1 133
GlifName: one.dnom
Width: 1126
Flags: W
HStem: 0 145<266 504 678 879>
VStem: 504 174<145 612>
LayerCount: 2
Fore
SplineSet
879 0 m 1,0,-1
 266 0 l 1,1,-1
 266 145 l 1,2,-1
 504 145 l 1,3,-1
 504 612 l 1,4,-1
 285 504 l 1,5,-1
 227 635 l 1,6,-1
 539 791 l 1,7,-1
 678 791 l 1,8,-1
 678 145 l 1,9,-1
 879 145 l 1,10,-1
 879 0 l 1,0,-1
EndSplineSet
EndChar

StartChar: two.dnom
Encoding: 134 -1 134
GlifName: two.dnom
Width: 1126
Flags: W
HStem: 0 154<498 883> 649 150<370.205 631.26>
VStem: 651 185<437.519 627.319>
LayerCount: 2
Fore
SplineSet
252 686 m 1,0,1
 365 799 365 799 539 799 c 0,2,3
 638 799 638 799 708.5 763 c 128,-1,4
 779 727 779 727 813 660 c 0,5,6
 836 614 836 614 836 555 c 0,7,8
 836 476 836 476 802.5 420.5 c 128,-1,9
 769 365 769 365 709 312 c 0,10,11
 668 275 668 275 612 236 c 2,12,-1
 498 154 l 1,13,-1
 883 154 l 1,14,-1
 883 0 l 1,15,-1
 246 0 l 1,16,-1
 246 143 l 1,17,-1
 463 311 l 2,18,19
 576 398 576 398 615 446 c 0,20,21
 651 490 651 490 651 543 c 0,22,23
 651 595 651 595 614.5 622 c 128,-1,24
 578 649 578 649 518 649 c 0,25,26
 416 649 416 649 338 580 c 1,27,-1
 252 686 l 1,0,1
EndSplineSet
EndChar

StartChar: three.dnom
Encoding: 135 -1 135
GlifName: three.dnom
Width: 1126
Flags: W
HStem: -16 140<276.549 647.937> 338 129<393 617.186> 659 140<293.945 628.173>
VStem: 641 180<493.316 642.238> 678 184<159.736 310.433>
LayerCount: 2
Fore
SplineSet
696 418 m 1,0,1
 773 397 773 397 817.5 356 c 128,-1,2
 862 315 862 315 862 238 c 0,3,4
 862 58 862 58 642 2 c 0,5,6
 568 -16 568 -16 473 -16 c 0,7,8
 338 -16 338 -16 274 0 c 1,9,-1
 274 140 l 1,10,11
 343 124 343 124 479 124 c 0,12,13
 531 124 531 124 573.5 133 c 128,-1,14
 616 142 616 142 647 167.5 c 128,-1,15
 678 193 678 193 678 233 c 0,16,17
 678 266 678 266 661 288 c 128,-1,18
 644 310 644 310 612.5 320.5 c 128,-1,19
 581 331 581 331 549.5 334.5 c 128,-1,20
 518 338 518 338 475 338 c 2,21,-1
 393 338 l 1,22,-1
 393 467 l 1,23,-1
 469 467 l 2,24,25
 641 467 641 467 641 573 c 0,26,27
 641 659 641 659 500 659 c 0,28,29
 392 659 392 659 291 627 c 1,30,-1
 291 768 l 1,31,32
 396 799 396 799 532 799 c 0,33,34
 663 799 663 799 742 752 c 128,-1,35
 821 705 821 705 821 604 c 0,36,37
 821 473 821 473 696 418 c 1,0,1
EndSplineSet
EndChar

StartChar: four.dnom
Encoding: 136 -1 136
GlifName: four.dnom
Width: 1126
Flags: W
HStem: 0 21G<623 784> 145 150<385 623 784 920>
VStem: 627 157<0 145 295 643>
LayerCount: 2
Fore
SplineSet
920 145 m 1,0,-1
 784 145 l 1,1,-1
 784 0 l 1,2,-1
 623 0 l 1,3,-1
 623 145 l 1,4,-1
 211 145 l 1,5,-1
 211 289 l 1,6,-1
 555 782 l 1,7,-1
 784 782 l 1,8,-1
 784 295 l 1,9,-1
 920 295 l 1,10,-1
 920 145 l 1,0,-1
627 643 m 1,11,-1
 385 295 l 1,12,-1
 627 295 l 1,13,-1
 627 643 l 1,11,-1
EndSplineSet
EndChar

StartChar: five.dnom
Encoding: 137 -1 137
GlifName: five.dnom
Width: 1126
Flags: W
HStem: -16 141<295.794 657.453> 342 135<465 666.031> 629 153<465 823>
VStem: 309 156<477 629> 688 178<157.498 319.279>
LayerCount: 2
Fore
SplineSet
535 477 m 2,0,1
 611 477 611 477 667 467.5 c 128,-1,2
 723 458 723 458 770 434 c 128,-1,3
 817 410 817 410 841.5 363.5 c 128,-1,4
 866 317 866 317 866 248 c 0,5,6
 866 177 866 177 834 124 c 128,-1,7
 802 71 802 71 746.5 41.5 c 128,-1,8
 691 12 691 12 624 -2 c 128,-1,9
 557 -16 557 -16 479 -16 c 0,10,11
 409 -16 409 -16 293 2 c 1,12,-1
 293 147 l 1,13,14
 415 125 415 125 487 125 c 0,15,16
 688 125 688 125 688 240 c 0,17,18
 688 275 688 275 672 297 c 128,-1,19
 656 319 656 319 622 328 c 128,-1,20
 588 337 588 337 560 339.5 c 128,-1,21
 532 342 532 342 483 342 c 2,22,-1
 309 342 l 1,23,-1
 309 782 l 1,24,-1
 823 782 l 1,25,-1
 823 629 l 1,26,-1
 465 629 l 1,27,-1
 465 477 l 1,28,-1
 535 477 l 2,0,1
EndSplineSet
EndChar

StartChar: six.dnom
Encoding: 138 -1 138
GlifName: six.dnom
Width: 1126
Flags: W
HStem: -16 141<456.268 686.587> 350 137<425.861 691.384> 641 141<489.016 807>
VStem: 238 186<159.823 338.379 463 573.056> 713 174<153.783 325.274>
LayerCount: 2
Fore
SplineSet
590 487 m 0,0,1
 731 487 731 487 809 428 c 128,-1,2
 887 369 887 369 887 246 c 0,3,4
 887 117 887 117 795 50.5 c 128,-1,5
 703 -16 703 -16 559 -16 c 0,6,7
 238 -16 238 -16 238 334 c 0,8,9
 238 563 238 563 348 672.5 c 128,-1,10
 458 782 458 782 690 782 c 2,11,-1
 807 782 l 1,12,-1
 807 641 l 1,13,-1
 678 641 l 2,14,15
 560 641 560 641 496.5 603.5 c 128,-1,16
 433 566 433 566 424 473 c 1,17,-1
 424 463 l 1,18,19
 498 487 498 487 590 487 c 0,0,1
569 125 m 0,20,21
 632 125 632 125 672.5 155.5 c 128,-1,22
 713 186 713 186 713 240 c 0,23,24
 713 296 713 296 674 323 c 128,-1,25
 635 350 635 350 567 350 c 0,26,27
 494 350 494 350 418 324 c 1,28,29
 418 223 418 223 451.5 174 c 128,-1,30
 485 125 485 125 569 125 c 0,20,21
EndSplineSet
EndChar

StartChar: seven.dnom
Encoding: 139 -1 139
GlifName: seven.dnom
Width: 1126
Flags: W
HStem: 0 21G<330 530.601> 629 153<256 672>
VStem: 256 608<649 782>
LayerCount: 2
Fore
SplineSet
864 649 m 1,0,-1
 520 0 l 1,1,-1
 330 0 l 1,2,-1
 672 629 l 1,3,-1
 256 629 l 1,4,-1
 256 782 l 1,5,-1
 864 782 l 1,6,-1
 864 649 l 1,0,-1
EndSplineSet
EndChar

StartChar: eight.dnom
Encoding: 140 -1 140
GlifName: eight.dnom
Width: 1126
Flags: W
HStem: -16 129<431.129 698.588> 672 127<433.163 692.398>
VStem: 252 164<134.029 287.803 532.917 653.126> 711 163<131.201 276.131 523.84 650.082>
LayerCount: 2
Fore
SplineSet
717 414 m 1,0,1
 791 381 791 381 832.5 334.5 c 128,-1,2
 874 288 874 288 874 207 c 0,3,4
 874 147 874 147 848.5 103 c 128,-1,5
 823 59 823 59 778 33.5 c 128,-1,6
 733 8 733 8 678.5 -4 c 128,-1,7
 624 -16 624 -16 559 -16 c 0,8,9
 469 -16 469 -16 403 2.5 c 128,-1,10
 337 21 337 21 294.5 68.5 c 128,-1,11
 252 116 252 116 252 190 c 0,12,13
 252 266 252 266 295.5 312.5 c 128,-1,14
 339 359 339 359 412 395 c 1,15,16
 344 428 344 428 305 471 c 128,-1,17
 266 514 266 514 266 588 c 128,-1,18
 266 662 266 662 309.5 710.5 c 128,-1,19
 353 759 353 759 418 779 c 128,-1,20
 483 799 483 799 567 799 c 0,21,22
 697 799 697 799 778.5 752 c 128,-1,23
 860 705 860 705 860 604 c 0,24,25
 860 487 860 487 717 414 c 1,0,1
582 473 m 1,26,27
 635 495 635 495 667.5 523.5 c 128,-1,28
 700 552 700 552 700 598 c 0,29,30
 700 672 700 672 563 672 c 128,-1,31
 426 672 426 672 426 598 c 0,32,33
 426 578 426 578 434 562 c 128,-1,34
 442 546 442 546 458.5 534 c 128,-1,35
 475 522 475 522 487.5 514.5 c 128,-1,36
 500 507 500 507 520 498 c 0,37,38
 547 485 547 485 582 473 c 1,26,27
563 113 m 0,39,40
 711 113 711 113 711 201 c 0,41,42
 711 221 711 221 701.5 238 c 128,-1,43
 692 255 692 255 682 266 c 128,-1,44
 672 277 672 277 649 289 c 128,-1,45
 626 301 626 301 614.5 305.5 c 128,-1,46
 603 310 603 310 575.5 320 c 128,-1,47
 548 330 548 330 543 332 c 0,48,49
 514 319 514 319 498.5 311 c 128,-1,50
 483 303 483 303 460 287 c 128,-1,51
 437 271 437 271 426.5 249.5 c 128,-1,52
 416 228 416 228 416 201 c 0,53,54
 416 113 416 113 563 113 c 0,39,40
EndSplineSet
EndChar

StartChar: nine.dnom
Encoding: 141 -1 141
GlifName: nine.dnom
Width: 1126
Flags: W
HStem: 0 143<291 632.699> 295 141<428.597 696.496> 657 142<432.77 660.21>
VStem: 233 175<459.477 628.945> 702 181<446.74 611.651>
LayerCount: 2
Fore
SplineSet
559 799 m 256,0,1
 729 799 729 799 806 709.5 c 128,-1,2
 883 620 883 620 883 440 c 0,3,4
 883 71 883 71 589 16 c 0,5,6
 499 0 499 0 416 0 c 2,7,-1
 291 0 l 1,8,-1
 291 143 l 1,9,-1
 436 143 l 2,10,11
 558 143 558 143 621.5 178.5 c 128,-1,12
 685 214 685 214 696 309 c 1,13,-1
 698 317 l 1,14,15
 631 295 631 295 530 295 c 0,16,17
 233 295 233 295 233 537 c 0,18,19
 233 633 233 633 287 694 c 128,-1,20
 341 755 341 755 428 781 c 0,21,22
 488 799 488 799 559 799 c 256,0,1
702 463 m 1,23,24
 702 557 702 557 667.5 607 c 128,-1,25
 633 657 633 657 551 657 c 0,26,27
 488 657 488 657 448 627 c 128,-1,28
 408 597 408 597 408 543 c 0,29,30
 408 436 408 436 555 436 c 0,31,32
 657 436 657 436 702 463 c 1,23,24
EndSplineSet
EndChar

StartChar: zero.numr
Encoding: 142 -1 142
GlifName: zero.numr
Width: 1126
Flags: W
HStem: 615 139<448.72 672.536> 1290 140<453.066 677.28>
VStem: 205 178<821.103 1215.85> 743 178<828.647 1223>
LayerCount: 2
Fore
SplineSet
573 1430 m 0,0,1
 747 1430 747 1430 834 1323.5 c 128,-1,2
 921 1217 921 1217 921 1028 c 0,3,4
 921 837 921 837 827 726 c 128,-1,5
 733 615 733 615 553 615 c 0,6,7
 379 615 379 615 292 721 c 128,-1,8
 205 827 205 827 205 1016 c 0,9,10
 205 1208 205 1208 298.5 1319 c 128,-1,11
 392 1430 392 1430 573 1430 c 0,0,1
383 1022 m 0,12,13
 383 962 383 962 391.5 916 c 128,-1,14
 400 870 400 870 419.5 832 c 128,-1,15
 439 794 439 794 475 774 c 128,-1,16
 511 754 511 754 563 754 c 0,17,18
 612 754 612 754 648 775.5 c 128,-1,19
 684 797 684 797 704 835.5 c 128,-1,20
 724 874 724 874 733.5 920 c 128,-1,21
 743 966 743 966 743 1022 c 0,22,23
 743 1082 743 1082 734.5 1128 c 128,-1,24
 726 1174 726 1174 706.5 1212 c 128,-1,25
 687 1250 687 1250 651 1270 c 128,-1,26
 615 1290 615 1290 563 1290 c 0,27,28
 498 1290 498 1290 456 1251.5 c 128,-1,29
 414 1213 414 1213 398.5 1155.5 c 128,-1,30
 383 1098 383 1098 383 1022 c 0,12,13
EndSplineSet
EndChar

StartChar: one.numr
Encoding: 143 -1 143
GlifName: one.numr
Width: 1126
Flags: W
HStem: 631 145<266 504 678 879>
VStem: 504 174<776 1243>
LayerCount: 2
Fore
SplineSet
879 631 m 1,0,-1
 266 631 l 1,1,-1
 266 776 l 1,2,-1
 504 776 l 1,3,-1
 504 1243 l 1,4,-1
 285 1135 l 1,5,-1
 227 1266 l 1,6,-1
 539 1422 l 1,7,-1
 678 1422 l 1,8,-1
 678 776 l 1,9,-1
 879 776 l 1,10,-1
 879 631 l 1,0,-1
EndSplineSet
EndChar

StartChar: two.numr
Encoding: 144 -1 144
GlifName: two.numr
Width: 1126
Flags: W
HStem: 631 154<498 883> 1280 150<370.205 631.26>
VStem: 651 185<1066.05 1257.89>
LayerCount: 2
Fore
SplineSet
252 1317 m 1,0,1
 365 1430 365 1430 539 1430 c 0,2,3
 743 1430 743 1430 813 1292 c 0,4,5
 836 1246 836 1246 836 1186 c 0,6,7
 836 1107 836 1107 802.5 1051.5 c 128,-1,8
 769 996 769 996 709 943 c 0,9,10
 668 906 668 906 612 867 c 2,11,-1
 498 785 l 1,12,-1
 883 785 l 1,13,-1
 883 631 l 1,14,-1
 246 631 l 1,15,-1
 246 774 l 1,16,-1
 463 942 l 2,17,18
 468 945 468 945 485.5 959 c 128,-1,19
 503 973 503 973 507.5 976.5 c 128,-1,20
 512 980 512 980 526.5 991.5 c 128,-1,21
 541 1003 541 1003 547 1008 c 128,-1,22
 553 1013 553 1013 564.5 1023.5 c 128,-1,23
 576 1034 576 1034 583 1041 c 128,-1,24
 590 1048 590 1048 598.5 1057.5 c 128,-1,25
 607 1067 607 1067 615 1076 c 0,26,27
 651 1120 651 1120 651 1174 c 0,28,29
 651 1226 651 1226 614.5 1253 c 128,-1,30
 578 1280 578 1280 518 1280 c 0,31,32
 416 1280 416 1280 338 1211 c 1,33,-1
 252 1317 l 1,0,1
EndSplineSet
EndChar

StartChar: three.numr
Encoding: 145 -1 145
GlifName: three.numr
Width: 1126
Flags: W
HStem: 615 140<276.549 647.937> 969 129<393 617.186> 1290 140<293.945 628.173>
VStem: 641 180<1124.32 1273.24> 678 184<788.215 941.433>
LayerCount: 2
Fore
SplineSet
696 1049 m 1,0,1
 773 1028 773 1028 817.5 987 c 128,-1,2
 862 946 862 946 862 869 c 0,3,4
 862 690 862 690 642 634 c 0,5,6
 564 615 564 615 473 615 c 0,7,8
 338 615 338 615 274 631 c 1,9,-1
 274 771 l 1,10,11
 343 755 343 755 479 755 c 0,12,13
 531 755 531 755 573.5 764 c 128,-1,14
 616 773 616 773 647 798.5 c 128,-1,15
 678 824 678 824 678 864 c 0,16,17
 678 897 678 897 661 919 c 128,-1,18
 644 941 644 941 612.5 951.5 c 128,-1,19
 581 962 581 962 549.5 965.5 c 128,-1,20
 518 969 518 969 475 969 c 2,21,-1
 393 969 l 1,22,-1
 393 1098 l 1,23,-1
 469 1098 l 2,24,25
 641 1098 641 1098 641 1204 c 0,26,27
 641 1290 641 1290 500 1290 c 0,28,29
 392 1290 392 1290 291 1258 c 1,30,-1
 291 1399 l 1,31,32
 396 1430 396 1430 532 1430 c 0,33,34
 663 1430 663 1430 742 1383 c 128,-1,35
 821 1336 821 1336 821 1235 c 0,36,37
 821 1104 821 1104 696 1049 c 1,0,1
EndSplineSet
EndChar

StartChar: four.numr
Encoding: 146 -1 146
GlifName: four.numr
Width: 1126
Flags: W
HStem: 776 150<385 623 784 920>
VStem: 627 157<631 776 926 1274>
LayerCount: 2
Fore
SplineSet
920 776 m 1,0,-1
 784 776 l 1,1,-1
 784 631 l 1,2,-1
 623 631 l 1,3,-1
 623 776 l 1,4,-1
 211 776 l 1,5,-1
 211 920 l 1,6,-1
 555 1413 l 1,7,-1
 784 1413 l 1,8,-1
 784 926 l 1,9,-1
 920 926 l 1,10,-1
 920 776 l 1,0,-1
627 1274 m 1,11,-1
 385 926 l 1,12,-1
 627 926 l 1,13,-1
 627 1274 l 1,11,-1
EndSplineSet
EndChar

StartChar: five.numr
Encoding: 147 -1 147
GlifName: five.numr
Width: 1126
Flags: W
HStem: 615 141<295.794 657.453> 973 135<465 666.031> 1260 153<465 823>
VStem: 309 156<1108 1260> 688 178<788.498 950.279>
LayerCount: 2
Fore
SplineSet
535 1108 m 2,0,1
 611 1108 611 1108 667 1098.5 c 128,-1,2
 723 1089 723 1089 770 1065 c 128,-1,3
 817 1041 817 1041 841.5 994.5 c 128,-1,4
 866 948 866 948 866 879 c 0,5,6
 866 808 866 808 834 755 c 128,-1,7
 802 702 802 702 746.5 672.5 c 128,-1,8
 691 643 691 643 624 629 c 128,-1,9
 557 615 557 615 479 615 c 0,10,11
 409 615 409 615 293 633 c 1,12,-1
 293 778 l 1,13,14
 415 756 415 756 487 756 c 0,15,16
 688 756 688 756 688 871 c 0,17,18
 688 906 688 906 672 928 c 128,-1,19
 656 950 656 950 622 959 c 128,-1,20
 588 968 588 968 560 970.5 c 128,-1,21
 532 973 532 973 483 973 c 2,22,-1
 309 973 l 1,23,-1
 309 1413 l 1,24,-1
 823 1413 l 1,25,-1
 823 1260 l 1,26,-1
 465 1260 l 1,27,-1
 465 1108 l 1,28,-1
 535 1108 l 2,0,1
EndSplineSet
EndChar

StartChar: six.numr
Encoding: 148 -1 148
GlifName: six.numr
Width: 1126
Flags: W
HStem: 615 141<456.268 686.587> 981 137<425.861 691.384> 1272 141<489.016 807>
VStem: 238 186<790.823 969.379 1094 1204.06> 713 174<784.783 956.274>
LayerCount: 2
Fore
SplineSet
590 1118 m 0,0,1
 731 1118 731 1118 809 1059 c 128,-1,2
 887 1000 887 1000 887 877 c 0,3,4
 887 748 887 748 795 681.5 c 128,-1,5
 703 615 703 615 559 615 c 0,6,7
 238 615 238 615 238 965 c 0,8,9
 238 1194 238 1194 348 1303.5 c 128,-1,10
 458 1413 458 1413 690 1413 c 2,11,-1
 807 1413 l 1,12,-1
 807 1272 l 1,13,-1
 678 1272 l 2,14,15
 560 1272 560 1272 496.5 1234.5 c 128,-1,16
 433 1197 433 1197 424 1104 c 1,17,-1
 424 1094 l 1,18,19
 498 1118 498 1118 590 1118 c 0,0,1
569 756 m 0,20,21
 632 756 632 756 672.5 786.5 c 128,-1,22
 713 817 713 817 713 871 c 0,23,24
 713 927 713 927 674 954 c 128,-1,25
 635 981 635 981 567 981 c 0,26,27
 494 981 494 981 418 955 c 1,28,29
 418 854 418 854 451.5 805 c 128,-1,30
 485 756 485 756 569 756 c 0,20,21
EndSplineSet
EndChar

StartChar: seven.numr
Encoding: 149 -1 149
GlifName: seven.numr
Width: 1126
Flags: W
HStem: 1260 153<256 672>
VStem: 256 608<1280 1413>
LayerCount: 2
Fore
SplineSet
864 1280 m 1,0,-1
 520 631 l 1,1,-1
 330 631 l 1,2,-1
 672 1260 l 1,3,-1
 256 1260 l 1,4,-1
 256 1413 l 1,5,-1
 864 1413 l 1,6,-1
 864 1280 l 1,0,-1
EndSplineSet
EndChar

StartChar: eight.numr
Encoding: 150 -1 150
GlifName: eight.numr
Width: 1126
Flags: W
HStem: 615 129<431.129 698.588> 1303 127<433.163 692.398>
VStem: 252 164<765.029 918.803 1163.92 1284.13> 711 163<762.201 907.131 1154.84 1281.08>
LayerCount: 2
Fore
SplineSet
717 1045 m 1,0,1
 791 1012 791 1012 832.5 965.5 c 128,-1,2
 874 919 874 919 874 838 c 0,3,4
 874 778 874 778 848.5 734 c 128,-1,5
 823 690 823 690 778 664.5 c 128,-1,6
 733 639 733 639 678.5 627 c 128,-1,7
 624 615 624 615 559 615 c 0,8,9
 469 615 469 615 403 633.5 c 128,-1,10
 337 652 337 652 294.5 699.5 c 128,-1,11
 252 747 252 747 252 821 c 0,12,13
 252 897 252 897 295.5 943.5 c 128,-1,14
 339 990 339 990 412 1026 c 1,15,16
 344 1059 344 1059 305 1102 c 128,-1,17
 266 1145 266 1145 266 1219 c 128,-1,18
 266 1293 266 1293 309.5 1341.5 c 128,-1,19
 353 1390 353 1390 418 1410 c 128,-1,20
 483 1430 483 1430 567 1430 c 0,21,22
 697 1430 697 1430 778.5 1383 c 128,-1,23
 860 1336 860 1336 860 1235 c 0,24,25
 860 1118 860 1118 717 1045 c 1,0,1
582 1104 m 1,26,27
 635 1126 635 1126 667.5 1154.5 c 128,-1,28
 700 1183 700 1183 700 1229 c 0,29,30
 700 1303 700 1303 563 1303 c 128,-1,31
 426 1303 426 1303 426 1229 c 0,32,33
 426 1209 426 1209 434 1193 c 128,-1,34
 442 1177 442 1177 458.5 1165 c 128,-1,35
 475 1153 475 1153 487.5 1145.5 c 128,-1,36
 500 1138 500 1138 520 1129 c 0,37,38
 547 1116 547 1116 582 1104 c 1,26,27
563 744 m 0,39,40
 711 744 711 744 711 832 c 0,41,42
 711 852 711 852 701.5 869 c 128,-1,43
 692 886 692 886 682 897 c 128,-1,44
 672 908 672 908 649 920 c 128,-1,45
 626 932 626 932 614.5 936.5 c 128,-1,46
 603 941 603 941 575.5 951 c 128,-1,47
 548 961 548 961 543 963 c 0,48,49
 514 950 514 950 498.5 942 c 128,-1,50
 483 934 483 934 460 918 c 128,-1,51
 437 902 437 902 426.5 880.5 c 128,-1,52
 416 859 416 859 416 832 c 0,53,54
 416 744 416 744 563 744 c 0,39,40
EndSplineSet
EndChar

StartChar: nine.numr
Encoding: 151 -1 151
GlifName: nine.numr
Width: 1126
Flags: W
HStem: 631 143<291 632.699> 926 141<428.597 696.496> 1288 142<432.77 660.21>
VStem: 233 175<1090.48 1259.95> 702 181<1077.74 1242.65>
LayerCount: 2
Fore
SplineSet
559 1430 m 256,0,1
 729 1430 729 1430 806 1340.5 c 128,-1,2
 883 1251 883 1251 883 1071 c 0,3,4
 883 701 883 701 589 646 c 0,5,6
 505 631 505 631 416 631 c 2,7,-1
 291 631 l 1,8,-1
 291 774 l 1,9,-1
 436 774 l 2,10,11
 558 774 558 774 621.5 809.5 c 128,-1,12
 685 845 685 845 696 940 c 1,13,-1
 698 948 l 1,14,15
 631 926 631 926 530 926 c 0,16,17
 233 926 233 926 233 1168 c 0,18,19
 233 1264 233 1264 287 1325 c 128,-1,20
 341 1386 341 1386 428 1412 c 0,21,22
 488 1430 488 1430 559 1430 c 256,0,1
702 1094 m 1,23,24
 702 1188 702 1188 667.5 1238 c 128,-1,25
 633 1288 633 1288 551 1288 c 0,26,27
 488 1288 488 1288 448 1258 c 128,-1,28
 408 1228 408 1228 408 1174 c 0,29,30
 408 1067 408 1067 555 1067 c 0,31,32
 657 1067 657 1067 702 1094 c 1,23,24
EndSplineSet
EndChar

StartChar: zeroinferior
Encoding: 152 -1 152
GlifName: zeroinferior
Width: 1126
Flags: W
HStem: -16 139<448.72 672.536> 659 140<453.066 677.28>
VStem: 205 178<190.103 584.855> 743 178<197.647 592.003>
LayerCount: 2
Fore
SplineSet
573 799 m 0,0,1
 747 799 747 799 834 692.5 c 128,-1,2
 921 586 921 586 921 397 c 0,3,4
 921 206 921 206 827 95 c 128,-1,5
 733 -16 733 -16 553 -16 c 0,6,7
 379 -16 379 -16 292 90 c 128,-1,8
 205 196 205 196 205 385 c 0,9,10
 205 577 205 577 298.5 688 c 128,-1,11
 392 799 392 799 573 799 c 0,0,1
383 391 m 0,12,13
 383 331 383 331 391.5 285 c 128,-1,14
 400 239 400 239 419.5 201 c 128,-1,15
 439 163 439 163 475 143 c 128,-1,16
 511 123 511 123 563 123 c 0,17,18
 612 123 612 123 648 144.5 c 128,-1,19
 684 166 684 166 704 204.5 c 128,-1,20
 724 243 724 243 733.5 289 c 128,-1,21
 743 335 743 335 743 391 c 0,22,23
 743 451 743 451 734.5 497 c 128,-1,24
 726 543 726 543 706.5 581 c 128,-1,25
 687 619 687 619 651 639 c 128,-1,26
 615 659 615 659 563 659 c 0,27,28
 498 659 498 659 456 620.5 c 128,-1,29
 414 582 414 582 398.5 524.5 c 128,-1,30
 383 467 383 467 383 391 c 0,12,13
EndSplineSet
EndChar

StartChar: oneinferior
Encoding: 153 -1 153
GlifName: oneinferior
Width: 1126
Flags: W
HStem: 0 145<266 504 678 879>
VStem: 504 174<145 612>
LayerCount: 2
Fore
SplineSet
879 0 m 1,0,-1
 266 0 l 1,1,-1
 266 145 l 1,2,-1
 504 145 l 1,3,-1
 504 612 l 1,4,-1
 285 504 l 1,5,-1
 227 635 l 1,6,-1
 539 791 l 1,7,-1
 678 791 l 1,8,-1
 678 145 l 1,9,-1
 879 145 l 1,10,-1
 879 0 l 1,0,-1
EndSplineSet
EndChar

StartChar: twoinferior
Encoding: 154 -1 154
GlifName: twoinferior
Width: 1126
Flags: W
HStem: 0 154<498 883> 649 150<370.205 631.26>
VStem: 651 185<437.519 627.319>
LayerCount: 2
Fore
SplineSet
252 686 m 1,0,1
 365 799 365 799 539 799 c 0,2,3
 638 799 638 799 708.5 763 c 128,-1,4
 779 727 779 727 813 660 c 0,5,6
 836 614 836 614 836 555 c 0,7,8
 836 476 836 476 802.5 420.5 c 128,-1,9
 769 365 769 365 709 312 c 0,10,11
 668 275 668 275 612 236 c 2,12,-1
 498 154 l 1,13,-1
 883 154 l 1,14,-1
 883 0 l 1,15,-1
 246 0 l 1,16,-1
 246 143 l 1,17,-1
 463 311 l 2,18,19
 576 398 576 398 615 446 c 0,20,21
 651 490 651 490 651 543 c 0,22,23
 651 595 651 595 614.5 622 c 128,-1,24
 578 649 578 649 518 649 c 0,25,26
 416 649 416 649 338 580 c 1,27,-1
 252 686 l 1,0,1
EndSplineSet
EndChar

StartChar: threeinferior
Encoding: 155 -1 155
GlifName: threeinferior
Width: 1126
Flags: W
HStem: -16 140<276.549 647.937> 338 129<393 617.186> 659 140<293.945 628.173>
VStem: 641 180<493.316 642.238> 678 184<159.736 310.433>
LayerCount: 2
Fore
SplineSet
696 418 m 1,0,1
 773 397 773 397 817.5 356 c 128,-1,2
 862 315 862 315 862 238 c 0,3,4
 862 58 862 58 642 2 c 0,5,6
 568 -16 568 -16 473 -16 c 0,7,8
 338 -16 338 -16 274 0 c 1,9,-1
 274 140 l 1,10,11
 343 124 343 124 479 124 c 0,12,13
 531 124 531 124 573.5 133 c 128,-1,14
 616 142 616 142 647 167.5 c 128,-1,15
 678 193 678 193 678 233 c 0,16,17
 678 266 678 266 661 288 c 128,-1,18
 644 310 644 310 612.5 320.5 c 128,-1,19
 581 331 581 331 549.5 334.5 c 128,-1,20
 518 338 518 338 475 338 c 2,21,-1
 393 338 l 1,22,-1
 393 467 l 1,23,-1
 469 467 l 2,24,25
 641 467 641 467 641 573 c 0,26,27
 641 659 641 659 500 659 c 0,28,29
 392 659 392 659 291 627 c 1,30,-1
 291 768 l 1,31,32
 396 799 396 799 532 799 c 0,33,34
 663 799 663 799 742 752 c 128,-1,35
 821 705 821 705 821 604 c 0,36,37
 821 473 821 473 696 418 c 1,0,1
EndSplineSet
EndChar

StartChar: fourinferior
Encoding: 156 -1 156
GlifName: fourinferior
Width: 1126
Flags: W
HStem: 0 21G<623 784> 145 150<385 623 784 920>
VStem: 627 157<0 145 295 643>
LayerCount: 2
Fore
SplineSet
920 145 m 1,0,-1
 784 145 l 1,1,-1
 784 0 l 1,2,-1
 623 0 l 1,3,-1
 623 145 l 1,4,-1
 211 145 l 1,5,-1
 211 289 l 1,6,-1
 555 782 l 1,7,-1
 784 782 l 1,8,-1
 784 295 l 1,9,-1
 920 295 l 1,10,-1
 920 145 l 1,0,-1
627 643 m 1,11,-1
 385 295 l 1,12,-1
 627 295 l 1,13,-1
 627 643 l 1,11,-1
EndSplineSet
EndChar

StartChar: fiveinferior
Encoding: 157 -1 157
GlifName: fiveinferior
Width: 1126
Flags: W
HStem: -16 141<295.794 657.453> 342 135<465 666.031> 629 153<465 823>
VStem: 309 156<477 629> 688 178<157.498 319.279>
LayerCount: 2
Fore
SplineSet
535 477 m 2,0,1
 611 477 611 477 667 467.5 c 128,-1,2
 723 458 723 458 770 434 c 128,-1,3
 817 410 817 410 841.5 363.5 c 128,-1,4
 866 317 866 317 866 248 c 0,5,6
 866 177 866 177 834 124 c 128,-1,7
 802 71 802 71 746.5 41.5 c 128,-1,8
 691 12 691 12 624 -2 c 128,-1,9
 557 -16 557 -16 479 -16 c 0,10,11
 409 -16 409 -16 293 2 c 1,12,-1
 293 147 l 1,13,14
 415 125 415 125 487 125 c 0,15,16
 688 125 688 125 688 240 c 0,17,18
 688 275 688 275 672 297 c 128,-1,19
 656 319 656 319 622 328 c 128,-1,20
 588 337 588 337 560 339.5 c 128,-1,21
 532 342 532 342 483 342 c 2,22,-1
 309 342 l 1,23,-1
 309 782 l 1,24,-1
 823 782 l 1,25,-1
 823 629 l 1,26,-1
 465 629 l 1,27,-1
 465 477 l 1,28,-1
 535 477 l 2,0,1
EndSplineSet
EndChar

StartChar: sixinferior
Encoding: 158 -1 158
GlifName: sixinferior
Width: 1126
Flags: W
HStem: -16 141<456.268 686.587> 350 137<425.861 691.384> 641 141<489.016 807>
VStem: 238 186<159.823 338.379 463 573.056> 713 174<153.783 325.274>
LayerCount: 2
Fore
SplineSet
590 487 m 0,0,1
 731 487 731 487 809 428 c 128,-1,2
 887 369 887 369 887 246 c 0,3,4
 887 117 887 117 795 50.5 c 128,-1,5
 703 -16 703 -16 559 -16 c 0,6,7
 238 -16 238 -16 238 334 c 0,8,9
 238 563 238 563 348 672.5 c 128,-1,10
 458 782 458 782 690 782 c 2,11,-1
 807 782 l 1,12,-1
 807 641 l 1,13,-1
 678 641 l 2,14,15
 560 641 560 641 496.5 603.5 c 128,-1,16
 433 566 433 566 424 473 c 1,17,-1
 424 463 l 1,18,19
 498 487 498 487 590 487 c 0,0,1
569 125 m 0,20,21
 632 125 632 125 672.5 155.5 c 128,-1,22
 713 186 713 186 713 240 c 0,23,24
 713 296 713 296 674 323 c 128,-1,25
 635 350 635 350 567 350 c 0,26,27
 494 350 494 350 418 324 c 1,28,29
 418 223 418 223 451.5 174 c 128,-1,30
 485 125 485 125 569 125 c 0,20,21
EndSplineSet
EndChar

StartChar: seveninferior
Encoding: 159 -1 159
GlifName: seveninferior
Width: 1126
Flags: W
HStem: 0 21G<330 530.601> 629 153<256 672>
VStem: 256 608<649 782>
LayerCount: 2
Fore
SplineSet
864 649 m 1,0,-1
 520 0 l 1,1,-1
 330 0 l 1,2,-1
 672 629 l 1,3,-1
 256 629 l 1,4,-1
 256 782 l 1,5,-1
 864 782 l 1,6,-1
 864 649 l 1,0,-1
EndSplineSet
EndChar

StartChar: eightinferior
Encoding: 160 -1 160
GlifName: eightinferior
Width: 1126
Flags: W
HStem: -16 129<431.129 698.588> 672 127<433.163 692.398>
VStem: 252 164<134.029 287.803 532.917 653.126> 711 163<131.201 276.131 523.84 650.082>
LayerCount: 2
Fore
SplineSet
717 414 m 1,0,1
 791 381 791 381 832.5 334.5 c 128,-1,2
 874 288 874 288 874 207 c 0,3,4
 874 147 874 147 848.5 103 c 128,-1,5
 823 59 823 59 778 33.5 c 128,-1,6
 733 8 733 8 678.5 -4 c 128,-1,7
 624 -16 624 -16 559 -16 c 0,8,9
 469 -16 469 -16 403 2.5 c 128,-1,10
 337 21 337 21 294.5 68.5 c 128,-1,11
 252 116 252 116 252 190 c 0,12,13
 252 266 252 266 295.5 312.5 c 128,-1,14
 339 359 339 359 412 395 c 1,15,16
 344 428 344 428 305 471 c 128,-1,17
 266 514 266 514 266 588 c 128,-1,18
 266 662 266 662 309.5 710.5 c 128,-1,19
 353 759 353 759 418 779 c 128,-1,20
 483 799 483 799 567 799 c 0,21,22
 697 799 697 799 778.5 752 c 128,-1,23
 860 705 860 705 860 604 c 0,24,25
 860 487 860 487 717 414 c 1,0,1
582 473 m 1,26,27
 635 495 635 495 667.5 523.5 c 128,-1,28
 700 552 700 552 700 598 c 0,29,30
 700 672 700 672 563 672 c 128,-1,31
 426 672 426 672 426 598 c 0,32,33
 426 578 426 578 434 562 c 128,-1,34
 442 546 442 546 458.5 534 c 128,-1,35
 475 522 475 522 487.5 514.5 c 128,-1,36
 500 507 500 507 520 498 c 0,37,38
 547 485 547 485 582 473 c 1,26,27
563 113 m 0,39,40
 711 113 711 113 711 201 c 0,41,42
 711 221 711 221 701.5 238 c 128,-1,43
 692 255 692 255 682 266 c 128,-1,44
 672 277 672 277 649 289 c 128,-1,45
 626 301 626 301 614.5 305.5 c 128,-1,46
 603 310 603 310 575.5 320 c 128,-1,47
 548 330 548 330 543 332 c 0,48,49
 514 319 514 319 498.5 311 c 128,-1,50
 483 303 483 303 460 287 c 128,-1,51
 437 271 437 271 426.5 249.5 c 128,-1,52
 416 228 416 228 416 201 c 0,53,54
 416 113 416 113 563 113 c 0,39,40
EndSplineSet
EndChar

StartChar: nineinferior
Encoding: 161 -1 161
GlifName: nineinferior
Width: 1126
Flags: W
HStem: 0 143<291 632.699> 295 141<428.597 696.496> 657 142<432.77 660.21>
VStem: 233 175<459.477 628.945> 702 181<446.74 611.651>
LayerCount: 2
Fore
SplineSet
559 799 m 256,0,1
 729 799 729 799 806 709.5 c 128,-1,2
 883 620 883 620 883 440 c 0,3,4
 883 71 883 71 589 16 c 0,5,6
 499 0 499 0 416 0 c 2,7,-1
 291 0 l 1,8,-1
 291 143 l 1,9,-1
 436 143 l 2,10,11
 558 143 558 143 621.5 178.5 c 128,-1,12
 685 214 685 214 696 309 c 1,13,-1
 698 317 l 1,14,15
 631 295 631 295 530 295 c 0,16,17
 233 295 233 295 233 537 c 0,18,19
 233 633 233 633 287 694 c 128,-1,20
 341 755 341 755 428 781 c 0,21,22
 488 799 488 799 559 799 c 256,0,1
702 463 m 1,23,24
 702 557 702 557 667.5 607 c 128,-1,25
 633 657 633 657 551 657 c 0,26,27
 488 657 488 657 448 627 c 128,-1,28
 408 597 408 597 408 543 c 0,29,30
 408 436 408 436 555 436 c 0,31,32
 657 436 657 436 702 463 c 1,23,24
EndSplineSet
EndChar

StartChar: zerosuperior
Encoding: 162 -1 162
GlifName: zerosuperior
Width: 1126
Flags: W
HStem: 615 139<448.72 672.536> 1290 140<453.066 677.28>
VStem: 205 178<821.103 1215.85> 743 178<828.647 1223>
LayerCount: 2
Fore
SplineSet
573 1430 m 0,0,1
 747 1430 747 1430 834 1323.5 c 128,-1,2
 921 1217 921 1217 921 1028 c 0,3,4
 921 837 921 837 827 726 c 128,-1,5
 733 615 733 615 553 615 c 0,6,7
 379 615 379 615 292 721 c 128,-1,8
 205 827 205 827 205 1016 c 0,9,10
 205 1208 205 1208 298.5 1319 c 128,-1,11
 392 1430 392 1430 573 1430 c 0,0,1
383 1022 m 0,12,13
 383 962 383 962 391.5 916 c 128,-1,14
 400 870 400 870 419.5 832 c 128,-1,15
 439 794 439 794 475 774 c 128,-1,16
 511 754 511 754 563 754 c 0,17,18
 612 754 612 754 648 775.5 c 128,-1,19
 684 797 684 797 704 835.5 c 128,-1,20
 724 874 724 874 733.5 920 c 128,-1,21
 743 966 743 966 743 1022 c 0,22,23
 743 1082 743 1082 734.5 1128 c 128,-1,24
 726 1174 726 1174 706.5 1212 c 128,-1,25
 687 1250 687 1250 651 1270 c 128,-1,26
 615 1290 615 1290 563 1290 c 0,27,28
 498 1290 498 1290 456 1251.5 c 128,-1,29
 414 1213 414 1213 398.5 1155.5 c 128,-1,30
 383 1098 383 1098 383 1022 c 0,12,13
EndSplineSet
EndChar

StartChar: onesuperior
Encoding: 163 -1 163
GlifName: onesuperior
Width: 1126
Flags: W
HStem: 631 145<266 504 678 879>
VStem: 504 174<776 1243>
LayerCount: 2
Fore
SplineSet
879 631 m 1,0,-1
 266 631 l 1,1,-1
 266 776 l 1,2,-1
 504 776 l 1,3,-1
 504 1243 l 1,4,-1
 285 1135 l 1,5,-1
 227 1266 l 1,6,-1
 539 1422 l 1,7,-1
 678 1422 l 1,8,-1
 678 776 l 1,9,-1
 879 776 l 1,10,-1
 879 631 l 1,0,-1
EndSplineSet
EndChar

StartChar: twosuperior
Encoding: 164 -1 164
GlifName: twosuperior
Width: 1126
Flags: W
HStem: 631 154<498 883> 1280 150<370.205 631.26>
VStem: 651 185<1066.05 1257.89>
LayerCount: 2
Fore
SplineSet
252 1317 m 1,0,1
 365 1430 365 1430 539 1430 c 0,2,3
 743 1430 743 1430 813 1292 c 0,4,5
 836 1246 836 1246 836 1186 c 0,6,7
 836 1107 836 1107 802.5 1051.5 c 128,-1,8
 769 996 769 996 709 943 c 0,9,10
 668 906 668 906 612 867 c 2,11,-1
 498 785 l 1,12,-1
 883 785 l 1,13,-1
 883 631 l 1,14,-1
 246 631 l 1,15,-1
 246 774 l 1,16,-1
 463 942 l 2,17,18
 468 945 468 945 485.5 959 c 128,-1,19
 503 973 503 973 507.5 976.5 c 128,-1,20
 512 980 512 980 526.5 991.5 c 128,-1,21
 541 1003 541 1003 547 1008 c 128,-1,22
 553 1013 553 1013 564.5 1023.5 c 128,-1,23
 576 1034 576 1034 583 1041 c 128,-1,24
 590 1048 590 1048 598.5 1057.5 c 128,-1,25
 607 1067 607 1067 615 1076 c 0,26,27
 651 1120 651 1120 651 1174 c 0,28,29
 651 1226 651 1226 614.5 1253 c 128,-1,30
 578 1280 578 1280 518 1280 c 0,31,32
 416 1280 416 1280 338 1211 c 1,33,-1
 252 1317 l 1,0,1
EndSplineSet
EndChar

StartChar: threesuperior
Encoding: 165 -1 165
GlifName: threesuperior
Width: 1126
Flags: W
HStem: 615 140<276.549 647.937> 969 129<393 617.186> 1290 140<293.945 628.173>
VStem: 641 180<1124.32 1273.24> 678 184<788.215 941.433>
LayerCount: 2
Fore
SplineSet
696 1049 m 1,0,1
 773 1028 773 1028 817.5 987 c 128,-1,2
 862 946 862 946 862 869 c 0,3,4
 862 690 862 690 642 634 c 0,5,6
 564 615 564 615 473 615 c 0,7,8
 338 615 338 615 274 631 c 1,9,-1
 274 771 l 1,10,11
 343 755 343 755 479 755 c 0,12,13
 531 755 531 755 573.5 764 c 128,-1,14
 616 773 616 773 647 798.5 c 128,-1,15
 678 824 678 824 678 864 c 0,16,17
 678 897 678 897 661 919 c 128,-1,18
 644 941 644 941 612.5 951.5 c 128,-1,19
 581 962 581 962 549.5 965.5 c 128,-1,20
 518 969 518 969 475 969 c 2,21,-1
 393 969 l 1,22,-1
 393 1098 l 1,23,-1
 469 1098 l 2,24,25
 641 1098 641 1098 641 1204 c 0,26,27
 641 1290 641 1290 500 1290 c 0,28,29
 392 1290 392 1290 291 1258 c 1,30,-1
 291 1399 l 1,31,32
 396 1430 396 1430 532 1430 c 0,33,34
 663 1430 663 1430 742 1383 c 128,-1,35
 821 1336 821 1336 821 1235 c 0,36,37
 821 1104 821 1104 696 1049 c 1,0,1
EndSplineSet
EndChar

StartChar: foursuperior
Encoding: 166 -1 166
GlifName: foursuperior
Width: 1126
Flags: W
HStem: 776 150<385 623 784 920>
VStem: 627 157<631 776 926 1274>
LayerCount: 2
Fore
SplineSet
920 776 m 1,0,-1
 784 776 l 1,1,-1
 784 631 l 1,2,-1
 623 631 l 1,3,-1
 623 776 l 1,4,-1
 211 776 l 1,5,-1
 211 920 l 1,6,-1
 555 1413 l 1,7,-1
 784 1413 l 1,8,-1
 784 926 l 1,9,-1
 920 926 l 1,10,-1
 920 776 l 1,0,-1
627 1274 m 1,11,-1
 385 926 l 1,12,-1
 627 926 l 1,13,-1
 627 1274 l 1,11,-1
EndSplineSet
EndChar

StartChar: fivesuperior
Encoding: 167 -1 167
GlifName: fivesuperior
Width: 1126
Flags: W
HStem: 615 141<295.794 657.453> 973 135<465 666.031> 1260 153<465 823>
VStem: 309 156<1108 1260> 688 178<788.498 950.279>
LayerCount: 2
Fore
SplineSet
535 1108 m 2,0,1
 611 1108 611 1108 667 1098.5 c 128,-1,2
 723 1089 723 1089 770 1065 c 128,-1,3
 817 1041 817 1041 841.5 994.5 c 128,-1,4
 866 948 866 948 866 879 c 0,5,6
 866 808 866 808 834 755 c 128,-1,7
 802 702 802 702 746.5 672.5 c 128,-1,8
 691 643 691 643 624 629 c 128,-1,9
 557 615 557 615 479 615 c 0,10,11
 409 615 409 615 293 633 c 1,12,-1
 293 778 l 1,13,14
 415 756 415 756 487 756 c 0,15,16
 688 756 688 756 688 871 c 0,17,18
 688 906 688 906 672 928 c 128,-1,19
 656 950 656 950 622 959 c 128,-1,20
 588 968 588 968 560 970.5 c 128,-1,21
 532 973 532 973 483 973 c 2,22,-1
 309 973 l 1,23,-1
 309 1413 l 1,24,-1
 823 1413 l 1,25,-1
 823 1260 l 1,26,-1
 465 1260 l 1,27,-1
 465 1108 l 1,28,-1
 535 1108 l 2,0,1
EndSplineSet
EndChar

StartChar: sixsuperior
Encoding: 168 -1 168
GlifName: sixsuperior
Width: 1126
Flags: W
HStem: 615 141<456.268 686.587> 981 137<425.861 691.384> 1272 141<489.016 807>
VStem: 238 186<790.823 969.379 1094 1204.06> 713 174<784.783 956.274>
LayerCount: 2
Fore
SplineSet
590 1118 m 0,0,1
 731 1118 731 1118 809 1059 c 128,-1,2
 887 1000 887 1000 887 877 c 0,3,4
 887 748 887 748 795 681.5 c 128,-1,5
 703 615 703 615 559 615 c 0,6,7
 238 615 238 615 238 965 c 0,8,9
 238 1194 238 1194 348 1303.5 c 128,-1,10
 458 1413 458 1413 690 1413 c 2,11,-1
 807 1413 l 1,12,-1
 807 1272 l 1,13,-1
 678 1272 l 2,14,15
 560 1272 560 1272 496.5 1234.5 c 128,-1,16
 433 1197 433 1197 424 1104 c 1,17,-1
 424 1094 l 1,18,19
 498 1118 498 1118 590 1118 c 0,0,1
569 756 m 0,20,21
 632 756 632 756 672.5 786.5 c 128,-1,22
 713 817 713 817 713 871 c 0,23,24
 713 927 713 927 674 954 c 128,-1,25
 635 981 635 981 567 981 c 0,26,27
 494 981 494 981 418 955 c 1,28,29
 418 854 418 854 451.5 805 c 128,-1,30
 485 756 485 756 569 756 c 0,20,21
EndSplineSet
EndChar

StartChar: sevensuperior
Encoding: 169 -1 169
GlifName: sevensuperior
Width: 1126
Flags: W
HStem: 1260 153<256 672>
VStem: 256 608<1280 1413>
LayerCount: 2
Fore
SplineSet
864 1280 m 1,0,-1
 520 631 l 1,1,-1
 330 631 l 1,2,-1
 672 1260 l 1,3,-1
 256 1260 l 1,4,-1
 256 1413 l 1,5,-1
 864 1413 l 1,6,-1
 864 1280 l 1,0,-1
EndSplineSet
EndChar

StartChar: eightsuperior
Encoding: 170 -1 170
GlifName: eightsuperior
Width: 1126
Flags: W
HStem: 615 129<431.129 698.588> 1303 127<433.163 692.398>
VStem: 252 164<765.029 918.803 1163.92 1284.13> 711 163<762.201 907.131 1154.84 1281.08>
LayerCount: 2
Fore
SplineSet
717 1045 m 1,0,1
 791 1012 791 1012 832.5 965.5 c 128,-1,2
 874 919 874 919 874 838 c 0,3,4
 874 778 874 778 848.5 734 c 128,-1,5
 823 690 823 690 778 664.5 c 128,-1,6
 733 639 733 639 678.5 627 c 128,-1,7
 624 615 624 615 559 615 c 0,8,9
 469 615 469 615 403 633.5 c 128,-1,10
 337 652 337 652 294.5 699.5 c 128,-1,11
 252 747 252 747 252 821 c 0,12,13
 252 897 252 897 295.5 943.5 c 128,-1,14
 339 990 339 990 412 1026 c 1,15,16
 344 1059 344 1059 305 1102 c 128,-1,17
 266 1145 266 1145 266 1219 c 128,-1,18
 266 1293 266 1293 309.5 1341.5 c 128,-1,19
 353 1390 353 1390 418 1410 c 128,-1,20
 483 1430 483 1430 567 1430 c 0,21,22
 697 1430 697 1430 778.5 1383 c 128,-1,23
 860 1336 860 1336 860 1235 c 0,24,25
 860 1118 860 1118 717 1045 c 1,0,1
582 1104 m 1,26,27
 635 1126 635 1126 667.5 1154.5 c 128,-1,28
 700 1183 700 1183 700 1229 c 0,29,30
 700 1303 700 1303 563 1303 c 128,-1,31
 426 1303 426 1303 426 1229 c 0,32,33
 426 1209 426 1209 434 1193 c 128,-1,34
 442 1177 442 1177 458.5 1165 c 128,-1,35
 475 1153 475 1153 487.5 1145.5 c 128,-1,36
 500 1138 500 1138 520 1129 c 0,37,38
 547 1116 547 1116 582 1104 c 1,26,27
563 744 m 0,39,40
 711 744 711 744 711 832 c 0,41,42
 711 852 711 852 701.5 869 c 128,-1,43
 692 886 692 886 682 897 c 128,-1,44
 672 908 672 908 649 920 c 128,-1,45
 626 932 626 932 614.5 936.5 c 128,-1,46
 603 941 603 941 575.5 951 c 128,-1,47
 548 961 548 961 543 963 c 0,48,49
 514 950 514 950 498.5 942 c 128,-1,50
 483 934 483 934 460 918 c 128,-1,51
 437 902 437 902 426.5 880.5 c 128,-1,52
 416 859 416 859 416 832 c 0,53,54
 416 744 416 744 563 744 c 0,39,40
EndSplineSet
EndChar

StartChar: ninesuperior
Encoding: 171 -1 171
GlifName: ninesuperior
Width: 1126
Flags: W
HStem: 631 143<291 632.699> 926 141<428.597 696.496> 1288 142<432.77 660.21>
VStem: 233 175<1090.48 1259.95> 702 181<1077.74 1242.65>
LayerCount: 2
Fore
SplineSet
559 1430 m 256,0,1
 729 1430 729 1430 806 1340.5 c 128,-1,2
 883 1251 883 1251 883 1071 c 0,3,4
 883 701 883 701 589 646 c 0,5,6
 505 631 505 631 416 631 c 2,7,-1
 291 631 l 1,8,-1
 291 774 l 1,9,-1
 436 774 l 2,10,11
 558 774 558 774 621.5 809.5 c 128,-1,12
 685 845 685 845 696 940 c 1,13,-1
 698 948 l 1,14,15
 631 926 631 926 530 926 c 0,16,17
 233 926 233 926 233 1168 c 0,18,19
 233 1264 233 1264 287 1325 c 128,-1,20
 341 1386 341 1386 428 1412 c 0,21,22
 488 1430 488 1430 559 1430 c 256,0,1
702 1094 m 1,23,24
 702 1188 702 1188 667.5 1238 c 128,-1,25
 633 1288 633 1288 551 1288 c 0,26,27
 488 1288 488 1288 448 1258 c 128,-1,28
 408 1228 408 1228 408 1174 c 0,29,30
 408 1067 408 1067 555 1067 c 0,31,32
 657 1067 657 1067 702 1094 c 1,23,24
EndSplineSet
EndChar

StartChar: zero.zero
Encoding: 172 -1 172
GlifName: zero.zero
Width: 1126
Flags: W
HStem: -18 149<421.769 705.108> 535 251<467.82 658.517> 1176 149<424.081 704.417>
VStem: 88 176<342.789 964.4> 438 250<564.39 755.657> 862 176<341.243 963.692>
CounterMasks: 1 1c
LayerCount: 2
Fore
SplineSet
1038 653 m 0,0,1
 1038 426 1038 426 970.5 265 c 128,-1,2
 903 104 903 104 765 30 c 0,3,4
 674 -18 674 -18 553 -18 c 0,5,6
 218 -18 218 -18 121 352 c 0,7,8
 88 480 88 480 88 653 c 0,9,10
 88 879 88 879 155.5 1040.5 c 128,-1,11
 223 1202 223 1202 361 1276 c 0,12,13
 452 1325 452 1325 573 1325 c 0,14,15
 908 1325 908 1325 1005 954 c 0,16,17
 1038 826 1038 826 1038 653 c 0,0,1
862 647 m 0,18,19
 862 1010 862 1010 706 1131 c 0,20,21
 649 1176 649 1176 563 1176 c 0,22,23
 425 1176 425 1176 345 1044 c 0,24,25
 264 908 264 908 264 659 c 0,26,27
 264 298 264 298 420 176 c 0,28,29
 477 131 477 131 563 131 c 0,30,31
 702 131 702 131 781 262 c 0,32,33
 862 398 862 398 862 647 c 0,18,19
438 659 m 128,-1,35
 438 712 438 712 474 749 c 128,-1,36
 510 786 510 786 563 786 c 0,37,38
 617 786 617 786 652.5 749.5 c 128,-1,39
 688 713 688 713 688 659 c 0,40,41
 688 606 688 606 652 570.5 c 128,-1,42
 616 535 616 535 563 535 c 128,-1,43
 510 535 510 535 474 570.5 c 128,-1,34
 438 606 438 606 438 659 c 128,-1,35
EndSplineSet
EndChar

StartChar: x.multiply
Encoding: 173 -1 173
GlifName: x.multiply
Width: 1126
Flags: W
LayerCount: 2
Fore
SplineSet
975 850 m 5,0,-1
 674 549 l 1,1,-1
 979 246 l 1,2,-1
 862 129 l 1,3,-1
 559 434 l 1,4,-1
 258 133 l 1,5,-1
 152 240 l 1,6,-1
 453 541 l 1,7,-1
 147 844 l 1,8,-1
 264 961 l 1,9,-1
 567 655 l 1,10,-1
 868 956 l 1,11,-1
 975 850 l 5,0,-1
EndSplineSet
EndChar
